<ttFont>
    <TTGlyph name="A" xMin="15" yMin="0" xMax="483" yMax="634">
      <contour>
        <pt x="15" y="0" on="1"/>
        <pt x="235" y="634" on="1"/>
        <pt x="243" y="634" on="1"/>
        <pt x="483" y="0" on="1"/>
        <pt x="411" y="0" on="1"/>
        <pt x="342" y="182" on="1"/>
        <pt x="144" y="182" on="1"/>
        <pt x="84" y="0" on="1"/>
      </contour>
      <contour>
        <pt x="326" y="236" on="1"/>
        <pt x="238" y="474" on="1"/>
        <pt x="158" y="236" on="1"/>
      </contour>
    </TTGlyph>
    <TTGlyph name="AE" xMin="4" yMin="0" xMax="484" yMax="624">
      <contour>
        <pt x="200" y="624" on="1"/>
        <pt x="484" y="624" on="1"/>
        <pt x="484" y="562" on="1"/>
        <pt x="313" y="562" on="1"/>
        <pt x="313" y="357" on="1"/>
        <pt x="458" y="357" on="1"/>
        <pt x="458" y="293" on="1"/>
        <pt x="313" y="293" on="1"/>
        <pt x="313" y="62" on="1"/>
        <pt x="482" y="62" on="1"/>
        <pt x="482" y="0" on="1"/>
        <pt x="252" y="0" on="1"/>
        <pt x="252" y="169" on="1"/>
        <pt x="122" y="169" on="1"/>
        <pt x="68" y="0" on="1"/>
        <pt x="4" y="0" on="1"/>
      </contour>
      <contour>
        <pt x="252" y="562" on="1"/>
        <pt x="241" y="562" on="1"/>
        <pt x="136" y="227" on="1"/>
        <pt x="252" y="227" on="1"/>
      </contour>
    </TTGlyph>
    <TTGlyph name="Aacute" xMin="15" yMin="0" xMax="483" yMax="791">
      <component glyphName="A" x="0" y="0" flags="0x204"/>
      <component glyphName="acute.cap" x="-16" y="0" flags="0x4"/>
    </TTGlyph>
    <TTGlyph name="Abreve" xMin="15" yMin="0" xMax="483" yMax="784">
      <component glyphName="A" x="0" y="0" flags="0x204"/>
      <component glyphName="breve.cap" x="0" y="0" flags="0x4"/>
    </TTGlyph>
    <TTGlyph name="Acircumflex" xMin="15" yMin="0" xMax="483" yMax="791">
      <component glyphName="A" x="0" y="0" flags="0x204"/>
      <component glyphName="circumflex.cap" x="-11" y="0" flags="0x4"/>
    </TTGlyph>
    <TTGlyph name="Adieresis" xMin="15" yMin="0" xMax="483" yMax="789">
      <component glyphName="A" x="0" y="0" flags="0x204"/>
      <component glyphName="dieresis.cap" x="0" y="0" flags="0x4"/>
    </TTGlyph>
    <TTGlyph name="Agrave" xMin="15" yMin="0" xMax="483" yMax="791">
      <component glyphName="A" x="0" y="0" flags="0x204"/>
      <component glyphName="grave.cap" x="-24" y="0" flags="0x4"/>
    </TTGlyph>
    <TTGlyph name="Aogonek" xMin="15" yMin="-176" xMax="486" yMax="634">
      <contour>
        <pt x="326" y="236" on="1"/>
        <pt x="238" y="474" on="1"/>
        <pt x="158" y="236" on="1"/>
      </contour>
      <contour>
        <pt x="15" y="-1" on="1"/>
        <pt x="235" y="634" on="1"/>
        <pt x="243" y="634" on="1"/>
        <pt x="484" y="0" on="1"/>
        <pt x="400" y="-75" on="0"/>
        <pt x="400" y="-102" on="1"/>
        <pt x="400" y="-114" on="0"/>
        <pt x="416" y="-130" on="0"/>
        <pt x="428" y="-130" on="1"/>
        <pt x="457" y="-130" on="0"/>
        <pt x="486" y="-107" on="1"/>
        <pt x="486" y="-153" on="1"/>
        <pt x="458" y="-176" on="0"/>
        <pt x="419" y="-176" on="1"/>
        <pt x="379" y="-176" on="0"/>
        <pt x="338" y="-141" on="0"/>
        <pt x="338" y="-115" on="1"/>
        <pt x="338" y="-65" on="0"/>
        <pt x="418" y="0" on="1"/>
        <pt x="411" y="0" on="1"/>
        <pt x="342" y="182" on="1"/>
        <pt x="144" y="182" on="1"/>
        <pt x="84" y="-1" on="1"/>
      </contour>
    </TTGlyph>
    <TTGlyph name="Apostrophe" xMin="196" yMin="411" xMax="309" yMax="628">
      <contour>
        <pt x="309" y="562" on="1"/>
        <pt x="309" y="496" on="0"/>
        <pt x="224" y="411" on="1"/>
        <pt x="196" y="435" on="1"/>
        <pt x="219" y="456" on="0"/>
        <pt x="248" y="505" on="0"/>
        <pt x="248" y="519" on="1"/>
        <pt x="248" y="527" on="0"/>
        <pt x="235" y="541" on="0"/>
        <pt x="220" y="555" on="0"/>
        <pt x="207" y="571" on="0"/>
        <pt x="207" y="581" on="1"/>
        <pt x="207" y="601" on="0"/>
        <pt x="234" y="628" on="0"/>
        <pt x="255" y="628" on="1"/>
        <pt x="276" y="628" on="0"/>
        <pt x="309" y="591" on="0"/>
      </contour>
    </TTGlyph>
    <TTGlyph name="Aring" xMin="15" yMin="-1" xMax="483" yMax="795">
      <contour>
        <pt x="241" y="753" on="1"/>
        <pt x="224" y="753" on="0"/>
        <pt x="199" y="727" on="0"/>
        <pt x="199" y="707" on="1"/>
        <pt x="199" y="688" on="0"/>
        <pt x="224" y="662" on="0"/>
        <pt x="241" y="662" on="1"/>
        <pt x="258" y="662" on="0"/>
        <pt x="282" y="688" on="0"/>
        <pt x="282" y="707" on="1"/>
        <pt x="282" y="727" on="0"/>
        <pt x="258" y="753" on="0"/>
      </contour>
      <contour>
        <pt x="326" y="236" on="1"/>
        <pt x="238" y="474" on="1"/>
        <pt x="158" y="236" on="1"/>
      </contour>
      <contour>
        <pt x="248" y="619" on="1"/>
        <pt x="483" y="0" on="1"/>
        <pt x="411" y="0" on="1"/>
        <pt x="342" y="182" on="1"/>
        <pt x="144" y="182" on="1"/>
        <pt x="84" y="-1" on="1"/>
        <pt x="15" y="-1" on="1"/>
        <pt x="230" y="619" on="1"/>
        <pt x="195" y="623" on="0"/>
        <pt x="148" y="673" on="0"/>
        <pt x="148" y="708" on="1"/>
        <pt x="148" y="726" on="0"/>
        <pt x="162" y="757" on="0"/>
        <pt x="187" y="781" on="0"/>
        <pt x="221" y="795" on="0"/>
        <pt x="240" y="795" on="1"/>
        <pt x="259" y="795" on="0"/>
        <pt x="292" y="781" on="0"/>
        <pt x="317" y="757" on="0"/>
        <pt x="331" y="726" on="0"/>
        <pt x="331" y="708" on="1"/>
        <pt x="331" y="673" on="0"/>
        <pt x="284" y="622" on="0"/>
      </contour>
    </TTGlyph>
    <TTGlyph name="Atilde" xMin="15" yMin="0" xMax="483" yMax="802">
      <component glyphName="A" x="0" y="0" flags="0x204"/>
      <component glyphName="tilde.cap" x="0" y="0" flags="0x4"/>
    </TTGlyph>
    <TTGlyph name="B" xMin="48" yMin="0" xMax="457" yMax="623">
      <contour>
        <pt x="48" y="623" on="1"/>
        <pt x="225" y="623" on="1"/>
        <pt x="279" y="623" on="0"/>
        <pt x="358" y="602" on="0"/>
        <pt x="406" y="560" on="0"/>
        <pt x="432" y="505" on="0"/>
        <pt x="432" y="472" on="1"/>
        <pt x="432" y="428" on="0"/>
        <pt x="384" y="350" on="0"/>
        <pt x="340" y="334" on="1"/>
        <pt x="366" y="325" on="0"/>
        <pt x="409" y="292" on="0"/>
        <pt x="441" y="250" on="0"/>
        <pt x="457" y="201" on="0"/>
        <pt x="457" y="175" on="1"/>
        <pt x="457" y="96" on="0"/>
        <pt x="345" y="0" on="0"/>
        <pt x="224" y="0" on="1"/>
        <pt x="48" y="0" on="1"/>
      </contour>
      <contour>
        <pt x="117" y="564" on="1"/>
        <pt x="117" y="365" on="1"/>
        <pt x="215" y="365" on="1"/>
        <pt x="257" y="365" on="0"/>
        <pt x="311" y="380" on="0"/>
        <pt x="344" y="406" on="0"/>
        <pt x="360" y="443" on="0"/>
        <pt x="362" y="464" on="1"/>
        <pt x="360" y="485" on="0"/>
        <pt x="345" y="521" on="0"/>
        <pt x="313" y="548" on="0"/>
        <pt x="263" y="564" on="0"/>
        <pt x="226" y="564" on="1"/>
      </contour>
      <contour>
        <pt x="117" y="306" on="1"/>
        <pt x="117" y="61" on="1"/>
        <pt x="236" y="61" on="1"/>
        <pt x="316" y="61" on="0"/>
        <pt x="379" y="128" on="0"/>
        <pt x="383" y="179" on="1"/>
        <pt x="381" y="207" on="0"/>
        <pt x="363" y="253" on="0"/>
        <pt x="326" y="288" on="0"/>
        <pt x="263" y="306" on="0"/>
        <pt x="219" y="306" on="1"/>
      </contour>
    </TTGlyph>
    <TTGlyph name="C" xMin="41" yMin="-10" xMax="469" yMax="628">
      <contour>
        <pt x="398" y="482" on="1"/>
        <pt x="398" y="494" on="0"/>
        <pt x="395" y="500" on="1"/>
        <pt x="375" y="533" on="0"/>
        <pt x="311" y="572" on="0"/>
        <pt x="275" y="572" on="1"/>
        <pt x="241" y="572" on="0"/>
        <pt x="181" y="537" on="0"/>
        <pt x="135" y="470" on="0"/>
        <pt x="109" y="374" on="0"/>
        <pt x="109" y="313" on="1"/>
        <pt x="109" y="254" on="0"/>
        <pt x="135" y="157" on="0"/>
        <pt x="182" y="88" on="0"/>
        <pt x="245" y="50" on="0"/>
        <pt x="281" y="50" on="1"/>
        <pt x="318" y="50" on="0"/>
        <pt x="387" y="91" on="0"/>
        <pt x="408" y="126" on="1"/>
        <pt x="460" y="92" on="1"/>
        <pt x="445" y="67" on="0"/>
        <pt x="403" y="29" on="0"/>
        <pt x="356" y="3" on="0"/>
        <pt x="309" y="-10" on="0"/>
        <pt x="285" y="-10" on="1"/>
        <pt x="231" y="-10" on="0"/>
        <pt x="148" y="27" on="0"/>
        <pt x="79" y="105" on="0"/>
        <pt x="41" y="225" on="0"/>
        <pt x="41" y="308" on="1"/>
        <pt x="41" y="400" on="0"/>
        <pt x="85" y="523" on="0"/>
        <pt x="157" y="597" on="0"/>
        <pt x="238" y="628" on="0"/>
        <pt x="276" y="628" on="1"/>
        <pt x="307" y="628" on="0"/>
        <pt x="366" y="610" on="0"/>
        <pt x="417" y="578" on="0"/>
        <pt x="457" y="533" on="0"/>
        <pt x="469" y="505" on="1"/>
        <pt x="402" y="472" on="1"/>
        <pt x="398" y="475" on="0"/>
      </contour>
    </TTGlyph>
    <TTGlyph name="Cacute" xMin="41" yMin="-10" xMax="469" yMax="791">
      <component glyphName="C" x="0" y="0" flags="0x204"/>
      <component glyphName="acute.cap" x="-17" y="0" flags="0x4"/>
    </TTGlyph>
    <TTGlyph name="Ccaron" xMin="41" yMin="-10" xMax="469" yMax="791">
      <component glyphName="C" x="0" y="0" flags="0x204"/>
      <component glyphName="caron.cap" x="35" y="0" flags="0x4"/>
    </TTGlyph>
    <TTGlyph name="Ccedilla" xMin="41" yMin="-177" xMax="469" yMax="628">
      <contour>
        <pt x="327" y="-109" on="1"/>
        <pt x="327" y="-85" on="0"/>
        <pt x="280" y="-85" on="1"/>
        <pt x="250" y="-85" on="1"/>
        <pt x="260" y="-10" on="1"/>
        <pt x="218" y="-6" on="0"/>
        <pt x="139" y="34" on="0"/>
        <pt x="77" y="110" on="0"/>
        <pt x="41" y="225" on="0"/>
        <pt x="41" y="303" on="1"/>
        <pt x="41" y="399" on="0"/>
        <pt x="87" y="525" on="0"/>
        <pt x="156" y="598" on="0"/>
        <pt x="239" y="628" on="0"/>
        <pt x="276" y="628" on="1"/>
        <pt x="307" y="628" on="0"/>
        <pt x="366" y="610" on="0"/>
        <pt x="417" y="578" on="0"/>
        <pt x="457" y="533" on="0"/>
        <pt x="469" y="505" on="1"/>
        <pt x="402" y="472" on="1"/>
        <pt x="398" y="475" on="0"/>
        <pt x="398" y="482" on="1"/>
        <pt x="398" y="494" on="0"/>
        <pt x="395" y="500" on="1"/>
        <pt x="375" y="533" on="0"/>
        <pt x="311" y="572" on="0"/>
        <pt x="275" y="572" on="1"/>
        <pt x="241" y="572" on="0"/>
        <pt x="181" y="537" on="0"/>
        <pt x="136" y="470" on="0"/>
        <pt x="109" y="374" on="0"/>
        <pt x="109" y="313" on="1"/>
        <pt x="109" y="254" on="0"/>
        <pt x="135" y="157" on="0"/>
        <pt x="182" y="88" on="0"/>
        <pt x="245" y="50" on="0"/>
        <pt x="281" y="50" on="1"/>
        <pt x="318" y="50" on="0"/>
        <pt x="387" y="91" on="0"/>
        <pt x="408" y="126" on="1"/>
        <pt x="460" y="92" on="1"/>
        <pt x="434" y="50" on="0"/>
        <pt x="352" y="-3" on="0"/>
        <pt x="304" y="-9" on="1"/>
        <pt x="299" y="-47" on="1"/>
        <pt x="316" y="-48" on="1"/>
        <pt x="384" y="-53" on="0"/>
        <pt x="384" y="-103" on="1"/>
        <pt x="384" y="-131" on="0"/>
        <pt x="327" y="-177" on="0"/>
        <pt x="268" y="-177" on="1"/>
        <pt x="209" y="-177" on="0"/>
        <pt x="157" y="-140" on="1"/>
        <pt x="182" y="-98" on="1"/>
        <pt x="225" y="-134" on="0"/>
        <pt x="281" y="-134" on="1"/>
        <pt x="307" y="-134" on="0"/>
        <pt x="327" y="-119" on="0"/>
      </contour>
    </TTGlyph>
    <TTGlyph name="D" xMin="54" yMin="-1" xMax="460" yMax="623">
      <contour>
        <pt x="54" y="623" on="1"/>
        <pt x="199" y="623" on="1"/>
        <pt x="279" y="623" on="0"/>
        <pt x="368" y="579" on="0"/>
        <pt x="430" y="497" on="0"/>
        <pt x="460" y="381" on="0"/>
        <pt x="460" y="308" on="1"/>
        <pt x="460" y="236" on="0"/>
        <pt x="424" y="122" on="0"/>
        <pt x="361" y="41" on="0"/>
        <pt x="261" y="-1" on="0"/>
        <pt x="187" y="-1" on="1"/>
        <pt x="54" y="-1" on="1"/>
      </contour>
      <contour>
        <pt x="120" y="564" on="1"/>
        <pt x="120" y="54" on="1"/>
        <pt x="184" y="54" on="1"/>
        <pt x="291" y="54" on="0"/>
        <pt x="390" y="183" on="0"/>
        <pt x="390" y="304" on="1"/>
        <pt x="389" y="426" on="0"/>
        <pt x="300" y="564" on="0"/>
        <pt x="195" y="564" on="1"/>
      </contour>
    </TTGlyph>
    <TTGlyph name="Dcaron" xMin="54" yMin="-1" xMax="460" yMax="791">
      <component glyphName="D" x="0" y="0" flags="0x204"/>
      <component glyphName="caron.cap" x="-6" y="0" flags="0x4"/>
    </TTGlyph>
    <TTGlyph name="Dcroat" xMin="30" yMin="-1" xMax="466" yMax="623">
      <contour>
        <pt x="79" y="623" on="1"/>
        <pt x="218" y="623" on="1"/>
        <pt x="286" y="623" on="0"/>
        <pt x="379" y="577" on="0"/>
        <pt x="438" y="494" on="0"/>
        <pt x="466" y="377" on="0"/>
        <pt x="466" y="306" on="1"/>
        <pt x="466" y="261" on="0"/>
        <pt x="446" y="172" on="0"/>
        <pt x="409" y="95" on="0"/>
        <pt x="354" y="34" on="0"/>
        <pt x="319" y="18" on="1"/>
        <pt x="280" y="-1" on="0"/>
        <pt x="206" y="-1" on="1"/>
        <pt x="79" y="-1" on="1"/>
        <pt x="79" y="301" on="1"/>
        <pt x="30" y="301" on="1"/>
        <pt x="30" y="359" on="1"/>
        <pt x="79" y="359" on="1"/>
      </contour>
      <contour>
        <pt x="143" y="301" on="1"/>
        <pt x="143" y="57" on="1"/>
        <pt x="203" y="57" on="1"/>
        <pt x="299" y="57" on="0"/>
        <pt x="399" y="188" on="0"/>
        <pt x="399" y="306" on="1"/>
        <pt x="399" y="426" on="0"/>
        <pt x="310" y="564" on="0"/>
        <pt x="214" y="564" on="1"/>
        <pt x="143" y="564" on="1"/>
        <pt x="143" y="359" on="1"/>
        <pt x="248" y="359" on="1"/>
        <pt x="248" y="301" on="1"/>
      </contour>
    </TTGlyph>
    <TTGlyph name="E" xMin="59" yMin="0" xMax="441" yMax="624">
      <contour>
        <pt x="59" y="624" on="1"/>
        <pt x="441" y="624" on="1"/>
        <pt x="441" y="562" on="1"/>
        <pt x="125" y="562" on="1"/>
        <pt x="125" y="357" on="1"/>
        <pt x="386" y="357" on="1"/>
        <pt x="386" y="293" on="1"/>
        <pt x="125" y="293" on="1"/>
        <pt x="125" y="62" on="1"/>
        <pt x="438" y="62" on="1"/>
        <pt x="438" y="0" on="1"/>
        <pt x="59" y="0" on="1"/>
      </contour>
    </TTGlyph>
    <TTGlyph name="Eacute" xMin="59" yMin="0" xMax="441" yMax="791">
      <component glyphName="E" x="0" y="0" flags="0x204"/>
      <component glyphName="acute.cap" x="0" y="0" flags="0x4"/>
    </TTGlyph>
    <TTGlyph name="Ecaron" xMin="59" yMin="0" xMax="441" yMax="791">
      <component glyphName="E" x="0" y="0" flags="0x204"/>
      <component glyphName="caron.cap" x="19" y="0" flags="0x4"/>
    </TTGlyph>
    <TTGlyph name="Ecircumflex" xMin="59" yMin="0" xMax="441" yMax="791">
      <component glyphName="E" x="0" y="0" flags="0x204"/>
      <component glyphName="circumflex.cap" x="-3" y="0" flags="0x4"/>
    </TTGlyph>
    <TTGlyph name="Edieresis" xMin="59" yMin="0" xMax="441" yMax="789">
      <component glyphName="E" x="0" y="0" flags="0x204"/>
      <component glyphName="dieresis.cap" x="6" y="0" flags="0x4"/>
    </TTGlyph>
    <TTGlyph name="Egrave" xMin="59" yMin="0" xMax="441" yMax="791">
      <component glyphName="E" x="0" y="0" flags="0x204"/>
      <component glyphName="grave.cap" x="-24" y="0" flags="0x4"/>
    </TTGlyph>
    <TTGlyph name="Eng" xMin="51" yMin="-11" xMax="449" yMax="634">
      <contour>
        <pt x="300" y="52" on="1"/>
        <pt x="378" y="52" on="0"/>
        <pt x="378" y="170" on="1"/>
        <pt x="378" y="422" on="1"/>
        <pt x="378" y="505" on="0"/>
        <pt x="320" y="571" on="0"/>
        <pt x="274" y="571" on="1"/>
        <pt x="247" y="571" on="0"/>
        <pt x="193" y="548" on="0"/>
        <pt x="150" y="506" on="0"/>
        <pt x="124" y="448" on="0"/>
        <pt x="124" y="413" on="1"/>
        <pt x="124" y="0" on="1"/>
        <pt x="51" y="0" on="1"/>
        <pt x="51" y="623" on="1"/>
        <pt x="124" y="623" on="1"/>
        <pt x="124" y="542" on="1"/>
        <pt x="151" y="584" on="0"/>
        <pt x="237" y="634" on="0"/>
        <pt x="285" y="634" on="1"/>
        <pt x="322" y="634" on="0"/>
        <pt x="382" y="609" on="0"/>
        <pt x="425" y="558" on="0"/>
        <pt x="449" y="479" on="0"/>
        <pt x="449" y="424" on="1"/>
        <pt x="449" y="175" on="1"/>
        <pt x="449" y="81" on="0"/>
        <pt x="367" y="-11" on="0"/>
        <pt x="297" y="-11" on="1"/>
        <pt x="251" y="-11" on="0"/>
        <pt x="210" y="14" on="1"/>
        <pt x="245" y="76" on="1"/>
        <pt x="248" y="74" on="0"/>
        <pt x="251" y="70" on="1"/>
        <pt x="263" y="52" on="0"/>
      </contour>
    </TTGlyph>
    <TTGlyph name="Eogonek" xMin="59" yMin="-176" xMax="441" yMax="624">
      <contour>
        <pt x="59" y="624" on="1"/>
        <pt x="441" y="624" on="1"/>
        <pt x="441" y="562" on="1"/>
        <pt x="125" y="562" on="1"/>
        <pt x="125" y="357" on="1"/>
        <pt x="386" y="357" on="1"/>
        <pt x="386" y="293" on="1"/>
        <pt x="125" y="293" on="1"/>
        <pt x="125" y="62" on="1"/>
        <pt x="438" y="62" on="1"/>
        <pt x="437" y="0" on="1"/>
        <pt x="353" y="-75" on="0"/>
        <pt x="353" y="-102" on="1"/>
        <pt x="353" y="-114" on="0"/>
        <pt x="369" y="-130" on="0"/>
        <pt x="380" y="-130" on="1"/>
        <pt x="410" y="-130" on="0"/>
        <pt x="438" y="-107" on="1"/>
        <pt x="438" y="-153" on="1"/>
        <pt x="412" y="-176" on="0"/>
        <pt x="372" y="-176" on="1"/>
        <pt x="332" y="-176" on="0"/>
        <pt x="291" y="-141" on="0"/>
        <pt x="291" y="-115" on="1"/>
        <pt x="291" y="-64" on="0"/>
        <pt x="370" y="0" on="1"/>
        <pt x="59" y="0" on="1"/>
      </contour>
    </TTGlyph>
    <TTGlyph name="Eth" xMin="30" yMin="-1" xMax="466" yMax="623">
      <contour>
        <pt x="79" y="623" on="1"/>
        <pt x="218" y="623" on="1"/>
        <pt x="286" y="623" on="0"/>
        <pt x="379" y="577" on="0"/>
        <pt x="438" y="494" on="0"/>
        <pt x="466" y="377" on="0"/>
        <pt x="466" y="306" on="1"/>
        <pt x="466" y="261" on="0"/>
        <pt x="446" y="172" on="0"/>
        <pt x="409" y="95" on="0"/>
        <pt x="354" y="34" on="0"/>
        <pt x="319" y="18" on="1"/>
        <pt x="280" y="-1" on="0"/>
        <pt x="206" y="-1" on="1"/>
        <pt x="79" y="-1" on="1"/>
        <pt x="79" y="301" on="1"/>
        <pt x="30" y="301" on="1"/>
        <pt x="30" y="359" on="1"/>
        <pt x="79" y="359" on="1"/>
      </contour>
      <contour>
        <pt x="143" y="301" on="1"/>
        <pt x="143" y="57" on="1"/>
        <pt x="203" y="57" on="1"/>
        <pt x="299" y="57" on="0"/>
        <pt x="399" y="188" on="0"/>
        <pt x="399" y="306" on="1"/>
        <pt x="399" y="426" on="0"/>
        <pt x="310" y="564" on="0"/>
        <pt x="214" y="564" on="1"/>
        <pt x="143" y="564" on="1"/>
        <pt x="143" y="359" on="1"/>
        <pt x="248" y="359" on="1"/>
        <pt x="248" y="301" on="1"/>
      </contour>
    </TTGlyph>
    <TTGlyph name="Euro" xMin="33" yMin="-11" xMax="464" yMax="628">
      <contour>
        <pt x="464" y="574" on="1"/>
        <pt x="439" y="506" on="1"/>
        <pt x="436" y="508" on="0"/>
        <pt x="429" y="529" on="0"/>
        <pt x="403" y="551" on="0"/>
        <pt x="360" y="571" on="0"/>
        <pt x="325" y="571" on="1"/>
        <pt x="269" y="571" on="0"/>
        <pt x="176" y="495" on="0"/>
        <pt x="159" y="414" on="1"/>
        <pt x="406" y="414" on="1"/>
        <pt x="384" y="356" on="1"/>
        <pt x="150" y="356" on="1"/>
        <pt x="148" y="339" on="0"/>
        <pt x="148" y="311" on="0"/>
        <pt x="148" y="300" on="1"/>
        <pt x="148" y="276" on="1"/>
        <pt x="354" y="276" on="1"/>
        <pt x="331" y="218" on="1"/>
        <pt x="154" y="218" on="1"/>
        <pt x="168" y="135" on="0"/>
        <pt x="262" y="49" on="0"/>
        <pt x="327" y="49" on="1"/>
        <pt x="388" y="49" on="0"/>
        <pt x="434" y="90" on="1"/>
        <pt x="463" y="40" on="1"/>
        <pt x="404" y="-11" on="0"/>
        <pt x="323" y="-11" on="1"/>
        <pt x="279" y="-11" on="0"/>
        <pt x="201" y="18" on="0"/>
        <pt x="140" y="76" on="0"/>
        <pt x="98" y="161" on="0"/>
        <pt x="91" y="218" on="1"/>
        <pt x="33" y="218" on="1"/>
        <pt x="46" y="276" on="1"/>
        <pt x="86" y="276" on="1"/>
        <pt x="86" y="281" on="0"/>
        <pt x="85" y="292" on="0"/>
        <pt x="85" y="298" on="1"/>
        <pt x="85" y="327" on="0"/>
        <pt x="88" y="356" on="1"/>
        <pt x="33" y="356" on="1"/>
        <pt x="46" y="414" on="1"/>
        <pt x="97" y="414" on="1"/>
        <pt x="109" y="472" on="0"/>
        <pt x="158" y="554" on="0"/>
        <pt x="220" y="605" on="0"/>
        <pt x="293" y="628" on="0"/>
        <pt x="329" y="628" on="1"/>
        <pt x="411" y="628" on="0"/>
      </contour>
    </TTGlyph>
    <TTGlyph name="F" xMin="78" yMin="0" xMax="437" yMax="624">
      <contour>
        <pt x="78" y="624" on="1"/>
        <pt x="437" y="624" on="1"/>
        <pt x="437" y="563" on="1"/>
        <pt x="148" y="563" on="1"/>
        <pt x="148" y="367" on="1"/>
        <pt x="381" y="367" on="1"/>
        <pt x="381" y="306" on="1"/>
        <pt x="148" y="306" on="1"/>
        <pt x="148" y="0" on="1"/>
        <pt x="78" y="0" on="1"/>
      </contour>
    </TTGlyph>
    <TTGlyph name="G" xMin="36" yMin="-10" xMax="460" yMax="629">
      <contour>
        <pt x="458" y="525" on="1"/>
        <pt x="409" y="475" on="1"/>
        <pt x="403" y="479" on="0"/>
        <pt x="396" y="494" on="1"/>
        <pt x="381" y="527" on="0"/>
        <pt x="318" y="568" on="0"/>
        <pt x="276" y="568" on="1"/>
        <pt x="247" y="568" on="0"/>
        <pt x="186" y="544" on="0"/>
        <pt x="136" y="486" on="0"/>
        <pt x="105" y="391" on="0"/>
        <pt x="105" y="319" on="1"/>
        <pt x="105" y="254" on="0"/>
        <pt x="131" y="154" on="0"/>
        <pt x="177" y="87" on="0"/>
        <pt x="240" y="52" on="0"/>
        <pt x="277" y="52" on="1"/>
        <pt x="342" y="52" on="0"/>
        <pt x="395" y="90" on="1"/>
        <pt x="395" y="238" on="1"/>
        <pt x="282" y="238" on="1"/>
        <pt x="282" y="299" on="1"/>
        <pt x="460" y="299" on="1"/>
        <pt x="460" y="55" on="1"/>
        <pt x="371" y="-10" on="0"/>
        <pt x="277" y="-10" on="1"/>
        <pt x="221" y="-10" on="0"/>
        <pt x="132" y="35" on="0"/>
        <pt x="69" y="117" on="0"/>
        <pt x="36" y="233" on="0"/>
        <pt x="36" y="304" on="1"/>
        <pt x="36" y="402" on="0"/>
        <pt x="85" y="534" on="0"/>
        <pt x="163" y="603" on="0"/>
        <pt x="244" y="629" on="0"/>
        <pt x="277" y="629" on="1"/>
        <pt x="334" y="629" on="0"/>
        <pt x="432" y="572" on="0"/>
      </contour>
    </TTGlyph>
    <TTGlyph name="Gbreve" xMin="36" yMin="-10" xMax="460" yMax="790">
      <component glyphName="G" x="0" y="0" flags="0x204"/>
      <component glyphName="breve.cap" x="19" y="6" flags="0x4"/>
    </TTGlyph>
    <TTGlyph name="H" xMin="54" yMin="-1" xMax="448" yMax="623">
      <contour>
        <pt x="54" y="623" on="1"/>
        <pt x="132" y="623" on="1"/>
        <pt x="133" y="622" on="0"/>
        <pt x="133" y="620" on="1"/>
        <pt x="133" y="617" on="0"/>
        <pt x="128" y="607" on="0"/>
        <pt x="127" y="599" on="1"/>
        <pt x="127" y="356" on="1"/>
        <pt x="371" y="356" on="1"/>
        <pt x="371" y="623" on="1"/>
        <pt x="447" y="623" on="1"/>
        <pt x="448" y="622" on="0"/>
        <pt x="448" y="620" on="1"/>
        <pt x="448" y="616" on="0"/>
        <pt x="442" y="607" on="0"/>
        <pt x="441" y="601" on="1"/>
        <pt x="441" y="-1" on="1"/>
        <pt x="370" y="-1" on="1"/>
        <pt x="370" y="297" on="1"/>
        <pt x="127" y="297" on="1"/>
        <pt x="127" y="0" on="1"/>
        <pt x="54" y="0" on="1"/>
      </contour>
    </TTGlyph>
    <TTGlyph name="I" xMin="81" yMin="-1" xMax="403" yMax="623">
      <contour>
        <pt x="88" y="623" on="1"/>
        <pt x="397" y="623" on="1"/>
        <pt x="397" y="564" on="1"/>
        <pt x="274" y="564" on="1"/>
        <pt x="274" y="57" on="1"/>
        <pt x="403" y="57" on="1"/>
        <pt x="403" y="-1" on="1"/>
        <pt x="81" y="-1" on="1"/>
        <pt x="81" y="58" on="1"/>
        <pt x="204" y="58" on="1"/>
        <pt x="204" y="564" on="1"/>
        <pt x="88" y="564" on="1"/>
      </contour>
    </TTGlyph>
    <TTGlyph name="Iacute" xMin="81" yMin="-1" xMax="403" yMax="791">
      <component glyphName="I" x="0" y="0" flags="0x204"/>
      <component glyphName="acute.cap" x="0" y="0" flags="0x4"/>
    </TTGlyph>
    <TTGlyph name="Icircumflex" xMin="81" yMin="-1" xMax="403" yMax="791">
      <component glyphName="I" x="0" y="0" flags="0x204"/>
      <component glyphName="circumflex.cap" x="-12" y="0" flags="0x4"/>
    </TTGlyph>
    <TTGlyph name="Idieresis" xMin="81" yMin="-1" xMax="403" yMax="789">
      <component glyphName="I" x="0" y="0" flags="0x204"/>
      <component glyphName="dieresis.cap" x="3" y="0" flags="0x4"/>
    </TTGlyph>
    <TTGlyph name="Idotaccent" xMin="81" yMin="-1" xMax="403" yMax="791">
      <component glyphName="I" x="0" y="0" flags="0x204"/>
      <component glyphName="dotaccent.cap" x="0" y="0" flags="0x4"/>
    </TTGlyph>
    <TTGlyph name="Igrave" xMin="81" yMin="-1" xMax="403" yMax="791">
      <component glyphName="I" x="0" y="0" flags="0x204"/>
      <component glyphName="grave.cap" x="-24" y="0" flags="0x4"/>
    </TTGlyph>
    <TTGlyph name="J" xMin="49" yMin="-11" xMax="457" yMax="623">
      <contour>
        <pt x="172" y="623" on="1"/>
        <pt x="457" y="623" on="1"/>
        <pt x="457" y="564" on="1"/>
        <pt x="361" y="564" on="1"/>
        <pt x="361" y="209" on="1"/>
        <pt x="361" y="148" on="0"/>
        <pt x="338" y="66" on="0"/>
        <pt x="288" y="12" on="0"/>
        <pt x="230" y="-11" on="0"/>
        <pt x="196" y="-11" on="1"/>
        <pt x="107" y="-11" on="0"/>
        <pt x="49" y="58" on="1"/>
        <pt x="96" y="115" on="1"/>
        <pt x="99" y="112" on="0"/>
        <pt x="100" y="99" on="0"/>
        <pt x="103" y="95" on="1"/>
        <pt x="115" y="83" on="1"/>
        <pt x="119" y="78" on="0"/>
        <pt x="137" y="67" on="0"/>
        <pt x="160" y="58" on="0"/>
        <pt x="184" y="51" on="0"/>
        <pt x="196" y="51" on="1"/>
        <pt x="246" y="51" on="0"/>
        <pt x="292" y="121" on="0"/>
        <pt x="292" y="208" on="1"/>
        <pt x="292" y="564" on="1"/>
        <pt x="172" y="564" on="1"/>
      </contour>
    </TTGlyph>
    <TTGlyph name="K" xMin="42" yMin="-4" xMax="471" yMax="628">
      <contour>
        <pt x="42" y="624" on="1"/>
        <pt x="126" y="624" on="1"/>
        <pt x="126" y="618" on="0"/>
        <pt x="117" y="605" on="0"/>
        <pt x="117" y="598" on="1"/>
        <pt x="117" y="336" on="1"/>
        <pt x="377" y="628" on="1"/>
        <pt x="399" y="623" on="0"/>
        <pt x="429" y="623" on="1"/>
        <pt x="455" y="623" on="1"/>
        <pt x="219" y="354" on="1"/>
        <pt x="471" y="0" on="1"/>
        <pt x="381" y="-4" on="1"/>
        <pt x="166" y="312" on="1"/>
        <pt x="117" y="258" on="1"/>
        <pt x="117" y="0" on="1"/>
        <pt x="42" y="0" on="1"/>
      </contour>
    </TTGlyph>
    <TTGlyph name="L" xMin="66" yMin="0" xMax="439" yMax="623">
      <contour>
        <pt x="66" y="623" on="1"/>
        <pt x="148" y="623" on="1"/>
        <pt x="148" y="616" on="0"/>
        <pt x="139" y="598" on="0"/>
        <pt x="139" y="589" on="1"/>
        <pt x="139" y="61" on="1"/>
        <pt x="439" y="61" on="1"/>
        <pt x="439" y="0" on="1"/>
        <pt x="66" y="0" on="1"/>
      </contour>
    </TTGlyph>
    <TTGlyph name="Lacute" xMin="66" yMin="0" xMax="439" yMax="791">
      <component glyphName="L" x="0" y="0" flags="0x204"/>
      <component glyphName="acute.cap" x="-17" y="0" flags="0x4"/>
    </TTGlyph>
    <TTGlyph name="Lcaron" xMin="66" yMin="0" xMax="439" yMax="628">
      <component glyphName="L" x="0" y="0" flags="0x204"/>
      <component glyphName="Apostrophe" x="115" y="0" flags="0x4"/>
    </TTGlyph>
    <TTGlyph name="Lslash" xMin="20" yMin="-1" xMax="446" yMax="623">
      <contour>
        <pt x="73" y="623" on="1"/>
        <pt x="154" y="623" on="1"/>
        <pt x="156" y="623" on="0"/>
        <pt x="156" y="621" on="1"/>
        <pt x="156" y="617" on="0"/>
        <pt x="148" y="600" on="0"/>
        <pt x="146" y="589" on="1"/>
        <pt x="146" y="328" on="1"/>
        <pt x="312" y="382" on="1"/>
        <pt x="320" y="385" on="0"/>
        <pt x="333" y="390" on="0"/>
        <pt x="337" y="392" on="1"/>
        <pt x="337" y="328" on="1"/>
        <pt x="146" y="267" on="1"/>
        <pt x="146" y="60" on="1"/>
        <pt x="446" y="60" on="1"/>
        <pt x="446" y="-1" on="1"/>
        <pt x="73" y="-1" on="1"/>
        <pt x="73" y="243" on="1"/>
        <pt x="20" y="226" on="1"/>
        <pt x="20" y="287" on="1"/>
        <pt x="73" y="305" on="1"/>
      </contour>
    </TTGlyph>
    <TTGlyph name="M" xMin="41" yMin="0" xMax="460" yMax="624">
      <contour>
        <pt x="41" y="623" on="1"/>
        <pt x="96" y="623" on="1"/>
        <pt x="250" y="318" on="1"/>
        <pt x="407" y="624" on="1"/>
        <pt x="460" y="624" on="1"/>
        <pt x="460" y="0" on="1"/>
        <pt x="394" y="0" on="1"/>
        <pt x="394" y="470" on="1"/>
        <pt x="259" y="219" on="1"/>
        <pt x="232" y="219" on="1"/>
        <pt x="106" y="467" on="1"/>
        <pt x="106" y="0" on="1"/>
        <pt x="41" y="0" on="1"/>
      </contour>
    </TTGlyph>
    <TTGlyph name="N" xMin="50" yMin="0" xMax="454" yMax="624">
      <contour>
        <pt x="50" y="0" on="1"/>
        <pt x="50" y="623" on="1"/>
        <pt x="118" y="623" on="1"/>
        <pt x="380" y="161" on="1"/>
        <pt x="380" y="624" on="1"/>
        <pt x="454" y="624" on="1"/>
        <pt x="454" y="618" on="0"/>
        <pt x="447" y="604" on="0"/>
        <pt x="447" y="597" on="1"/>
        <pt x="447" y="0" on="1"/>
        <pt x="392" y="0" on="1"/>
        <pt x="117" y="490" on="1"/>
        <pt x="117" y="0" on="1"/>
      </contour>
    </TTGlyph>
    <TTGlyph name="Nacute" xMin="50" yMin="0" xMax="454" yMax="791">
      <component glyphName="N" x="0" y="0" flags="0x204"/>
      <component glyphName="acute.cap" x="-17" y="0" flags="0x4"/>
    </TTGlyph>
    <TTGlyph name="Ncaron" xMin="50" yMin="0" xMax="454" yMax="791">
      <component glyphName="N" x="0" y="0" flags="0x204"/>
      <component glyphName="caron.cap" x="19" y="0" flags="0x4"/>
    </TTGlyph>
    <TTGlyph name="Ntilde" xMin="50" yMin="0" xMax="454" yMax="802">
      <component glyphName="N" x="0" y="0" flags="0x204"/>
      <component glyphName="tilde.cap" x="5" y="0" flags="0x4"/>
    </TTGlyph>
    <TTGlyph name="O" xMin="29" yMin="-10" xMax="471" yMax="630">
      <contour>
        <pt x="254" y="-10" on="1"/>
        <pt x="203" y="-10" on="0"/>
        <pt x="120" y="37" on="0"/>
        <pt x="61" y="122" on="0"/>
        <pt x="29" y="241" on="0"/>
        <pt x="29" y="313" on="1"/>
        <pt x="29" y="385" on="0"/>
        <pt x="62" y="503" on="0"/>
        <pt x="122" y="585" on="0"/>
        <pt x="206" y="630" on="0"/>
        <pt x="256" y="630" on="1"/>
        <pt x="300" y="630" on="0"/>
        <pt x="376" y="592" on="0"/>
        <pt x="439" y="515" on="0"/>
        <pt x="471" y="395" on="0"/>
        <pt x="471" y="312" on="1"/>
        <pt x="471" y="222" on="0"/>
        <pt x="433" y="99" on="0"/>
        <pt x="371" y="23" on="0"/>
        <pt x="294" y="-10" on="0"/>
      </contour>
      <contour>
        <pt x="150" y="115" on="1"/>
        <pt x="197" y="59" on="0"/>
        <pt x="254" y="59" on="1"/>
        <pt x="281" y="59" on="0"/>
        <pt x="333" y="82" on="0"/>
        <pt x="376" y="140" on="0"/>
        <pt x="401" y="238" on="0"/>
        <pt x="401" y="314" on="1"/>
        <pt x="401" y="388" on="0"/>
        <pt x="373" y="483" on="0"/>
        <pt x="330" y="539" on="0"/>
        <pt x="283" y="564" on="0"/>
        <pt x="256" y="564" on="1"/>
        <pt x="225" y="565" on="0"/>
        <pt x="173" y="541" on="0"/>
        <pt x="127" y="487" on="0"/>
        <pt x="98" y="393" on="0"/>
        <pt x="98" y="319" on="1"/>
        <pt x="98" y="250" on="0"/>
        <pt x="127" y="144" on="0"/>
      </contour>
    </TTGlyph>
    <TTGlyph name="OE" xMin="9" yMin="-7" xMax="484" yMax="632">
      <contour>
        <pt x="253" y="595" on="1"/>
        <pt x="253" y="624" on="1"/>
        <pt x="484" y="624" on="1"/>
        <pt x="484" y="562" on="1"/>
        <pt x="315" y="562" on="1"/>
        <pt x="315" y="357" on="1"/>
        <pt x="458" y="357" on="1"/>
        <pt x="458" y="293" on="1"/>
        <pt x="315" y="293" on="1"/>
        <pt x="315" y="62" on="1"/>
        <pt x="482" y="62" on="1"/>
        <pt x="482" y="0" on="1"/>
        <pt x="252" y="0" on="1"/>
        <pt x="252" y="31" on="1"/>
        <pt x="235" y="11" on="0"/>
        <pt x="195" y="-7" on="0"/>
        <pt x="172" y="-7" on="1"/>
        <pt x="97" y="-7" on="0"/>
        <pt x="9" y="148" on="0"/>
        <pt x="9" y="312" on="1"/>
        <pt x="9" y="471" on="0"/>
        <pt x="95" y="632" on="0"/>
        <pt x="173" y="632" on="1"/>
        <pt x="194" y="632" on="0"/>
        <pt x="235" y="615" on="0"/>
      </contour>
      <contour>
        <pt x="171" y="574" on="1"/>
        <pt x="151" y="574" on="0"/>
        <pt x="117" y="549" on="0"/>
        <pt x="88" y="489" on="0"/>
        <pt x="73" y="389" on="0"/>
        <pt x="73" y="313" on="1"/>
        <pt x="73" y="190" on="0"/>
        <pt x="128" y="54" on="0"/>
        <pt x="179" y="54" on="1"/>
        <pt x="205" y="54" on="0"/>
        <pt x="245" y="96" on="0"/>
        <pt x="252" y="129" on="1"/>
        <pt x="252" y="485" on="1"/>
        <pt x="246" y="502" on="0"/>
        <pt x="231" y="534" on="0"/>
        <pt x="211" y="559" on="0"/>
        <pt x="186" y="574" on="0"/>
      </contour>
    </TTGlyph>
    <TTGlyph name="Oacute" xMin="29" yMin="-10" xMax="471" yMax="791">
      <component glyphName="O" x="0" y="0" flags="0x204"/>
      <component glyphName="acute.cap" x="0" y="0" flags="0x4"/>
    </TTGlyph>
    <TTGlyph name="Ocircumflex" xMin="29" yMin="-10" xMax="471" yMax="791">
      <component glyphName="O" x="0" y="0" flags="0x204"/>
      <component glyphName="circumflex.cap" x="0" y="0" flags="0x4"/>
    </TTGlyph>
    <TTGlyph name="Odieresis" xMin="29" yMin="-10" xMax="471" yMax="789">
      <component glyphName="O" x="0" y="0" flags="0x204"/>
      <component glyphName="dieresis.cap" x="6" y="0" flags="0x4"/>
    </TTGlyph>
    <TTGlyph name="Ograve" xMin="29" yMin="-10" xMax="471" yMax="791">
      <component glyphName="O" x="0" y="0" flags="0x204"/>
      <component glyphName="grave.cap" x="-24" y="0" flags="0x4"/>
    </TTGlyph>
    <TTGlyph name="Ohungarumlaut" xMin="29" yMin="-10" xMax="471" yMax="810">
      <component glyphName="O" x="0" y="0" flags="0x204"/>
      <component glyphName="hungarumlaut.cap" x="0" y="0" flags="0x4"/>
    </TTGlyph>
    <TTGlyph name="Oslash" xMin="29" yMin="-63" xMax="471" yMax="677">
      <contour>
        <pt x="150" y="513" on="1"/>
        <pt x="127" y="487" on="0"/>
        <pt x="98" y="388" on="0"/>
        <pt x="98" y="322" on="1"/>
        <pt x="98" y="212" on="0"/>
        <pt x="132" y="145" on="1"/>
        <pt x="336" y="528" on="1"/>
        <pt x="298" y="564" on="0"/>
        <pt x="252" y="564" on="1"/>
        <pt x="226" y="564" on="0"/>
        <pt x="174" y="539" on="0"/>
      </contour>
      <contour>
        <pt x="413" y="545" on="1"/>
        <pt x="471" y="466" on="0"/>
        <pt x="471" y="310" on="1"/>
        <pt x="471" y="218" on="0"/>
        <pt x="433" y="96" on="0"/>
        <pt x="371" y="21" on="0"/>
        <pt x="293" y="-10" on="0"/>
        <pt x="254" y="-10" on="1"/>
        <pt x="225" y="-10" on="0"/>
        <pt x="166" y="9" on="0"/>
        <pt x="138" y="30" on="1"/>
        <pt x="88" y="-63" on="1"/>
        <pt x="36" y="-36" on="1"/>
        <pt x="95" y="74" on="1"/>
        <pt x="29" y="159" on="0"/>
        <pt x="29" y="313" on="1"/>
        <pt x="29" y="384" on="0"/>
        <pt x="61" y="501" on="0"/>
        <pt x="120" y="584" on="0"/>
        <pt x="203" y="630" on="0"/>
        <pt x="254" y="630" on="1"/>
        <pt x="284" y="630" on="0"/>
        <pt x="343" y="610" on="0"/>
        <pt x="369" y="590" on="1"/>
        <pt x="415" y="677" on="1"/>
        <pt x="469" y="648" on="1"/>
      </contour>
      <contour>
        <pt x="374" y="472" on="1"/>
        <pt x="171" y="92" on="1"/>
        <pt x="208" y="59" on="0"/>
        <pt x="248" y="59" on="1"/>
        <pt x="323" y="59" on="0"/>
        <pt x="401" y="184" on="0"/>
        <pt x="401" y="314" on="1"/>
        <pt x="401" y="413" on="0"/>
      </contour>
    </TTGlyph>
    <TTGlyph name="Otilde" xMin="29" yMin="-10" xMax="471" yMax="802">
      <component glyphName="O" x="0" y="0" flags="0x204"/>
      <component glyphName="tilde.cap" x="5" y="0" flags="0x4"/>
    </TTGlyph>
    <TTGlyph name="P" xMin="59" yMin="0" xMax="456" yMax="623">
      <contour>
        <pt x="59" y="623" on="1"/>
        <pt x="259" y="623" on="1"/>
        <pt x="311" y="623" on="0"/>
        <pt x="384" y="596" on="0"/>
        <pt x="431" y="547" on="0"/>
        <pt x="454" y="483" on="0"/>
        <pt x="456" y="447" on="1"/>
        <pt x="454" y="411" on="0"/>
        <pt x="431" y="348" on="0"/>
        <pt x="386" y="302" on="0"/>
        <pt x="315" y="275" on="0"/>
        <pt x="264" y="275" on="1"/>
        <pt x="131" y="275" on="1"/>
        <pt x="131" y="0" on="1"/>
        <pt x="59" y="0" on="1"/>
      </contour>
      <contour>
        <pt x="131" y="557" on="1"/>
        <pt x="131" y="337" on="1"/>
        <pt x="256" y="337" on="1"/>
        <pt x="324" y="337" on="0"/>
        <pt x="381" y="396" on="0"/>
        <pt x="384" y="445" on="1"/>
        <pt x="382" y="468" on="0"/>
        <pt x="367" y="509" on="0"/>
        <pt x="337" y="539" on="0"/>
        <pt x="290" y="557" on="0"/>
        <pt x="257" y="557" on="1"/>
      </contour>
    </TTGlyph>
    <TTGlyph name="Q" xMin="29" yMin="-145" xMax="471" yMax="630">
      <contour>
        <pt x="149" y="514" on="1"/>
        <pt x="97" y="455" on="0"/>
        <pt x="97" y="323" on="1"/>
        <pt x="97" y="263" on="0"/>
        <pt x="118" y="165" on="0"/>
        <pt x="159" y="95" on="0"/>
        <pt x="220" y="55" on="0"/>
        <pt x="256" y="55" on="1"/>
        <pt x="281" y="55" on="0"/>
        <pt x="334" y="80" on="0"/>
        <pt x="378" y="137" on="0"/>
        <pt x="404" y="228" on="0"/>
        <pt x="404" y="294" on="1"/>
        <pt x="404" y="378" on="0"/>
        <pt x="376" y="484" on="0"/>
        <pt x="327" y="544" on="0"/>
        <pt x="275" y="567" on="0"/>
        <pt x="251" y="567" on="1"/>
        <pt x="221" y="567" on="0"/>
        <pt x="169" y="537" on="0"/>
      </contour>
      <contour>
        <pt x="471" y="311" on="1"/>
        <pt x="471" y="173" on="0"/>
        <pt x="378" y="13" on="0"/>
        <pt x="287" y="-7" on="1"/>
        <pt x="289" y="-40" on="0"/>
        <pt x="319" y="-82" on="0"/>
        <pt x="361" y="-82" on="1"/>
        <pt x="366" y="-82" on="0"/>
        <pt x="388" y="-80" on="0"/>
        <pt x="414" y="-79" on="0"/>
        <pt x="437" y="-77" on="0"/>
        <pt x="442" y="-77" on="1"/>
        <pt x="440" y="-145" on="1"/>
        <pt x="401" y="-145" on="1"/>
        <pt x="352" y="-145" on="0"/>
        <pt x="285" y="-135" on="0"/>
        <pt x="244" y="-99" on="0"/>
        <pt x="226" y="-46" on="0"/>
        <pt x="226" y="-7" on="1"/>
        <pt x="188" y="-2" on="0"/>
        <pt x="118" y="41" on="0"/>
        <pt x="62" y="119" on="0"/>
        <pt x="29" y="232" on="0"/>
        <pt x="29" y="308" on="1"/>
        <pt x="29" y="402" on="0"/>
        <pt x="72" y="526" on="0"/>
        <pt x="138" y="598" on="0"/>
        <pt x="216" y="630" on="0"/>
        <pt x="251" y="630" on="1"/>
        <pt x="294" y="630" on="0"/>
        <pt x="373" y="594" on="0"/>
        <pt x="438" y="515" on="0"/>
        <pt x="471" y="397" on="0"/>
      </contour>
    </TTGlyph>
    <TTGlyph name="R" xMin="56" yMin="0" xMax="464" yMax="623">
      <contour>
        <pt x="56" y="623" on="1"/>
        <pt x="240" y="623" on="1"/>
        <pt x="350" y="623" on="0"/>
        <pt x="447" y="525" on="0"/>
        <pt x="447" y="445" on="1"/>
        <pt x="447" y="418" on="0"/>
        <pt x="429" y="365" on="0"/>
        <pt x="396" y="319" on="0"/>
        <pt x="349" y="285" on="0"/>
        <pt x="320" y="278" on="1"/>
        <pt x="464" y="0" on="1"/>
        <pt x="386" y="0" on="1"/>
        <pt x="248" y="275" on="1"/>
        <pt x="127" y="275" on="1"/>
        <pt x="127" y="0" on="1"/>
        <pt x="56" y="0" on="1"/>
      </contour>
      <contour>
        <pt x="127" y="557" on="1"/>
        <pt x="127" y="337" on="1"/>
        <pt x="248" y="337" on="1"/>
        <pt x="315" y="337" on="0"/>
        <pt x="375" y="396" on="0"/>
        <pt x="375" y="445" on="1"/>
        <pt x="375" y="469" on="0"/>
        <pt x="359" y="509" on="0"/>
        <pt x="330" y="539" on="0"/>
        <pt x="282" y="557" on="0"/>
        <pt x="248" y="557" on="1"/>
      </contour>
    </TTGlyph>
    <TTGlyph name="Racute" xMin="56" yMin="0" xMax="464" yMax="791">
      <component glyphName="R" x="0" y="0" flags="0x204"/>
      <component glyphName="acute.cap" x="-17" y="0" flags="0x4"/>
    </TTGlyph>
    <TTGlyph name="Rcaron" xMin="56" yMin="0" xMax="464" yMax="791">
      <component glyphName="R" x="0" y="0" flags="0x204"/>
      <component glyphName="caron.cap" x="19" y="0" flags="0x4"/>
    </TTGlyph>
    <TTGlyph name="S" xMin="52" yMin="-10" xMax="455" yMax="627">
      <contour>
        <pt x="435" y="549" on="1"/>
        <pt x="391" y="489" on="1"/>
        <pt x="386" y="491" on="0"/>
        <pt x="385" y="504" on="0"/>
        <pt x="383" y="507" on="1"/>
        <pt x="364" y="535" on="0"/>
        <pt x="299" y="569" on="0"/>
        <pt x="251" y="569" on="1"/>
        <pt x="205" y="569" on="0"/>
        <pt x="144" y="515" on="0"/>
        <pt x="144" y="478" on="1"/>
        <pt x="144" y="456" on="0"/>
        <pt x="159" y="424" on="0"/>
        <pt x="190" y="394" on="0"/>
        <pt x="250" y="363" on="0"/>
        <pt x="298" y="344" on="1"/>
        <pt x="344" y="325" on="0"/>
        <pt x="404" y="288" on="0"/>
        <pt x="440" y="246" on="0"/>
        <pt x="455" y="199" on="0"/>
        <pt x="455" y="170" on="1"/>
        <pt x="455" y="138" on="0"/>
        <pt x="431" y="73" on="0"/>
        <pt x="380" y="22" on="0"/>
        <pt x="302" y="-10" on="0"/>
        <pt x="247" y="-10" on="1"/>
        <pt x="126" y="-10" on="0"/>
        <pt x="52" y="70" on="1"/>
        <pt x="93" y="142" on="1"/>
        <pt x="98" y="139" on="0"/>
        <pt x="98" y="125" on="0"/>
        <pt x="101" y="121" on="1"/>
        <pt x="124" y="92" on="0"/>
        <pt x="202" y="53" on="0"/>
        <pt x="257" y="53" on="1"/>
        <pt x="285" y="53" on="0"/>
        <pt x="332" y="72" on="0"/>
        <pt x="366" y="103" on="0"/>
        <pt x="386" y="146" on="0"/>
        <pt x="386" y="170" on="1"/>
        <pt x="386" y="189" on="0"/>
        <pt x="373" y="220" on="0"/>
        <pt x="343" y="247" on="0"/>
        <pt x="288" y="274" on="0"/>
        <pt x="243" y="292" on="1"/>
        <pt x="194" y="311" on="0"/>
        <pt x="129" y="350" on="0"/>
        <pt x="89" y="390" on="0"/>
        <pt x="72" y="436" on="0"/>
        <pt x="72" y="463" on="1"/>
        <pt x="72" y="497" on="0"/>
        <pt x="101" y="557" on="0"/>
        <pt x="152" y="602" on="0"/>
        <pt x="222" y="627" on="0"/>
        <pt x="262" y="627" on="1"/>
        <pt x="313" y="627" on="0"/>
        <pt x="403" y="586" on="0"/>
      </contour>
    </TTGlyph>
    <TTGlyph name="Sacute" xMin="52" yMin="-10" xMax="455" yMax="791">
      <component glyphName="S" x="0" y="0" flags="0x204"/>
      <component glyphName="acute.cap" x="-17" y="0" flags="0x4"/>
    </TTGlyph>
    <TTGlyph name="Scaron" xMin="52" yMin="-10" xMax="455" yMax="792">
      <component glyphName="S" x="0" y="0" flags="0x204"/>
      <component glyphName="caron.cap" x="24" y="1" flags="0x4"/>
    </TTGlyph>
    <TTGlyph name="Scedilla" xMin="52" yMin="-177" xMax="455" yMax="627">
      <contour>
        <pt x="295" y="-109" on="1"/>
        <pt x="295" y="-85" on="0"/>
        <pt x="248" y="-85" on="1"/>
        <pt x="218" y="-85" on="1"/>
        <pt x="228" y="-10" on="1"/>
        <pt x="119" y="-3" on="0"/>
        <pt x="52" y="70" on="1"/>
        <pt x="93" y="142" on="1"/>
        <pt x="98" y="139" on="0"/>
        <pt x="98" y="125" on="0"/>
        <pt x="101" y="121" on="1"/>
        <pt x="124" y="92" on="0"/>
        <pt x="202" y="53" on="0"/>
        <pt x="257" y="53" on="1"/>
        <pt x="285" y="53" on="0"/>
        <pt x="332" y="72" on="0"/>
        <pt x="366" y="103" on="0"/>
        <pt x="386" y="146" on="0"/>
        <pt x="386" y="170" on="1"/>
        <pt x="386" y="191" on="0"/>
        <pt x="375" y="220" on="0"/>
        <pt x="343" y="246" on="0"/>
        <pt x="288" y="274" on="0"/>
        <pt x="243" y="292" on="1"/>
        <pt x="194" y="311" on="0"/>
        <pt x="129" y="350" on="0"/>
        <pt x="89" y="390" on="0"/>
        <pt x="72" y="436" on="0"/>
        <pt x="72" y="463" on="1"/>
        <pt x="72" y="497" on="0"/>
        <pt x="101" y="557" on="0"/>
        <pt x="152" y="602" on="0"/>
        <pt x="222" y="627" on="0"/>
        <pt x="262" y="627" on="1"/>
        <pt x="313" y="627" on="0"/>
        <pt x="403" y="586" on="0"/>
        <pt x="435" y="549" on="1"/>
        <pt x="391" y="489" on="1"/>
        <pt x="386" y="491" on="0"/>
        <pt x="385" y="504" on="0"/>
        <pt x="383" y="507" on="1"/>
        <pt x="364" y="535" on="0"/>
        <pt x="299" y="569" on="0"/>
        <pt x="251" y="569" on="1"/>
        <pt x="205" y="569" on="0"/>
        <pt x="144" y="515" on="0"/>
        <pt x="144" y="478" on="1"/>
        <pt x="144" y="456" on="0"/>
        <pt x="158" y="423" on="0"/>
        <pt x="190" y="394" on="0"/>
        <pt x="250" y="363" on="0"/>
        <pt x="298" y="344" on="1"/>
        <pt x="344" y="325" on="0"/>
        <pt x="404" y="288" on="0"/>
        <pt x="440" y="246" on="0"/>
        <pt x="455" y="199" on="0"/>
        <pt x="455" y="170" on="1"/>
        <pt x="455" y="139" on="0"/>
        <pt x="434" y="78" on="0"/>
        <pt x="389" y="28" on="0"/>
        <pt x="320" y="-6" on="0"/>
        <pt x="272" y="-10" on="1"/>
        <pt x="268" y="-47" on="1"/>
        <pt x="284" y="-48" on="1"/>
        <pt x="352" y="-53" on="0"/>
        <pt x="352" y="-103" on="1"/>
        <pt x="352" y="-131" on="0"/>
        <pt x="295" y="-177" on="0"/>
        <pt x="236" y="-177" on="1"/>
        <pt x="177" y="-177" on="0"/>
        <pt x="125" y="-140" on="1"/>
        <pt x="150" y="-98" on="1"/>
        <pt x="193" y="-134" on="0"/>
        <pt x="249" y="-134" on="1"/>
        <pt x="275" y="-134" on="0"/>
        <pt x="295" y="-119" on="0"/>
      </contour>
    </TTGlyph>
    <TTGlyph name="T" xMin="31" yMin="0" xMax="463" yMax="624">
      <contour>
        <pt x="31" y="624" on="1"/>
        <pt x="463" y="624" on="1"/>
        <pt x="463" y="561" on="1"/>
        <pt x="279" y="561" on="1"/>
        <pt x="279" y="0" on="1"/>
        <pt x="208" y="0" on="1"/>
        <pt x="208" y="561" on="1"/>
        <pt x="31" y="561" on="1"/>
      </contour>
    </TTGlyph>
    <TTGlyph name="Tcaron" xMin="31" yMin="0" xMax="463" yMax="791">
      <component glyphName="T" x="0" y="0" flags="0x204"/>
      <component glyphName="caron.cap" x="19" y="0" flags="0x4"/>
    </TTGlyph>
    <TTGlyph name="Tcedilla" xMin="31" yMin="-177" xMax="463" yMax="624">
      <contour>
        <pt x="289" y="-109" on="1"/>
        <pt x="289" y="-85" on="0"/>
        <pt x="242" y="-85" on="1"/>
        <pt x="212" y="-85" on="1"/>
        <pt x="223" y="-1" on="1"/>
        <pt x="208" y="-1" on="1"/>
        <pt x="208" y="561" on="1"/>
        <pt x="31" y="561" on="1"/>
        <pt x="31" y="624" on="1"/>
        <pt x="463" y="624" on="1"/>
        <pt x="463" y="561" on="1"/>
        <pt x="279" y="561" on="1"/>
        <pt x="279" y="-1" on="1"/>
        <pt x="267" y="-1" on="1"/>
        <pt x="261" y="-47" on="1"/>
        <pt x="278" y="-48" on="1"/>
        <pt x="346" y="-53" on="0"/>
        <pt x="346" y="-103" on="1"/>
        <pt x="346" y="-131" on="0"/>
        <pt x="289" y="-177" on="0"/>
        <pt x="230" y="-177" on="1"/>
        <pt x="171" y="-177" on="0"/>
        <pt x="119" y="-140" on="1"/>
        <pt x="144" y="-98" on="1"/>
        <pt x="187" y="-134" on="0"/>
        <pt x="243" y="-134" on="1"/>
        <pt x="269" y="-134" on="0"/>
        <pt x="289" y="-119" on="0"/>
      </contour>
    </TTGlyph>
    <TTGlyph name="Thorn" xMin="59" yMin="0" xMax="456" yMax="623">
      <contour>
        <pt x="59" y="623" on="1"/>
        <pt x="137" y="623" on="1"/>
        <pt x="139" y="621" on="0"/>
        <pt x="139" y="620" on="1"/>
        <pt x="139" y="617" on="0"/>
        <pt x="131" y="604" on="0"/>
        <pt x="129" y="595" on="1"/>
        <pt x="129" y="506" on="1"/>
        <pt x="259" y="506" on="1"/>
        <pt x="311" y="506" on="0"/>
        <pt x="384" y="478" on="0"/>
        <pt x="431" y="430" on="0"/>
        <pt x="454" y="366" on="0"/>
        <pt x="456" y="330" on="1"/>
        <pt x="454" y="294" on="0"/>
        <pt x="431" y="231" on="0"/>
        <pt x="386" y="185" on="0"/>
        <pt x="315" y="158" on="0"/>
        <pt x="264" y="158" on="1"/>
        <pt x="129" y="158" on="1"/>
        <pt x="129" y="0" on="1"/>
        <pt x="59" y="0" on="1"/>
      </contour>
      <contour>
        <pt x="129" y="440" on="1"/>
        <pt x="129" y="219" on="1"/>
        <pt x="264" y="219" on="1"/>
        <pt x="296" y="219" on="0"/>
        <pt x="340" y="236" on="0"/>
        <pt x="369" y="265" on="0"/>
        <pt x="382" y="305" on="0"/>
        <pt x="384" y="328" on="1"/>
        <pt x="382" y="351" on="0"/>
        <pt x="367" y="392" on="0"/>
        <pt x="337" y="422" on="0"/>
        <pt x="290" y="440" on="0"/>
        <pt x="257" y="440" on="1"/>
      </contour>
    </TTGlyph>
    <TTGlyph name="U" xMin="50" yMin="-11" xMax="454" yMax="623">
      <contour>
        <pt x="50" y="623" on="1"/>
        <pt x="129" y="623" on="1"/>
        <pt x="130" y="623" on="0"/>
        <pt x="130" y="621" on="1"/>
        <pt x="130" y="617" on="0"/>
        <pt x="121" y="602" on="0"/>
        <pt x="119" y="591" on="1"/>
        <pt x="119" y="214" on="1"/>
        <pt x="119" y="162" on="0"/>
        <pt x="139" y="105" on="0"/>
        <pt x="175" y="68" on="0"/>
        <pt x="224" y="50" on="0"/>
        <pt x="252" y="48" on="1"/>
        <pt x="280" y="50" on="0"/>
        <pt x="329" y="66" on="0"/>
        <pt x="366" y="105" on="0"/>
        <pt x="387" y="163" on="0"/>
        <pt x="387" y="217" on="1"/>
        <pt x="387" y="623" on="1"/>
        <pt x="454" y="623" on="1"/>
        <pt x="454" y="218" on="1"/>
        <pt x="454" y="157" on="0"/>
        <pt x="427" y="73" on="0"/>
        <pt x="371" y="17" on="0"/>
        <pt x="297" y="-11" on="0"/>
        <pt x="251" y="-11" on="1"/>
        <pt x="206" y="-11" on="0"/>
        <pt x="132" y="17" on="0"/>
        <pt x="79" y="71" on="0"/>
        <pt x="50" y="149" on="0"/>
        <pt x="50" y="215" on="1"/>
      </contour>
    </TTGlyph>
    <TTGlyph name="Uacute" xMin="50" yMin="-11" xMax="454" yMax="791">
      <component glyphName="U" x="0" y="0" flags="0x204"/>
      <component glyphName="acute.cap" x="0" y="0" flags="0x4"/>
    </TTGlyph>
    <TTGlyph name="Ucircumflex" xMin="50" yMin="-11" xMax="454" yMax="791">
      <component glyphName="U" x="0" y="0" flags="0x204"/>
      <component glyphName="circumflex.cap" x="0" y="0" flags="0x4"/>
    </TTGlyph>
    <TTGlyph name="Udieresis" xMin="50" yMin="-11" xMax="454" yMax="789">
      <component glyphName="U" x="0" y="0" flags="0x204"/>
      <component glyphName="dieresis.cap" x="14" y="0" flags="0x4"/>
    </TTGlyph>
    <TTGlyph name="Ugrave" xMin="50" yMin="-11" xMax="454" yMax="791">
      <component glyphName="U" x="0" y="0" flags="0x204"/>
      <component glyphName="grave.cap" x="-25" y="0" flags="0x4"/>
    </TTGlyph>
    <TTGlyph name="Uhungarumlaut" xMin="50" yMin="-11" xMax="457" yMax="810">
      <component glyphName="U" x="0" y="0" flags="0x204"/>
      <component glyphName="hungarumlaut.cap" x="0" y="0" flags="0x4"/>
    </TTGlyph>
    <TTGlyph name="Uring" xMin="50" yMin="-11" xMax="454" yMax="795">
      <component glyphName="U" x="0" y="0" flags="0x204"/>
      <component glyphName="ring.cap" x="0" y="0" flags="0x4"/>
    </TTGlyph>
    <TTGlyph name="V" xMin="25" yMin="-4" xMax="478" yMax="624">
      <contour>
        <pt x="25" y="624" on="1"/>
        <pt x="98" y="624" on="1"/>
        <pt x="258" y="145" on="1"/>
        <pt x="409" y="623" on="1"/>
        <pt x="478" y="623" on="1"/>
        <pt x="269" y="-4" on="1"/>
        <pt x="237" y="-4" on="1"/>
      </contour>
    </TTGlyph>
    <TTGlyph name="W" xMin="17" yMin="-4" xMax="488" yMax="623">
      <contour>
        <pt x="17" y="623" on="1"/>
        <pt x="82" y="623" on="1"/>
        <pt x="149" y="202" on="1"/>
        <pt x="249" y="577" on="1"/>
        <pt x="271" y="577" on="1"/>
        <pt x="372" y="200" on="1"/>
        <pt x="429" y="623" on="1"/>
        <pt x="488" y="623" on="1"/>
        <pt x="389" y="-4" on="1"/>
        <pt x="362" y="-4" on="1"/>
        <pt x="255" y="407" on="1"/>
        <pt x="146" y="-4" on="1"/>
        <pt x="117" y="-4" on="1"/>
      </contour>
    </TTGlyph>
    <TTGlyph name="X" xMin="41" yMin="0" xMax="468" yMax="624">
      <contour>
        <pt x="379" y="624" on="1"/>
        <pt x="449" y="624" on="1"/>
        <pt x="291" y="319" on="1"/>
        <pt x="468" y="0" on="1"/>
        <pt x="389" y="0" on="1"/>
        <pt x="251" y="247" on="1"/>
        <pt x="117" y="0" on="1"/>
        <pt x="41" y="0" on="1"/>
        <pt x="211" y="318" on="1"/>
        <pt x="44" y="624" on="1"/>
        <pt x="119" y="624" on="1"/>
        <pt x="250" y="387" on="1"/>
      </contour>
    </TTGlyph>
    <TTGlyph name="Y" xMin="28" yMin="0" xMax="473" yMax="623">
      <contour>
        <pt x="28" y="623" on="1"/>
        <pt x="108" y="623" on="1"/>
        <pt x="261" y="321" on="1"/>
        <pt x="399" y="623" on="1"/>
        <pt x="473" y="623" on="1"/>
        <pt x="296" y="246" on="1"/>
        <pt x="296" y="0" on="1"/>
        <pt x="220" y="0" on="1"/>
        <pt x="220" y="246" on="1"/>
      </contour>
    </TTGlyph>
    <TTGlyph name="Yacute" xMin="28" yMin="0" xMax="473" yMax="791">
      <component glyphName="Y" x="0" y="0" flags="0x204"/>
      <component glyphName="acute.cap" x="0" y="0" flags="0x4"/>
    </TTGlyph>
    <TTGlyph name="Ydieresis" xMin="28" yMin="0" xMax="473" yMax="789">
      <component glyphName="Y" x="0" y="0" flags="0x204"/>
      <component glyphName="dieresis.cap" x="7" y="0" flags="0x4"/>
    </TTGlyph>
    <TTGlyph name="Z" xMin="50" yMin="0" xMax="463" yMax="623">
      <contour>
        <pt x="62" y="623" on="1"/>
        <pt x="447" y="623" on="1"/>
        <pt x="447" y="574" on="1"/>
        <pt x="138" y="62" on="1"/>
        <pt x="432" y="62" on="1"/>
        <pt x="439" y="62" on="0"/>
        <pt x="456" y="68" on="0"/>
        <pt x="463" y="68" on="1"/>
        <pt x="463" y="0" on="1"/>
        <pt x="50" y="0" on="1"/>
        <pt x="50" y="49" on="1"/>
        <pt x="364" y="560" on="1"/>
        <pt x="62" y="560" on="1"/>
      </contour>
    </TTGlyph>
    <TTGlyph name="Zacute" xMin="50" yMin="0" xMax="463" yMax="791">
      <component glyphName="Z" x="0" y="0" flags="0x204"/>
      <component glyphName="acute.cap" x="-17" y="0" flags="0x4"/>
    </TTGlyph>
    <TTGlyph name="Zcaron" xMin="50" yMin="0" xMax="463" yMax="791">
      <component glyphName="Z" x="0" y="0" flags="0x204"/>
      <component glyphName="caron.cap" x="18" y="0" flags="0x4"/>
    </TTGlyph>
    <TTGlyph name="Zdotaccent" xMin="50" yMin="0" xMax="463" yMax="784">
      <component glyphName="Z" x="0" y="0" flags="0x204"/>
      <component glyphName="dotaccent.cap" x="15" y="-7" flags="0x4"/>
    </TTGlyph>
    <TTGlyph name="a" xMin="49" yMin="-11" xMax="435" yMax="467">
      <contour>
        <pt x="91" y="403" on="1"/>
        <pt x="152" y="467" on="0"/>
        <pt x="254" y="467" on="1"/>
        <pt x="338" y="467" on="0"/>
        <pt x="435" y="382" on="0"/>
        <pt x="435" y="283" on="1"/>
        <pt x="435" y="0" on="1"/>
        <pt x="367" y="0" on="1"/>
        <pt x="367" y="50" on="1"/>
        <pt x="294" y="-11" on="0"/>
        <pt x="203" y="-11" on="1"/>
        <pt x="167" y="-11" on="0"/>
        <pt x="110" y="11" on="0"/>
        <pt x="70" y="47" on="0"/>
        <pt x="49" y="93" on="0"/>
        <pt x="49" y="116" on="1"/>
        <pt x="49" y="185" on="0"/>
        <pt x="168" y="265" on="0"/>
        <pt x="280" y="269" on="1"/>
        <pt x="366" y="269" on="1"/>
        <pt x="366" y="286" on="1"/>
        <pt x="366" y="354" on="0"/>
        <pt x="309" y="408" on="0"/>
        <pt x="249" y="408" on="1"/>
        <pt x="175" y="408" on="0"/>
        <pt x="126" y="357" on="1"/>
      </contour>
      <contour>
        <pt x="369" y="214" on="1"/>
        <pt x="352" y="214" on="1"/>
        <pt x="338" y="214" on="0"/>
        <pt x="313" y="215" on="0"/>
        <pt x="301" y="215" on="1"/>
        <pt x="246" y="215" on="0"/>
        <pt x="176" y="200" on="0"/>
        <pt x="136" y="174" on="0"/>
        <pt x="121" y="141" on="0"/>
        <pt x="121" y="122" on="1"/>
        <pt x="121" y="90" on="0"/>
        <pt x="177" y="44" on="0"/>
        <pt x="218" y="44" on="1"/>
        <pt x="248" y="44" on="0"/>
        <pt x="296" y="63" on="0"/>
        <pt x="332" y="90" on="0"/>
        <pt x="354" y="119" on="0"/>
        <pt x="359" y="130" on="1"/>
        <pt x="369" y="150" on="0"/>
        <pt x="369" y="184" on="1"/>
      </contour>
    </TTGlyph>
    <TTGlyph name="aacute" xMin="49" yMin="-11" xMax="435" yMax="699">
      <component glyphName="a" x="0" y="0" flags="0x204"/>
      <component glyphName="acute" x="0" y="0" flags="0x4"/>
    </TTGlyph>
    <TTGlyph name="abreve" xMin="49" yMin="-11" xMax="435" yMax="646">
      <component glyphName="a" x="0" y="0" flags="0x204"/>
      <component glyphName="breve" x="9" y="0" flags="0x4"/>
    </TTGlyph>
    <TTGlyph name="acircumflex" xMin="49" yMin="-11" xMax="435" yMax="685">
      <component glyphName="a" x="0" y="0" flags="0x204"/>
      <component glyphName="circumflex" x="7" y="0" flags="0x4"/>
    </TTGlyph>
    <TTGlyph name="acute" xMin="204" yMin="522" xMax="355" yMax="699">
      <contour>
        <pt x="292" y="699" on="1"/>
        <pt x="355" y="657" on="1"/>
        <pt x="254" y="522" on="1"/>
        <pt x="204" y="552" on="1"/>
      </contour>
    </TTGlyph>
    <TTGlyph name="acute.cap" xMin="173" yMin="660" xMax="365" yMax="791">
      <contour>
        <pt x="325" y="791" on="1"/>
        <pt x="365" y="721" on="1"/>
        <pt x="196" y="660" on="1"/>
        <pt x="173" y="702" on="1"/>
      </contour>
    </TTGlyph>
    <TTGlyph name="adieresis" xMin="49" yMin="-11" xMax="435" yMax="665">
      <component glyphName="a" x="0" y="0" flags="0x204"/>
      <component glyphName="dieresis" x="12" y="0" flags="0x4"/>
    </TTGlyph>
    <TTGlyph name="ae" xMin="10" yMin="-11" xMax="494" yMax="467">
      <contour>
        <pt x="31" y="412" on="1"/>
        <pt x="74" y="467" on="0"/>
        <pt x="147" y="467" on="1"/>
        <pt x="183" y="467" on="0"/>
        <pt x="242" y="434" on="0"/>
        <pt x="258" y="405" on="1"/>
        <pt x="275" y="434" on="0"/>
        <pt x="332" y="467" on="0"/>
        <pt x="362" y="467" on="1"/>
        <pt x="430" y="467" on="0"/>
        <pt x="490" y="361" on="0"/>
        <pt x="490" y="268" on="1"/>
        <pt x="490" y="230" on="1"/>
        <pt x="282" y="223" on="1"/>
        <pt x="282" y="175" on="1"/>
        <pt x="282" y="117" on="0"/>
        <pt x="338" y="47" on="0"/>
        <pt x="386" y="47" on="1"/>
        <pt x="432" y="47" on="0"/>
        <pt x="459" y="84" on="1"/>
        <pt x="494" y="42" on="1"/>
        <pt x="450" y="-11" on="0"/>
        <pt x="380" y="-11" on="1"/>
        <pt x="342" y="-11" on="0"/>
        <pt x="275" y="26" on="0"/>
        <pt x="255" y="58" on="1"/>
        <pt x="238" y="26" on="0"/>
        <pt x="178" y="-11" on="0"/>
        <pt x="142" y="-11" on="1"/>
        <pt x="113" y="-11" on="0"/>
        <pt x="64" y="13" on="0"/>
        <pt x="29" y="51" on="0"/>
        <pt x="10" y="99" on="0"/>
        <pt x="10" y="123" on="1"/>
        <pt x="10" y="192" on="0"/>
        <pt x="112" y="275" on="0"/>
        <pt x="198" y="278" on="1"/>
        <pt x="221" y="279" on="1"/>
        <pt x="221" y="305" on="1"/>
        <pt x="221" y="354" on="0"/>
        <pt x="177" y="411" on="0"/>
        <pt x="142" y="411" on="1"/>
        <pt x="97" y="411" on="0"/>
        <pt x="66" y="368" on="1"/>
      </contour>
      <contour>
        <pt x="221" y="219" on="1"/>
        <pt x="199" y="218" on="1"/>
        <pt x="162" y="216" on="0"/>
        <pt x="114" y="201" on="0"/>
        <pt x="85" y="176" on="0"/>
        <pt x="74" y="142" on="0"/>
        <pt x="74" y="122" on="1"/>
        <pt x="74" y="108" on="0"/>
        <pt x="86" y="83" on="0"/>
        <pt x="106" y="62" on="0"/>
        <pt x="131" y="50" on="0"/>
        <pt x="144" y="50" on="1"/>
        <pt x="187" y="50" on="0"/>
        <pt x="222" y="103" on="0"/>
        <pt x="222" y="158" on="1"/>
        <pt x="222" y="164" on="0"/>
        <pt x="221" y="175" on="0"/>
        <pt x="221" y="181" on="1"/>
      </contour>
      <contour>
        <pt x="282" y="279" on="1"/>
        <pt x="432" y="284" on="1"/>
        <pt x="432" y="305" on="1"/>
        <pt x="432" y="354" on="0"/>
        <pt x="395" y="411" on="0"/>
        <pt x="362" y="411" on="1"/>
        <pt x="326" y="411" on="0"/>
        <pt x="282" y="345" on="0"/>
        <pt x="282" y="296" on="1"/>
      </contour>
    </TTGlyph>
    <TTGlyph name="afii57929" xMin="196" yMin="454" xMax="309" yMax="671">
      <contour>
        <pt x="309" y="605" on="1"/>
        <pt x="309" y="540" on="0"/>
        <pt x="224" y="454" on="1"/>
        <pt x="196" y="478" on="1"/>
        <pt x="219" y="499" on="0"/>
        <pt x="248" y="548" on="0"/>
        <pt x="248" y="563" on="1"/>
        <pt x="248" y="570" on="0"/>
        <pt x="235" y="584" on="0"/>
        <pt x="220" y="597" on="0"/>
        <pt x="207" y="613" on="0"/>
        <pt x="207" y="624" on="1"/>
        <pt x="207" y="644" on="0"/>
        <pt x="234" y="671" on="0"/>
        <pt x="255" y="671" on="1"/>
        <pt x="276" y="671" on="0"/>
        <pt x="309" y="634" on="0"/>
      </contour>
    </TTGlyph>
    <TTGlyph name="agrave" xMin="49" yMin="-11" xMax="435" yMax="699">
      <component glyphName="a" x="0" y="0" flags="0x204"/>
      <component glyphName="uni02CB" x="0" y="0" flags="0x4"/>
    </TTGlyph>
    <TTGlyph name="ampersand" xMin="36" yMin="-12" xMax="481" yMax="629">
      <contour>
        <pt x="413" y="262" on="1"/>
        <pt x="412" y="274" on="1"/>
        <pt x="412" y="280" on="0"/>
        <pt x="416" y="284" on="1"/>
        <pt x="481" y="239" on="1"/>
        <pt x="447" y="179" on="0"/>
        <pt x="405" y="123" on="1"/>
        <pt x="475" y="32" on="1"/>
        <pt x="416" y="-12" on="1"/>
        <pt x="361" y="76" on="1"/>
        <pt x="330" y="37" on="0"/>
        <pt x="241" y="-10" on="0"/>
        <pt x="192" y="-10" on="1"/>
        <pt x="158" y="-10" on="0"/>
        <pt x="101" y="14" on="0"/>
        <pt x="59" y="55" on="0"/>
        <pt x="36" y="110" on="0"/>
        <pt x="36" y="141" on="1"/>
        <pt x="36" y="204" on="0"/>
        <pt x="105" y="311" on="0"/>
        <pt x="162" y="343" on="1"/>
        <pt x="91" y="429" on="0"/>
        <pt x="91" y="498" on="1"/>
        <pt x="91" y="526" on="0"/>
        <pt x="113" y="574" on="0"/>
        <pt x="150" y="609" on="0"/>
        <pt x="200" y="629" on="0"/>
        <pt x="228" y="629" on="1"/>
        <pt x="258" y="629" on="0"/>
        <pt x="308" y="607" on="0"/>
        <pt x="344" y="570" on="0"/>
        <pt x="363" y="523" on="0"/>
        <pt x="363" y="498" on="1"/>
        <pt x="363" y="473" on="0"/>
        <pt x="347" y="423" on="0"/>
        <pt x="318" y="378" on="0"/>
        <pt x="279" y="341" on="0"/>
        <pt x="255" y="330" on="1"/>
        <pt x="367" y="173" on="1"/>
        <pt x="381" y="190" on="0"/>
        <pt x="410" y="240" on="0"/>
      </contour>
      <contour>
        <pt x="160" y="497" on="1"/>
        <pt x="160" y="449" on="0"/>
        <pt x="221" y="373" on="1"/>
        <pt x="257" y="390" on="0"/>
        <pt x="297" y="459" on="0"/>
        <pt x="297" y="492" on="1"/>
        <pt x="297" y="525" on="0"/>
        <pt x="256" y="570" on="0"/>
        <pt x="229" y="570" on="1"/>
        <pt x="201" y="570" on="0"/>
        <pt x="160" y="530" on="0"/>
      </contour>
      <contour>
        <pt x="197" y="296" on="1"/>
        <pt x="157" y="271" on="0"/>
        <pt x="112" y="191" on="0"/>
        <pt x="112" y="152" on="1"/>
        <pt x="112" y="131" on="0"/>
        <pt x="126" y="96" on="0"/>
        <pt x="150" y="69" on="0"/>
        <pt x="181" y="54" on="0"/>
        <pt x="199" y="54" on="1"/>
        <pt x="215" y="54" on="0"/>
        <pt x="249" y="64" on="0"/>
        <pt x="278" y="79" on="0"/>
        <pt x="302" y="98" on="0"/>
        <pt x="309" y="106" on="1"/>
        <pt x="324" y="123" on="1"/>
      </contour>
    </TTGlyph>
    <TTGlyph name="aogonek" xMin="49" yMin="-176" xMax="436" yMax="467">
      <contour>
        <pt x="369" y="214" on="1"/>
        <pt x="352" y="214" on="1"/>
        <pt x="338" y="214" on="0"/>
        <pt x="313" y="215" on="0"/>
        <pt x="301" y="215" on="1"/>
        <pt x="246" y="215" on="0"/>
        <pt x="176" y="200" on="0"/>
        <pt x="136" y="174" on="0"/>
        <pt x="121" y="141" on="0"/>
        <pt x="121" y="122" on="1"/>
        <pt x="121" y="90" on="0"/>
        <pt x="177" y="44" on="0"/>
        <pt x="218" y="44" on="1"/>
        <pt x="248" y="44" on="0"/>
        <pt x="296" y="63" on="0"/>
        <pt x="332" y="90" on="0"/>
        <pt x="355" y="120" on="0"/>
        <pt x="359" y="130" on="1"/>
        <pt x="369" y="155" on="0"/>
        <pt x="369" y="184" on="1"/>
      </contour>
      <contour>
        <pt x="91" y="403" on="1"/>
        <pt x="152" y="467" on="0"/>
        <pt x="254" y="467" on="1"/>
        <pt x="338" y="467" on="0"/>
        <pt x="435" y="382" on="0"/>
        <pt x="435" y="283" on="1"/>
        <pt x="434" y="0" on="1"/>
        <pt x="350" y="-75" on="0"/>
        <pt x="350" y="-102" on="1"/>
        <pt x="350" y="-114" on="0"/>
        <pt x="366" y="-130" on="0"/>
        <pt x="378" y="-130" on="1"/>
        <pt x="407" y="-130" on="0"/>
        <pt x="436" y="-107" on="1"/>
        <pt x="436" y="-153" on="1"/>
        <pt x="408" y="-176" on="0"/>
        <pt x="369" y="-176" on="1"/>
        <pt x="329" y="-176" on="0"/>
        <pt x="288" y="-141" on="0"/>
        <pt x="288" y="-115" on="1"/>
        <pt x="288" y="-65" on="0"/>
        <pt x="368" y="0" on="1"/>
        <pt x="367" y="50" on="1"/>
        <pt x="293" y="-11" on="0"/>
        <pt x="203" y="-11" on="1"/>
        <pt x="167" y="-11" on="0"/>
        <pt x="110" y="11" on="0"/>
        <pt x="69" y="47" on="0"/>
        <pt x="49" y="93" on="0"/>
        <pt x="49" y="116" on="1"/>
        <pt x="49" y="184" on="0"/>
        <pt x="168" y="265" on="0"/>
        <pt x="280" y="269" on="1"/>
        <pt x="366" y="269" on="1"/>
        <pt x="366" y="286" on="1"/>
        <pt x="366" y="354" on="0"/>
        <pt x="309" y="408" on="0"/>
        <pt x="249" y="408" on="1"/>
        <pt x="175" y="408" on="0"/>
        <pt x="126" y="357" on="1"/>
      </contour>
    </TTGlyph>
    <TTGlyph name="aring" xMin="49" yMin="-11" xMax="435" yMax="693">
      <component glyphName="a" x="0" y="0" flags="0x204"/>
      <component glyphName="ring" x="0" y="0" flags="0x4"/>
    </TTGlyph>
    <TTGlyph name="asciicircum" xMin="93" yMin="343" xMax="403" yMax="623">
      <contour>
        <pt x="93" y="367" on="1"/>
        <pt x="246" y="623" on="1"/>
        <pt x="268" y="623" on="1"/>
        <pt x="403" y="368" on="1"/>
        <pt x="350" y="343" on="1"/>
        <pt x="253" y="518" on="1"/>
        <pt x="143" y="343" on="1"/>
      </contour>
    </TTGlyph>
    <TTGlyph name="asciitilde" xMin="41" yMin="324" xMax="476" yMax="464">
      <contour>
        <pt x="91" y="342" on="1"/>
        <pt x="41" y="375" on="1"/>
        <pt x="65" y="414" on="0"/>
        <pt x="138" y="464" on="0"/>
        <pt x="172" y="464" on="1"/>
        <pt x="207" y="464" on="0"/>
        <pt x="256" y="441" on="0"/>
        <pt x="271" y="427" on="1"/>
        <pt x="312" y="389" on="0"/>
        <pt x="339" y="389" on="1"/>
        <pt x="367" y="389" on="0"/>
        <pt x="405" y="421" on="0"/>
        <pt x="430" y="454" on="1"/>
        <pt x="476" y="416" on="1"/>
        <pt x="464" y="398" on="0"/>
        <pt x="432" y="364" on="0"/>
        <pt x="398" y="339" on="0"/>
        <pt x="362" y="324" on="0"/>
        <pt x="344" y="324" on="1"/>
        <pt x="310" y="324" on="0"/>
        <pt x="262" y="349" on="0"/>
        <pt x="248" y="364" on="1"/>
        <pt x="211" y="404" on="0"/>
        <pt x="174" y="404" on="1"/>
        <pt x="129" y="404" on="0"/>
      </contour>
    </TTGlyph>
    <TTGlyph name="asterisk" xMin="41" yMin="106" xMax="458" yMax="519">
      <contour>
        <pt x="213" y="519" on="1"/>
        <pt x="294" y="519" on="1"/>
        <pt x="293" y="513" on="0"/>
        <pt x="289" y="498" on="0"/>
        <pt x="288" y="492" on="1"/>
        <pt x="273" y="342" on="1"/>
        <pt x="432" y="414" on="1"/>
        <pt x="458" y="353" on="1"/>
        <pt x="287" y="301" on="1"/>
        <pt x="413" y="150" on="1"/>
        <pt x="358" y="107" on="1"/>
        <pt x="250" y="273" on="1"/>
        <pt x="138" y="106" on="1"/>
        <pt x="84" y="150" on="1"/>
        <pt x="214" y="300" on="1"/>
        <pt x="41" y="353" on="1"/>
        <pt x="67" y="418" on="1"/>
        <pt x="229" y="342" on="1"/>
      </contour>
    </TTGlyph>
    <TTGlyph name="at" xMin="31" yMin="-11" xMax="465" yMax="633">
      <contour>
        <pt x="435" y="30" on="1"/>
        <pt x="370" y="-11" on="0"/>
        <pt x="295" y="-11" on="1"/>
        <pt x="245" y="-11" on="0"/>
        <pt x="151" y="28" on="0"/>
        <pt x="76" y="107" on="0"/>
        <pt x="31" y="229" on="0"/>
        <pt x="31" y="313" on="1"/>
        <pt x="31" y="396" on="0"/>
        <pt x="74" y="517" on="0"/>
        <pt x="143" y="595" on="0"/>
        <pt x="228" y="633" on="0"/>
        <pt x="271" y="633" on="1"/>
        <pt x="313" y="633" on="0"/>
        <pt x="384" y="604" on="0"/>
        <pt x="436" y="542" on="0"/>
        <pt x="465" y="445" on="0"/>
        <pt x="465" y="378" on="1"/>
        <pt x="465" y="175" on="1"/>
        <pt x="405" y="175" on="1"/>
        <pt x="405" y="213" on="1"/>
        <pt x="366" y="167" on="0"/>
        <pt x="308" y="167" on="1"/>
        <pt x="279" y="167" on="0"/>
        <pt x="231" y="188" on="0"/>
        <pt x="195" y="223" on="0"/>
        <pt x="175" y="267" on="0"/>
        <pt x="175" y="291" on="1"/>
        <pt x="175" y="364" on="0"/>
        <pt x="276" y="444" on="0"/>
        <pt x="387" y="444" on="1"/>
        <pt x="402" y="444" on="1"/>
        <pt x="402" y="472" on="0"/>
        <pt x="381" y="521" on="0"/>
        <pt x="344" y="558" on="0"/>
        <pt x="295" y="579" on="0"/>
        <pt x="268" y="579" on="1"/>
        <pt x="236" y="579" on="0"/>
        <pt x="172" y="548" on="0"/>
        <pt x="121" y="484" on="0"/>
        <pt x="89" y="384" on="0"/>
        <pt x="89" y="314" on="1"/>
        <pt x="89" y="246" on="0"/>
        <pt x="126" y="145" on="0"/>
        <pt x="186" y="79" on="0"/>
        <pt x="262" y="46" on="0"/>
        <pt x="301" y="46" on="1"/>
        <pt x="358" y="46" on="0"/>
        <pt x="408" y="79" on="1"/>
      </contour>
      <contour>
        <pt x="405" y="394" on="1"/>
        <pt x="388" y="394" on="1"/>
        <pt x="310" y="394" on="0"/>
        <pt x="237" y="344" on="0"/>
        <pt x="237" y="305" on="1"/>
        <pt x="237" y="267" on="0"/>
        <pt x="283" y="222" on="0"/>
        <pt x="311" y="222" on="1"/>
        <pt x="368" y="222" on="0"/>
        <pt x="405" y="297" on="0"/>
        <pt x="405" y="375" on="1"/>
      </contour>
    </TTGlyph>
    <TTGlyph name="atilde" xMin="49" yMin="-11" xMax="438" yMax="676">
      <component glyphName="a" x="0" y="0" flags="0x204"/>
      <component glyphName="tilde" x="9" y="0" flags="0x4"/>
    </TTGlyph>
    <TTGlyph name="b" xMin="60" yMin="-11" xMax="457" yMax="665">
      <contour>
        <pt x="60" y="665" on="1"/>
        <pt x="144" y="665" on="1"/>
        <pt x="144" y="663" on="1"/>
        <pt x="144" y="658" on="0"/>
        <pt x="133" y="649" on="0"/>
        <pt x="133" y="643" on="1"/>
        <pt x="133" y="387" on="1"/>
        <pt x="155" y="424" on="0"/>
        <pt x="230" y="468" on="0"/>
        <pt x="269" y="468" on="1"/>
        <pt x="307" y="468" on="0"/>
        <pt x="375" y="439" on="0"/>
        <pt x="427" y="380" on="0"/>
        <pt x="457" y="292" on="0"/>
        <pt x="457" y="233" on="1"/>
        <pt x="457" y="171" on="0"/>
        <pt x="424" y="80" on="0"/>
        <pt x="370" y="19" on="0"/>
        <pt x="302" y="-11" on="0"/>
        <pt x="266" y="-11" on="1"/>
        <pt x="224" y="-11" on="0"/>
        <pt x="154" y="27" on="0"/>
        <pt x="131" y="60" on="1"/>
        <pt x="106" y="0" on="1"/>
        <pt x="60" y="0" on="1"/>
      </contour>
      <contour>
        <pt x="185" y="70" on="1"/>
        <pt x="204" y="60" on="0"/>
        <pt x="234" y="53" on="0"/>
        <pt x="247" y="53" on="1"/>
        <pt x="267" y="53" on="0"/>
        <pt x="315" y="68" on="0"/>
        <pt x="356" y="106" on="0"/>
        <pt x="383" y="170" on="0"/>
        <pt x="383" y="219" on="1"/>
        <pt x="383" y="310" on="0"/>
        <pt x="309" y="406" on="0"/>
        <pt x="239" y="406" on="1"/>
        <pt x="214" y="406" on="0"/>
        <pt x="158" y="370" on="0"/>
        <pt x="145" y="340" on="1"/>
        <pt x="133" y="310" on="0"/>
        <pt x="133" y="242" on="1"/>
        <pt x="133" y="200" on="0"/>
        <pt x="137" y="142" on="0"/>
        <pt x="149" y="103" on="0"/>
        <pt x="169" y="79" on="0"/>
      </contour>
    </TTGlyph>
    <TTGlyph name="backslash" xMin="64" yMin="-42" xMax="437" yMax="665">
      <contour>
        <pt x="437" y="-13" on="1"/>
        <pt x="378" y="-42" on="1"/>
        <pt x="64" y="634" on="1"/>
        <pt x="123" y="665" on="1"/>
      </contour>
    </TTGlyph>
    <TTGlyph name="bar" xMin="217" yMin="-151" xMax="284" yMax="652">
      <contour>
        <pt x="217" y="652" on="1"/>
        <pt x="284" y="652" on="1"/>
        <pt x="284" y="-151" on="1"/>
        <pt x="217" y="-151" on="1"/>
      </contour>
    </TTGlyph>
    <TTGlyph name="braceleft" xMin="53" yMin="-159" xMax="408" yMax="637">
      <contour>
        <pt x="159" y="16" on="1"/>
        <pt x="163" y="116" on="1"/>
        <pt x="163" y="182" on="0"/>
        <pt x="116" y="228" on="0"/>
        <pt x="73" y="228" on="1"/>
        <pt x="53" y="228" on="1"/>
        <pt x="53" y="284" on="1"/>
        <pt x="72" y="284" on="1"/>
        <pt x="118" y="284" on="0"/>
        <pt x="165" y="334" on="0"/>
        <pt x="165" y="391" on="1"/>
        <pt x="163" y="463" on="1"/>
        <pt x="163" y="637" on="0"/>
        <pt x="345" y="637" on="1"/>
        <pt x="408" y="637" on="1"/>
        <pt x="408" y="580" on="1"/>
        <pt x="326" y="580" on="1"/>
        <pt x="233" y="580" on="0"/>
        <pt x="233" y="474" on="1"/>
        <pt x="235" y="404" on="1"/>
        <pt x="235" y="293" on="0"/>
        <pt x="148" y="256" on="1"/>
        <pt x="233" y="228" on="0"/>
        <pt x="233" y="101" on="1"/>
        <pt x="230" y="17" on="1"/>
        <pt x="230" y="-51" on="0"/>
        <pt x="289" y="-103" on="0"/>
        <pt x="356" y="-103" on="1"/>
        <pt x="407" y="-103" on="1"/>
        <pt x="407" y="-159" on="1"/>
        <pt x="371" y="-159" on="1"/>
        <pt x="323" y="-159" on="0"/>
        <pt x="246" y="-152" on="0"/>
        <pt x="215" y="-129" on="1"/>
        <pt x="159" y="-85" on="0"/>
      </contour>
    </TTGlyph>
    <TTGlyph name="braceright" xMin="92" yMin="-159" xMax="448" yMax="637">
      <contour>
        <pt x="338" y="463" on="1"/>
        <pt x="335" y="391" on="1"/>
        <pt x="335" y="334" on="0"/>
        <pt x="383" y="284" on="0"/>
        <pt x="428" y="284" on="1"/>
        <pt x="448" y="284" on="1"/>
        <pt x="448" y="228" on="1"/>
        <pt x="427" y="228" on="1"/>
        <pt x="384" y="228" on="0"/>
        <pt x="338" y="182" on="0"/>
        <pt x="338" y="116" on="1"/>
        <pt x="341" y="16" on="1"/>
        <pt x="341" y="-73" on="0"/>
        <pt x="261" y="-159" on="0"/>
        <pt x="175" y="-159" on="1"/>
        <pt x="93" y="-159" on="1"/>
        <pt x="93" y="-103" on="1"/>
        <pt x="148" y="-103" on="1"/>
        <pt x="170" y="-103" on="0"/>
        <pt x="197" y="-101" on="0"/>
        <pt x="214" y="-96" on="0"/>
        <pt x="225" y="-90" on="0"/>
        <pt x="230" y="-86" on="1"/>
        <pt x="271" y="-57" on="0"/>
        <pt x="271" y="17" on="1"/>
        <pt x="268" y="101" on="1"/>
        <pt x="268" y="227" on="0"/>
        <pt x="352" y="256" on="1"/>
        <pt x="265" y="293" on="0"/>
        <pt x="265" y="404" on="1"/>
        <pt x="268" y="474" on="1"/>
        <pt x="268" y="531" on="0"/>
        <pt x="218" y="580" on="0"/>
        <pt x="167" y="580" on="1"/>
        <pt x="92" y="580" on="1"/>
        <pt x="92" y="637" on="1"/>
        <pt x="123" y="637" on="1"/>
        <pt x="157" y="637" on="0"/>
        <pt x="233" y="632" on="0"/>
        <pt x="297" y="594" on="0"/>
        <pt x="338" y="524" on="0"/>
      </contour>
    </TTGlyph>
    <TTGlyph name="bracketleft" xMin="131" yMin="-89" xMax="418" yMax="670">
      <contour>
        <pt x="131" y="670" on="1"/>
        <pt x="417" y="670" on="1"/>
        <pt x="417" y="610" on="1"/>
        <pt x="195" y="610" on="1"/>
        <pt x="195" y="-32" on="1"/>
        <pt x="418" y="-32" on="1"/>
        <pt x="418" y="-89" on="1"/>
        <pt x="131" y="-89" on="1"/>
      </contour>
    </TTGlyph>
    <TTGlyph name="bracketright" xMin="83" yMin="-89" xMax="369" yMax="670">
      <contour>
        <pt x="369" y="670" on="1"/>
        <pt x="369" y="-89" on="1"/>
        <pt x="83" y="-89" on="1"/>
        <pt x="83" y="-32" on="1"/>
        <pt x="306" y="-32" on="1"/>
        <pt x="306" y="610" on="1"/>
        <pt x="84" y="610" on="1"/>
        <pt x="84" y="670" on="1"/>
      </contour>
    </TTGlyph>
    <TTGlyph name="breve" xMin="101" yMin="524" xMax="397" yMax="646">
      <contour>
        <pt x="137" y="646" on="1"/>
        <pt x="156" y="616" on="0"/>
        <pt x="215" y="576" on="0"/>
        <pt x="250" y="576" on="1"/>
        <pt x="314" y="576" on="0"/>
        <pt x="369" y="646" on="1"/>
        <pt x="397" y="604" on="1"/>
        <pt x="370" y="568" on="0"/>
        <pt x="293" y="524" on="0"/>
        <pt x="251" y="524" on="1"/>
        <pt x="166" y="524" on="0"/>
        <pt x="101" y="601" on="1"/>
      </contour>
    </TTGlyph>
    <TTGlyph name="breve.cap" xMin="91" yMin="662" xMax="387" yMax="784">
      <contour>
        <pt x="128" y="784" on="1"/>
        <pt x="147" y="754" on="0"/>
        <pt x="206" y="714" on="0"/>
        <pt x="240" y="714" on="1"/>
        <pt x="305" y="714" on="0"/>
        <pt x="359" y="784" on="1"/>
        <pt x="387" y="742" on="1"/>
        <pt x="361" y="706" on="0"/>
        <pt x="284" y="662" on="0"/>
        <pt x="242" y="662" on="1"/>
        <pt x="156" y="662" on="0"/>
        <pt x="91" y="739" on="1"/>
      </contour>
    </TTGlyph>
    <TTGlyph name="brokenbar" xMin="217" yMin="-151" xMax="284" yMax="652">
      <contour>
        <pt x="217" y="652" on="1"/>
        <pt x="284" y="652" on="1"/>
        <pt x="284" y="295" on="1"/>
        <pt x="217" y="295" on="1"/>
      </contour>
      <contour>
        <pt x="284" y="-151" on="1"/>
        <pt x="217" y="-151" on="1"/>
        <pt x="217" y="196" on="1"/>
        <pt x="284" y="196" on="1"/>
      </contour>
    </TTGlyph>
    <TTGlyph name="bullet" xMin="171" yMin="213" xMax="341" yMax="380">
      <contour>
        <pt x="316" y="355" on="1"/>
        <pt x="341" y="330" on="0"/>
        <pt x="341" y="296" on="1"/>
        <pt x="341" y="262" on="0"/>
        <pt x="291" y="213" on="0"/>
        <pt x="256" y="213" on="1"/>
        <pt x="221" y="213" on="0"/>
        <pt x="171" y="262" on="0"/>
        <pt x="171" y="296" on="1"/>
        <pt x="171" y="331" on="0"/>
        <pt x="222" y="380" on="0"/>
        <pt x="256" y="380" on="1"/>
        <pt x="289" y="380" on="0"/>
      </contour>
    </TTGlyph>
    <TTGlyph name="c" xMin="56" yMin="-11" xMax="457" yMax="466">
      <contour>
        <pt x="457" y="381" on="1"/>
        <pt x="406" y="322" on="1"/>
        <pt x="401" y="325" on="0"/>
        <pt x="402" y="332" on="0"/>
        <pt x="399" y="344" on="0"/>
        <pt x="387" y="362" on="0"/>
        <pt x="369" y="377" on="1"/>
        <pt x="335" y="405" on="0"/>
        <pt x="276" y="405" on="1"/>
        <pt x="247" y="405" on="0"/>
        <pt x="194" y="381" on="0"/>
        <pt x="154" y="336" on="0"/>
        <pt x="130" y="273" on="0"/>
        <pt x="130" y="234" on="1"/>
        <pt x="130" y="195" on="0"/>
        <pt x="154" y="129" on="0"/>
        <pt x="196" y="81" on="0"/>
        <pt x="254" y="54" on="0"/>
        <pt x="289" y="54" on="1"/>
        <pt x="358" y="54" on="0"/>
        <pt x="408" y="110" on="1"/>
        <pt x="450" y="61" on="1"/>
        <pt x="382" y="-11" on="0"/>
        <pt x="283" y="-11" on="1"/>
        <pt x="234" y="-11" on="0"/>
        <pt x="151" y="25" on="0"/>
        <pt x="90" y="89" on="0"/>
        <pt x="56" y="176" on="0"/>
        <pt x="56" y="228" on="1"/>
        <pt x="56" y="279" on="0"/>
        <pt x="90" y="367" on="0"/>
        <pt x="151" y="430" on="0"/>
        <pt x="236" y="466" on="0"/>
        <pt x="286" y="466" on="1"/>
        <pt x="340" y="466" on="0"/>
        <pt x="429" y="421" on="0"/>
      </contour>
    </TTGlyph>
    <TTGlyph name="cacute" xMin="56" yMin="-11" xMax="457" yMax="699">
      <component glyphName="c" x="0" y="0" flags="0x204"/>
      <component glyphName="acute" x="0" y="0" flags="0x4"/>
    </TTGlyph>
    <TTGlyph name="caron" xMin="134" yMin="518" xMax="377" yMax="694">
      <contour>
        <pt x="377" y="658" on="1"/>
        <pt x="266" y="518" on="1"/>
        <pt x="244" y="518" on="1"/>
        <pt x="134" y="659" on="1"/>
        <pt x="180" y="694" on="1"/>
        <pt x="258" y="591" on="1"/>
        <pt x="339" y="693" on="1"/>
      </contour>
    </TTGlyph>
    <TTGlyph name="caron.cap" xMin="102" yMin="655" xMax="378" yMax="791">
      <contour>
        <pt x="378" y="755" on="1"/>
        <pt x="247" y="655" on="1"/>
        <pt x="225" y="655" on="1"/>
        <pt x="102" y="753" on="1"/>
        <pt x="135" y="791" on="1"/>
        <pt x="238" y="720" on="1"/>
        <pt x="350" y="788" on="1"/>
      </contour>
    </TTGlyph>
    <TTGlyph name="ccaron" xMin="56" yMin="-11" xMax="457" yMax="694">
      <component glyphName="c" x="0" y="0" flags="0x204"/>
      <component glyphName="caron" x="0" y="0" flags="0x4"/>
    </TTGlyph>
    <TTGlyph name="ccedilla" xMin="56" yMin="-177" xMax="457" yMax="466">
      <contour>
        <pt x="327" y="-109" on="1"/>
        <pt x="327" y="-85" on="0"/>
        <pt x="280" y="-85" on="1"/>
        <pt x="250" y="-85" on="1"/>
        <pt x="260" y="-10" on="1"/>
        <pt x="216" y="-6" on="0"/>
        <pt x="141" y="33" on="0"/>
        <pt x="87" y="96" on="0"/>
        <pt x="56" y="181" on="0"/>
        <pt x="56" y="231" on="1"/>
        <pt x="56" y="280" on="0"/>
        <pt x="90" y="366" on="0"/>
        <pt x="151" y="430" on="0"/>
        <pt x="236" y="466" on="0"/>
        <pt x="286" y="466" on="1"/>
        <pt x="340" y="466" on="0"/>
        <pt x="429" y="421" on="0"/>
        <pt x="457" y="381" on="1"/>
        <pt x="406" y="322" on="1"/>
        <pt x="401" y="325" on="0"/>
        <pt x="400" y="332" on="0"/>
        <pt x="401" y="344" on="0"/>
        <pt x="387" y="362" on="0"/>
        <pt x="369" y="377" on="1"/>
        <pt x="335" y="405" on="0"/>
        <pt x="276" y="405" on="1"/>
        <pt x="247" y="405" on="0"/>
        <pt x="194" y="381" on="0"/>
        <pt x="154" y="336" on="0"/>
        <pt x="130" y="273" on="0"/>
        <pt x="130" y="234" on="1"/>
        <pt x="130" y="195" on="0"/>
        <pt x="154" y="129" on="0"/>
        <pt x="196" y="81" on="0"/>
        <pt x="254" y="54" on="0"/>
        <pt x="289" y="54" on="1"/>
        <pt x="358" y="54" on="0"/>
        <pt x="408" y="110" on="1"/>
        <pt x="450" y="61" on="1"/>
        <pt x="391" y="-2" on="0"/>
        <pt x="304" y="-10" on="1"/>
        <pt x="299" y="-47" on="1"/>
        <pt x="316" y="-48" on="1"/>
        <pt x="384" y="-53" on="0"/>
        <pt x="384" y="-103" on="1"/>
        <pt x="384" y="-131" on="0"/>
        <pt x="327" y="-177" on="0"/>
        <pt x="268" y="-177" on="1"/>
        <pt x="209" y="-177" on="0"/>
        <pt x="157" y="-140" on="1"/>
        <pt x="182" y="-98" on="1"/>
        <pt x="225" y="-134" on="0"/>
        <pt x="281" y="-134" on="1"/>
        <pt x="307" y="-134" on="0"/>
        <pt x="327" y="-119" on="0"/>
      </contour>
    </TTGlyph>
    <TTGlyph name="cedilla" xMin="157" yMin="-177" xMax="384" yMax="0">
      <contour>
        <pt x="327" y="-109" on="1"/>
        <pt x="327" y="-85" on="0"/>
        <pt x="280" y="-85" on="1"/>
        <pt x="250" y="-85" on="1"/>
        <pt x="261" y="0" on="1"/>
        <pt x="305" y="0" on="1"/>
        <pt x="299" y="-47" on="1"/>
        <pt x="316" y="-48" on="1"/>
        <pt x="384" y="-53" on="0"/>
        <pt x="384" y="-103" on="1"/>
        <pt x="384" y="-131" on="0"/>
        <pt x="327" y="-177" on="0"/>
        <pt x="268" y="-177" on="1"/>
        <pt x="209" y="-177" on="0"/>
        <pt x="157" y="-140" on="1"/>
        <pt x="182" y="-98" on="1"/>
        <pt x="225" y="-134" on="0"/>
        <pt x="281" y="-134" on="1"/>
        <pt x="307" y="-134" on="0"/>
        <pt x="327" y="-119" on="0"/>
      </contour>
    </TTGlyph>
    <TTGlyph name="cent" xMin="48" yMin="-79" xMax="451" yMax="624">
      <contour>
        <pt x="285" y="624" on="1"/>
        <pt x="352" y="617" on="1"/>
        <pt x="352" y="611" on="0"/>
        <pt x="344" y="596" on="0"/>
        <pt x="343" y="589" on="1"/>
        <pt x="333" y="507" on="1"/>
        <pt x="410" y="492" on="0"/>
        <pt x="451" y="430" on="1"/>
        <pt x="407" y="373" on="1"/>
        <pt x="403" y="376" on="0"/>
        <pt x="403" y="395" on="0"/>
        <pt x="399" y="399" on="1"/>
        <pt x="370" y="434" on="0"/>
        <pt x="325" y="447" on="1"/>
        <pt x="279" y="97" on="1"/>
        <pt x="354" y="97" on="0"/>
        <pt x="410" y="153" on="1"/>
        <pt x="446" y="104" on="1"/>
        <pt x="381" y="33" on="0"/>
        <pt x="278" y="33" on="1"/>
        <pt x="270" y="33" on="1"/>
        <pt x="255" y="-79" on="1"/>
        <pt x="198" y="-72" on="1"/>
        <pt x="212" y="41" on="1"/>
        <pt x="137" y="62" on="0"/>
        <pt x="48" y="186" on="0"/>
        <pt x="48" y="280" on="1"/>
        <pt x="48" y="327" on="0"/>
        <pt x="81" y="409" on="0"/>
        <pt x="139" y="472" on="0"/>
        <pt x="221" y="510" on="0"/>
        <pt x="271" y="512" on="1"/>
      </contour>
      <contour>
        <pt x="220" y="108" on="1"/>
        <pt x="263" y="454" on="1"/>
        <pt x="231" y="452" on="0"/>
        <pt x="179" y="426" on="0"/>
        <pt x="140" y="382" on="0"/>
        <pt x="119" y="323" on="0"/>
        <pt x="119" y="288" on="1"/>
        <pt x="119" y="218" on="0"/>
        <pt x="174" y="126" on="0"/>
      </contour>
    </TTGlyph>
    <TTGlyph name="circumflex" xMin="134" yMin="509" xMax="377" yMax="685">
      <contour>
        <pt x="134" y="545" on="1"/>
        <pt x="245" y="685" on="1"/>
        <pt x="267" y="685" on="1"/>
        <pt x="377" y="544" on="1"/>
        <pt x="331" y="509" on="1"/>
        <pt x="253" y="612" on="1"/>
        <pt x="172" y="510" on="1"/>
      </contour>
    </TTGlyph>
    <TTGlyph name="circumflex.cap" xMin="114" yMin="655" xMax="390" yMax="791">
      <contour>
        <pt x="114" y="692" on="1"/>
        <pt x="245" y="791" on="1"/>
        <pt x="267" y="791" on="1"/>
        <pt x="390" y="693" on="1"/>
        <pt x="357" y="655" on="1"/>
        <pt x="254" y="726" on="1"/>
        <pt x="142" y="658" on="1"/>
      </contour>
    </TTGlyph>
    <TTGlyph name="colon" xMin="179" yMin="-11" xMax="298" yMax="423">
      <contour>
        <pt x="280" y="406" on="1"/>
        <pt x="298" y="388" on="0"/>
        <pt x="298" y="365" on="1"/>
        <pt x="298" y="342" on="0"/>
        <pt x="262" y="308" on="0"/>
        <pt x="238" y="308" on="1"/>
        <pt x="215" y="308" on="0"/>
        <pt x="179" y="342" on="0"/>
        <pt x="179" y="365" on="1"/>
        <pt x="179" y="389" on="0"/>
        <pt x="215" y="423" on="0"/>
        <pt x="238" y="423" on="1"/>
        <pt x="261" y="423" on="0"/>
      </contour>
      <contour>
        <pt x="280" y="87" on="1"/>
        <pt x="298" y="69" on="0"/>
        <pt x="298" y="46" on="1"/>
        <pt x="298" y="23" on="0"/>
        <pt x="263" y="-11" on="0"/>
        <pt x="238" y="-11" on="1"/>
        <pt x="213" y="-11" on="0"/>
        <pt x="179" y="22" on="0"/>
        <pt x="179" y="46" on="1"/>
        <pt x="179" y="70" on="0"/>
        <pt x="215" y="104" on="0"/>
        <pt x="238" y="104" on="1"/>
        <pt x="261" y="104" on="0"/>
      </contour>
    </TTGlyph>
    <TTGlyph name="comma" xMin="165" yMin="-168" xMax="306" yMax="103">
      <contour>
        <pt x="306" y="20" on="1"/>
        <pt x="306" y="-59" on="0"/>
        <pt x="199" y="-168" on="1"/>
        <pt x="165" y="-138" on="1"/>
        <pt x="193" y="-112" on="0"/>
        <pt x="230" y="-52" on="0"/>
        <pt x="230" y="-33" on="1"/>
        <pt x="230" y="-23" on="0"/>
        <pt x="214" y="-6" on="0"/>
        <pt x="195" y="10" on="0"/>
        <pt x="179" y="31" on="0"/>
        <pt x="179" y="44" on="1"/>
        <pt x="179" y="69" on="0"/>
        <pt x="212" y="103" on="0"/>
        <pt x="238" y="103" on="1"/>
        <pt x="264" y="103" on="0"/>
        <pt x="306" y="57" on="0"/>
      </contour>
    </TTGlyph>
    <TTGlyph name="copyright" xMin="14" yMin="19" xMax="498" yMax="530">
      <contour>
        <pt x="387" y="331" on="1"/>
        <pt x="335" y="312" on="1"/>
        <pt x="331" y="319" on="0"/>
        <pt x="332" y="329" on="0"/>
        <pt x="329" y="340" on="0"/>
        <pt x="318" y="353" on="0"/>
        <pt x="302" y="364" on="1"/>
        <pt x="285" y="374" on="0"/>
        <pt x="262" y="374" on="1"/>
        <pt x="248" y="374" on="0"/>
        <pt x="216" y="364" on="0"/>
        <pt x="189" y="341" on="0"/>
        <pt x="171" y="306" on="0"/>
        <pt x="171" y="281" on="1"/>
        <pt x="171" y="259" on="0"/>
        <pt x="186" y="220" on="0"/>
        <pt x="211" y="191" on="0"/>
        <pt x="245" y="174" on="0"/>
        <pt x="265" y="174" on="1"/>
        <pt x="289" y="174" on="0"/>
        <pt x="329" y="198" on="0"/>
        <pt x="340" y="219" on="1"/>
        <pt x="384" y="190" on="1"/>
        <pt x="363" y="158" on="0"/>
        <pt x="297" y="122" on="0"/>
        <pt x="261" y="122" on="1"/>
        <pt x="230" y="122" on="0"/>
        <pt x="177" y="147" on="0"/>
        <pt x="138" y="189" on="0"/>
        <pt x="115" y="245" on="0"/>
        <pt x="115" y="276" on="1"/>
        <pt x="115" y="307" on="0"/>
        <pt x="139" y="362" on="0"/>
        <pt x="179" y="401" on="0"/>
        <pt x="228" y="424" on="0"/>
        <pt x="254" y="424" on="1"/>
        <pt x="308" y="424" on="0"/>
        <pt x="377" y="373" on="0"/>
      </contour>
      <contour>
        <pt x="426" y="93" on="1"/>
        <pt x="355" y="19" on="0"/>
        <pt x="255" y="19" on="1"/>
        <pt x="205" y="19" on="0"/>
        <pt x="117" y="59" on="0"/>
        <pt x="52" y="129" on="0"/>
        <pt x="14" y="221" on="0"/>
        <pt x="14" y="274" on="1"/>
        <pt x="14" y="327" on="0"/>
        <pt x="52" y="420" on="0"/>
        <pt x="118" y="490" on="0"/>
        <pt x="206" y="530" on="0"/>
        <pt x="256" y="530" on="1"/>
        <pt x="305" y="530" on="0"/>
        <pt x="393" y="490" on="0"/>
        <pt x="459" y="420" on="0"/>
        <pt x="498" y="327" on="0"/>
        <pt x="498" y="274" on="1"/>
        <pt x="498" y="168" on="0"/>
      </contour>
      <contour>
        <pt x="257" y="488" on="1"/>
        <pt x="216" y="488" on="0"/>
        <pt x="144" y="455" on="0"/>
        <pt x="90" y="397" on="0"/>
        <pt x="59" y="319" on="0"/>
        <pt x="59" y="274" on="1"/>
        <pt x="59" y="230" on="0"/>
        <pt x="90" y="152" on="0"/>
        <pt x="144" y="95" on="0"/>
        <pt x="216" y="62" on="0"/>
        <pt x="257" y="62" on="1"/>
        <pt x="297" y="62" on="0"/>
        <pt x="369" y="96" on="0"/>
        <pt x="423" y="154" on="0"/>
        <pt x="455" y="231" on="0"/>
        <pt x="455" y="275" on="1"/>
        <pt x="455" y="319" on="0"/>
        <pt x="424" y="396" on="0"/>
        <pt x="370" y="454" on="0"/>
        <pt x="298" y="488" on="0"/>
      </contour>
    </TTGlyph>
    <TTGlyph name="currency" xMin="68" yMin="164" xMax="432" yMax="527">
      <contour>
        <pt x="68" y="492" on="1"/>
        <pt x="104" y="527" on="1"/>
        <pt x="160" y="471" on="1"/>
        <pt x="201" y="500" on="0"/>
        <pt x="251" y="500" on="1"/>
        <pt x="298" y="500" on="0"/>
        <pt x="340" y="472" on="1"/>
        <pt x="396" y="527" on="1"/>
        <pt x="432" y="492" on="1"/>
        <pt x="376" y="437" on="1"/>
        <pt x="406" y="395" on="0"/>
        <pt x="406" y="345" on="1"/>
        <pt x="406" y="295" on="0"/>
        <pt x="377" y="254" on="1"/>
        <pt x="432" y="199" on="1"/>
        <pt x="396" y="164" on="1"/>
        <pt x="341" y="219" on="1"/>
        <pt x="321" y="204" on="0"/>
        <pt x="275" y="190" on="0"/>
        <pt x="251" y="190" on="1"/>
        <pt x="201" y="190" on="0"/>
        <pt x="159" y="220" on="1"/>
        <pt x="104" y="164" on="1"/>
        <pt x="68" y="199" on="1"/>
        <pt x="124" y="256" on="1"/>
        <pt x="110" y="276" on="0"/>
        <pt x="96" y="322" on="0"/>
        <pt x="96" y="345" on="1"/>
        <pt x="96" y="369" on="0"/>
        <pt x="110" y="415" on="0"/>
        <pt x="125" y="435" on="1"/>
      </contour>
      <contour>
        <pt x="321" y="416" on="1"/>
        <pt x="291" y="446" on="0"/>
        <pt x="250" y="446" on="1"/>
        <pt x="230" y="446" on="0"/>
        <pt x="194" y="430" on="0"/>
        <pt x="166" y="402" on="0"/>
        <pt x="150" y="366" on="0"/>
        <pt x="150" y="345" on="1"/>
        <pt x="150" y="325" on="0"/>
        <pt x="166" y="288" on="0"/>
        <pt x="193" y="261" on="0"/>
        <pt x="230" y="245" on="0"/>
        <pt x="250" y="245" on="1"/>
        <pt x="271" y="245" on="0"/>
        <pt x="307" y="261" on="0"/>
        <pt x="335" y="289" on="0"/>
        <pt x="351" y="325" on="0"/>
        <pt x="351" y="345" on="1"/>
        <pt x="351" y="386" on="0"/>
      </contour>
    </TTGlyph>
    <TTGlyph name="d" xMin="45" yMin="-10" xMax="448" yMax="665">
      <contour>
        <pt x="371" y="390" on="1"/>
        <pt x="371" y="665" on="1"/>
        <pt x="448" y="665" on="1"/>
        <pt x="448" y="659" on="0"/>
        <pt x="438" y="644" on="0"/>
        <pt x="438" y="637" on="1"/>
        <pt x="439" y="42" on="1"/>
        <pt x="439" y="18" on="0"/>
        <pt x="444" y="0" on="1"/>
        <pt x="372" y="0" on="1"/>
        <pt x="368" y="12" on="0"/>
        <pt x="368" y="34" on="1"/>
        <pt x="368" y="73" on="1"/>
        <pt x="346" y="35" on="0"/>
        <pt x="270" y="-10" on="0"/>
        <pt x="231" y="-10" on="1"/>
        <pt x="193" y="-10" on="0"/>
        <pt x="126" y="20" on="0"/>
        <pt x="75" y="80" on="0"/>
        <pt x="45" y="171" on="0"/>
        <pt x="45" y="233" on="1"/>
        <pt x="45" y="296" on="0"/>
        <pt x="79" y="385" on="0"/>
        <pt x="134" y="442" on="0"/>
        <pt x="202" y="469" on="0"/>
        <pt x="237" y="469" on="1"/>
        <pt x="285" y="469" on="0"/>
        <pt x="354" y="426" on="0"/>
      </contour>
      <contour>
        <pt x="158" y="376" on="1"/>
        <pt x="115" y="337" on="0"/>
        <pt x="115" y="244" on="1"/>
        <pt x="115" y="158" on="0"/>
        <pt x="181" y="53" on="0"/>
        <pt x="245" y="53" on="1"/>
        <pt x="260" y="53" on="0"/>
        <pt x="294" y="64" on="0"/>
        <pt x="324" y="86" on="0"/>
        <pt x="348" y="116" on="0"/>
        <pt x="354" y="135" on="1"/>
        <pt x="365" y="171" on="0"/>
        <pt x="365" y="231" on="1"/>
        <pt x="365" y="269" on="0"/>
        <pt x="359" y="320" on="0"/>
        <pt x="346" y="356" on="0"/>
        <pt x="326" y="379" on="0"/>
        <pt x="311" y="388" on="1"/>
        <pt x="293" y="399" on="0"/>
        <pt x="262" y="410" on="0"/>
        <pt x="248" y="410" on="1"/>
        <pt x="219" y="410" on="0"/>
        <pt x="178" y="394" on="0"/>
      </contour>
    </TTGlyph>
    <TTGlyph name="dagger" xMin="49" yMin="-151" xMax="450" yMax="652">
      <contour>
        <pt x="217" y="652" on="1"/>
        <pt x="284" y="652" on="1"/>
        <pt x="284" y="457" on="1"/>
        <pt x="450" y="457" on="1"/>
        <pt x="450" y="397" on="1"/>
        <pt x="284" y="397" on="1"/>
        <pt x="284" y="-151" on="1"/>
        <pt x="217" y="-151" on="1"/>
        <pt x="217" y="397" on="1"/>
        <pt x="49" y="397" on="1"/>
        <pt x="49" y="457" on="1"/>
        <pt x="217" y="457" on="1"/>
      </contour>
    </TTGlyph>
    <TTGlyph name="daggerdbl" xMin="49" yMin="-151" xMax="450" yMax="652">
      <contour>
        <pt x="217" y="652" on="1"/>
        <pt x="284" y="652" on="1"/>
        <pt x="284" y="457" on="1"/>
        <pt x="450" y="457" on="1"/>
        <pt x="450" y="397" on="1"/>
        <pt x="284" y="397" on="1"/>
        <pt x="284" y="121" on="1"/>
        <pt x="450" y="121" on="1"/>
        <pt x="450" y="61" on="1"/>
        <pt x="284" y="61" on="1"/>
        <pt x="284" y="-151" on="1"/>
        <pt x="217" y="-151" on="1"/>
        <pt x="217" y="61" on="1"/>
        <pt x="49" y="61" on="1"/>
        <pt x="49" y="121" on="1"/>
        <pt x="217" y="121" on="1"/>
        <pt x="217" y="397" on="1"/>
        <pt x="49" y="397" on="1"/>
        <pt x="49" y="457" on="1"/>
        <pt x="217" y="457" on="1"/>
      </contour>
    </TTGlyph>
    <TTGlyph name="dcaron" xMin="0" yMin="-10" xMax="509" yMax="671">
      <contour>
        <pt x="309" y="390" on="1"/>
        <pt x="309" y="665" on="1"/>
        <pt x="377" y="665" on="1"/>
        <pt x="377" y="42" on="1"/>
        <pt x="377" y="15" on="0"/>
        <pt x="381" y="0" on="1"/>
        <pt x="310" y="0" on="1"/>
        <pt x="306" y="12" on="0"/>
        <pt x="306" y="34" on="1"/>
        <pt x="306" y="73" on="1"/>
        <pt x="284" y="36" on="0"/>
        <pt x="214" y="-10" on="0"/>
        <pt x="172" y="-10" on="1"/>
        <pt x="135" y="-10" on="0"/>
        <pt x="72" y="27" on="0"/>
        <pt x="26" y="91" on="0"/>
        <pt x="0" y="180" on="0"/>
        <pt x="0" y="233" on="1"/>
        <pt x="0" y="286" on="0"/>
        <pt x="29" y="373" on="0"/>
        <pt x="79" y="435" on="0"/>
        <pt x="145" y="469" on="0"/>
        <pt x="181" y="469" on="1"/>
        <pt x="223" y="469" on="0"/>
        <pt x="291" y="426" on="0"/>
      </contour>
      <contour>
        <pt x="185" y="410" on="1"/>
        <pt x="160" y="410" on="0"/>
        <pt x="118" y="384" on="0"/>
        <pt x="87" y="338" on="0"/>
        <pt x="70" y="276" on="0"/>
        <pt x="70" y="240" on="1"/>
        <pt x="70" y="204" on="0"/>
        <pt x="86" y="137" on="0"/>
        <pt x="117" y="85" on="0"/>
        <pt x="161" y="53" on="0"/>
        <pt x="188" y="53" on="1"/>
        <pt x="205" y="53" on="0"/>
        <pt x="245" y="69" on="0"/>
        <pt x="280" y="106" on="0"/>
        <pt x="303" y="166" on="0"/>
        <pt x="303" y="210" on="1"/>
        <pt x="303" y="241" on="0"/>
        <pt x="302" y="282" on="0"/>
        <pt x="299" y="310" on="0"/>
        <pt x="292" y="333" on="0"/>
        <pt x="286" y="347" on="1"/>
        <pt x="280" y="360" on="0"/>
        <pt x="258" y="383" on="0"/>
        <pt x="230" y="400" on="0"/>
        <pt x="200" y="410" on="0"/>
      </contour>
      <contour>
        <pt x="509" y="605" on="1"/>
        <pt x="509" y="540" on="0"/>
        <pt x="424" y="454" on="1"/>
        <pt x="396" y="478" on="1"/>
        <pt x="419" y="499" on="0"/>
        <pt x="448" y="548" on="0"/>
        <pt x="448" y="563" on="1"/>
        <pt x="448" y="570" on="0"/>
        <pt x="435" y="584" on="0"/>
        <pt x="420" y="597" on="0"/>
        <pt x="407" y="613" on="0"/>
        <pt x="407" y="624" on="1"/>
        <pt x="407" y="644" on="0"/>
        <pt x="434" y="671" on="0"/>
        <pt x="455" y="671" on="1"/>
        <pt x="476" y="671" on="0"/>
        <pt x="509" y="634" on="0"/>
      </contour>
    </TTGlyph>
    <TTGlyph name="dcroat" xMin="38" yMin="-10" xMax="476" yMax="665">
      <contour>
        <pt x="151" y="376" on="1"/>
        <pt x="108" y="337" on="0"/>
        <pt x="108" y="244" on="1"/>
        <pt x="108" y="158" on="0"/>
        <pt x="178" y="53" on="0"/>
        <pt x="238" y="53" on="1"/>
        <pt x="257" y="53" on="0"/>
        <pt x="287" y="65" on="0"/>
        <pt x="317" y="86" on="0"/>
        <pt x="341" y="116" on="0"/>
        <pt x="347" y="135" on="1"/>
        <pt x="358" y="171" on="0"/>
        <pt x="358" y="231" on="1"/>
        <pt x="358" y="269" on="0"/>
        <pt x="352" y="320" on="0"/>
        <pt x="339" y="356" on="0"/>
        <pt x="319" y="379" on="0"/>
        <pt x="304" y="388" on="1"/>
        <pt x="286" y="399" on="0"/>
        <pt x="255" y="410" on="0"/>
        <pt x="241" y="410" on="1"/>
        <pt x="212" y="410" on="0"/>
        <pt x="171" y="394" on="0"/>
      </contour>
      <contour>
        <pt x="432" y="544" on="1"/>
        <pt x="432" y="42" on="1"/>
        <pt x="432" y="18" on="0"/>
        <pt x="437" y="0" on="1"/>
        <pt x="365" y="0" on="1"/>
        <pt x="361" y="12" on="0"/>
        <pt x="361" y="34" on="1"/>
        <pt x="361" y="73" on="1"/>
        <pt x="339" y="35" on="0"/>
        <pt x="263" y="-10" on="0"/>
        <pt x="224" y="-10" on="1"/>
        <pt x="186" y="-10" on="0"/>
        <pt x="119" y="20" on="0"/>
        <pt x="68" y="81" on="0"/>
        <pt x="38" y="172" on="0"/>
        <pt x="38" y="233" on="1"/>
        <pt x="38" y="296" on="0"/>
        <pt x="72" y="385" on="0"/>
        <pt x="127" y="442" on="0"/>
        <pt x="195" y="469" on="0"/>
        <pt x="230" y="469" on="1"/>
        <pt x="278" y="469" on="0"/>
        <pt x="347" y="426" on="0"/>
        <pt x="364" y="390" on="1"/>
        <pt x="364" y="544" on="1"/>
        <pt x="288" y="544" on="1"/>
        <pt x="288" y="597" on="1"/>
        <pt x="364" y="597" on="1"/>
        <pt x="364" y="665" on="1"/>
        <pt x="441" y="665" on="1"/>
        <pt x="441" y="659" on="0"/>
        <pt x="432" y="644" on="0"/>
        <pt x="432" y="637" on="1"/>
        <pt x="432" y="597" on="1"/>
        <pt x="476" y="597" on="1"/>
        <pt x="476" y="544" on="1"/>
      </contour>
    </TTGlyph>
    <TTGlyph name="degree" xMin="121" yMin="370" xMax="391" yMax="639">
      <contour>
        <pt x="351" y="599" on="1"/>
        <pt x="391" y="560" on="0"/>
        <pt x="391" y="504" on="1"/>
        <pt x="391" y="477" on="0"/>
        <pt x="370" y="428" on="0"/>
        <pt x="333" y="392" on="0"/>
        <pt x="284" y="370" on="0"/>
        <pt x="256" y="370" on="1"/>
        <pt x="228" y="370" on="0"/>
        <pt x="179" y="391" on="0"/>
        <pt x="142" y="427" on="0"/>
        <pt x="121" y="476" on="0"/>
        <pt x="121" y="504" on="1"/>
        <pt x="121" y="532" on="0"/>
        <pt x="143" y="582" on="0"/>
        <pt x="180" y="618" on="0"/>
        <pt x="229" y="639" on="0"/>
        <pt x="256" y="639" on="1"/>
        <pt x="312" y="639" on="0"/>
      </contour>
      <contour>
        <pt x="309" y="562" on="1"/>
        <pt x="288" y="586" on="0"/>
        <pt x="257" y="586" on="1"/>
        <pt x="242" y="586" on="0"/>
        <pt x="214" y="573" on="0"/>
        <pt x="194" y="550" on="0"/>
        <pt x="182" y="521" on="0"/>
        <pt x="182" y="505" on="1"/>
        <pt x="182" y="473" on="0"/>
        <pt x="225" y="425" on="0"/>
        <pt x="256" y="425" on="1"/>
        <pt x="288" y="425" on="0"/>
        <pt x="331" y="473" on="0"/>
        <pt x="331" y="505" on="1"/>
        <pt x="331" y="537" on="0"/>
      </contour>
    </TTGlyph>
    <TTGlyph name="dieresis" xMin="112" yMin="564" xMax="391" yMax="665">
      <contour>
        <pt x="198" y="650" on="1"/>
        <pt x="213" y="635" on="0"/>
        <pt x="213" y="614" on="1"/>
        <pt x="213" y="594" on="0"/>
        <pt x="183" y="564" on="0"/>
        <pt x="163" y="564" on="1"/>
        <pt x="142" y="564" on="0"/>
        <pt x="112" y="594" on="0"/>
        <pt x="112" y="614" on="1"/>
        <pt x="112" y="634" on="0"/>
        <pt x="142" y="665" on="0"/>
        <pt x="163" y="665" on="1"/>
        <pt x="183" y="665" on="0"/>
      </contour>
      <contour>
        <pt x="376" y="650" on="1"/>
        <pt x="391" y="635" on="0"/>
        <pt x="391" y="614" on="1"/>
        <pt x="391" y="594" on="0"/>
        <pt x="361" y="564" on="0"/>
        <pt x="341" y="564" on="1"/>
        <pt x="320" y="564" on="0"/>
        <pt x="291" y="593" on="0"/>
        <pt x="291" y="614" on="1"/>
        <pt x="291" y="635" on="0"/>
        <pt x="320" y="665" on="0"/>
        <pt x="341" y="665" on="1"/>
        <pt x="361" y="665" on="0"/>
      </contour>
    </TTGlyph>
    <TTGlyph name="dieresis.cap" xMin="101" yMin="688" xMax="380" yMax="789">
      <contour>
        <pt x="187" y="774" on="1"/>
        <pt x="202" y="759" on="0"/>
        <pt x="202" y="738" on="1"/>
        <pt x="202" y="718" on="0"/>
        <pt x="172" y="688" on="0"/>
        <pt x="151" y="688" on="1"/>
        <pt x="131" y="688" on="0"/>
        <pt x="101" y="718" on="0"/>
        <pt x="101" y="738" on="1"/>
        <pt x="101" y="758" on="0"/>
        <pt x="131" y="789" on="0"/>
        <pt x="151" y="789" on="1"/>
        <pt x="172" y="789" on="0"/>
      </contour>
      <contour>
        <pt x="365" y="774" on="1"/>
        <pt x="380" y="759" on="0"/>
        <pt x="380" y="738" on="1"/>
        <pt x="380" y="718" on="0"/>
        <pt x="350" y="688" on="0"/>
        <pt x="329" y="688" on="1"/>
        <pt x="309" y="688" on="0"/>
        <pt x="280" y="717" on="0"/>
        <pt x="280" y="738" on="1"/>
        <pt x="280" y="759" on="0"/>
        <pt x="309" y="789" on="0"/>
        <pt x="329" y="789" on="1"/>
        <pt x="350" y="789" on="0"/>
      </contour>
    </TTGlyph>
    <TTGlyph name="divide" xMin="71" yMin="114" xMax="431" yMax="512">
      <contour>
        <pt x="71" y="348" on="1"/>
        <pt x="431" y="348" on="1"/>
        <pt x="431" y="281" on="1"/>
        <pt x="71" y="281" on="1"/>
      </contour>
      <contour>
        <pt x="287" y="498" on="1"/>
        <pt x="300" y="483" on="0"/>
        <pt x="300" y="466" on="1"/>
        <pt x="300" y="448" on="0"/>
        <pt x="274" y="422" on="0"/>
        <pt x="255" y="422" on="1"/>
        <pt x="237" y="422" on="0"/>
        <pt x="211" y="448" on="0"/>
        <pt x="211" y="466" on="1"/>
        <pt x="211" y="485" on="0"/>
        <pt x="238" y="512" on="0"/>
        <pt x="255" y="512" on="1"/>
        <pt x="273" y="512" on="0"/>
      </contour>
      <contour>
        <pt x="287" y="190" on="1"/>
        <pt x="300" y="175" on="0"/>
        <pt x="300" y="158" on="1"/>
        <pt x="300" y="140" on="0"/>
        <pt x="274" y="114" on="0"/>
        <pt x="256" y="114" on="1"/>
        <pt x="238" y="114" on="0"/>
        <pt x="210" y="139" on="0"/>
        <pt x="210" y="158" on="1"/>
        <pt x="210" y="178" on="0"/>
        <pt x="239" y="204" on="0"/>
        <pt x="256" y="204" on="1"/>
        <pt x="273" y="204" on="0"/>
      </contour>
    </TTGlyph>
    <TTGlyph name="dollar" xMin="60" yMin="-47" xMax="460" yMax="651">
      <contour>
        <pt x="235" y="651" on="1"/>
        <pt x="299" y="651" on="1"/>
        <pt x="300" y="650" on="0"/>
        <pt x="300" y="648" on="1"/>
        <pt x="300" y="646" on="0"/>
        <pt x="294" y="637" on="0"/>
        <pt x="293" y="630" on="1"/>
        <pt x="293" y="592" on="1"/>
        <pt x="387" y="581" on="0"/>
        <pt x="442" y="515" on="1"/>
        <pt x="399" y="461" on="1"/>
        <pt x="394" y="463" on="0"/>
        <pt x="393" y="477" on="0"/>
        <pt x="388" y="482" on="1"/>
        <pt x="353" y="523" on="0"/>
        <pt x="293" y="533" on="1"/>
        <pt x="293" y="340" on="1"/>
        <pt x="336" y="326" on="0"/>
        <pt x="399" y="296" on="0"/>
        <pt x="440" y="259" on="0"/>
        <pt x="460" y="212" on="0"/>
        <pt x="460" y="181" on="1"/>
        <pt x="460" y="152" on="0"/>
        <pt x="437" y="98" on="0"/>
        <pt x="394" y="53" on="0"/>
        <pt x="332" y="21" on="0"/>
        <pt x="293" y="16" on="1"/>
        <pt x="293" y="-47" on="1"/>
        <pt x="235" y="-47" on="1"/>
        <pt x="235" y="14" on="1"/>
        <pt x="127" y="22" on="0"/>
        <pt x="60" y="94" on="1"/>
        <pt x="103" y="154" on="1"/>
        <pt x="107" y="151" on="0"/>
        <pt x="107" y="137" on="0"/>
        <pt x="110" y="133" on="1"/>
        <pt x="160" y="79" on="0"/>
        <pt x="235" y="72" on="1"/>
        <pt x="235" y="292" on="1"/>
        <pt x="157" y="318" on="0"/>
        <pt x="79" y="391" on="0"/>
        <pt x="79" y="446" on="1"/>
        <pt x="79" y="473" on="0"/>
        <pt x="102" y="522" on="0"/>
        <pt x="143" y="560" on="0"/>
        <pt x="200" y="586" on="0"/>
        <pt x="235" y="591" on="1"/>
      </contour>
      <contour>
        <pt x="293" y="273" on="1"/>
        <pt x="293" y="74" on="1"/>
        <pt x="341" y="83" on="0"/>
        <pt x="395" y="142" on="0"/>
        <pt x="395" y="177" on="1"/>
        <pt x="395" y="213" on="0"/>
        <pt x="347" y="256" on="0"/>
      </contour>
      <contour>
        <pt x="235" y="361" on="1"/>
        <pt x="235" y="534" on="1"/>
        <pt x="190" y="529" on="0"/>
        <pt x="145" y="483" on="0"/>
        <pt x="145" y="454" on="1"/>
        <pt x="145" y="397" on="0"/>
      </contour>
    </TTGlyph>
    <TTGlyph name="dotaccent" xMin="203" yMin="553" xMax="306" yMax="656">
      <contour>
        <pt x="218" y="641" on="1"/>
        <pt x="233" y="656" on="0"/>
        <pt x="254" y="656" on="1"/>
        <pt x="275" y="656" on="0"/>
        <pt x="306" y="625" on="0"/>
        <pt x="306" y="604" on="1"/>
        <pt x="306" y="583" on="0"/>
        <pt x="275" y="553" on="0"/>
        <pt x="254" y="553" on="1"/>
        <pt x="233" y="553" on="0"/>
        <pt x="203" y="583" on="0"/>
        <pt x="203" y="604" on="1"/>
        <pt x="203" y="626" on="0"/>
      </contour>
    </TTGlyph>
    <TTGlyph name="dotaccent.cap" xMin="186" yMin="689" xMax="289" yMax="791">
      <contour>
        <pt x="201" y="776" on="1"/>
        <pt x="216" y="791" on="0"/>
        <pt x="237" y="791" on="1"/>
        <pt x="258" y="791" on="0"/>
        <pt x="289" y="761" on="0"/>
        <pt x="289" y="740" on="1"/>
        <pt x="289" y="719" on="0"/>
        <pt x="258" y="689" on="0"/>
        <pt x="237" y="689" on="1"/>
        <pt x="217" y="689" on="0"/>
        <pt x="186" y="719" on="0"/>
        <pt x="186" y="740" on="1"/>
        <pt x="186" y="761" on="0"/>
      </contour>
    </TTGlyph>
    <TTGlyph name="dotlessi" xMin="100" yMin="0" xMax="396" yMax="457">
      <contour>
        <pt x="106" y="457" on="1"/>
        <pt x="289" y="457" on="1"/>
        <pt x="289" y="58" on="1"/>
        <pt x="396" y="58" on="1"/>
        <pt x="396" y="0" on="1"/>
        <pt x="100" y="0" on="1"/>
        <pt x="100" y="58" on="1"/>
        <pt x="217" y="58" on="1"/>
        <pt x="217" y="399" on="1"/>
        <pt x="106" y="399" on="1"/>
      </contour>
    </TTGlyph>
    <TTGlyph name="dotlessj" xMin="48" yMin="-174" xMax="369" yMax="457">
      <contour>
        <pt x="126" y="457" on="1"/>
        <pt x="369" y="457" on="1"/>
        <pt x="369" y="22" on="1"/>
        <pt x="369" y="-30" on="0"/>
        <pt x="341" y="-103" on="0"/>
        <pt x="292" y="-149" on="0"/>
        <pt x="226" y="-172" on="0"/>
        <pt x="188" y="-174" on="1"/>
        <pt x="100" y="-174" on="0"/>
        <pt x="48" y="-110" on="1"/>
        <pt x="95" y="-48" on="1"/>
        <pt x="100" y="-53" on="0"/>
        <pt x="101" y="-63" on="0"/>
        <pt x="107" y="-75" on="0"/>
        <pt x="125" y="-90" on="0"/>
        <pt x="146" y="-101" on="1"/>
        <pt x="168" y="-112" on="0"/>
        <pt x="193" y="-112" on="1"/>
        <pt x="238" y="-112" on="0"/>
        <pt x="296" y="-51" on="0"/>
        <pt x="296" y="18" on="1"/>
        <pt x="296" y="398" on="1"/>
        <pt x="126" y="398" on="1"/>
      </contour>
    </TTGlyph>
    <TTGlyph name="downarrow" xMin="59" yMin="-34" xMax="441" yMax="640">
      <contour>
        <pt x="441" y="203" on="1"/>
        <pt x="254" y="-34" on="1"/>
        <pt x="232" y="-34" on="1"/>
        <pt x="59" y="205" on="1"/>
        <pt x="109" y="238" on="1"/>
        <pt x="215" y="94" on="1"/>
        <pt x="215" y="640" on="1"/>
        <pt x="281" y="640" on="1"/>
        <pt x="281" y="94" on="1"/>
        <pt x="398" y="238" on="1"/>
      </contour>
    </TTGlyph>
    <TTGlyph name="e" xMin="49" yMin="-10" xMax="445" yMax="468">
      <contour>
        <pt x="259" y="468" on="1"/>
        <pt x="295" y="468" on="0"/>
        <pt x="363" y="442" on="0"/>
        <pt x="414" y="389" on="0"/>
        <pt x="445" y="307" on="0"/>
        <pt x="445" y="251" on="1"/>
        <pt x="445" y="243" on="0"/>
        <pt x="444" y="226" on="0"/>
        <pt x="443" y="218" on="1"/>
        <pt x="118" y="218" on="1"/>
        <pt x="120" y="170" on="0"/>
        <pt x="149" y="105" on="0"/>
        <pt x="193" y="65" on="0"/>
        <pt x="247" y="48" on="0"/>
        <pt x="274" y="48" on="1"/>
        <pt x="345" y="48" on="0"/>
        <pt x="392" y="99" on="1"/>
        <pt x="432" y="60" on="1"/>
        <pt x="374" y="-10" on="0"/>
        <pt x="272" y="-10" on="1"/>
        <pt x="222" y="-10" on="0"/>
        <pt x="139" y="21" on="0"/>
        <pt x="81" y="81" on="0"/>
        <pt x="49" y="170" on="0"/>
        <pt x="49" y="227" on="1"/>
        <pt x="49" y="285" on="0"/>
        <pt x="82" y="375" on="0"/>
        <pt x="139" y="436" on="0"/>
        <pt x="215" y="468" on="0"/>
      </contour>
      <contour>
        <pt x="121" y="274" on="1"/>
        <pt x="372" y="274" on="1"/>
        <pt x="372" y="278" on="0"/>
        <pt x="373" y="285" on="0"/>
        <pt x="373" y="290" on="1"/>
        <pt x="373" y="315" on="0"/>
        <pt x="354" y="360" on="0"/>
        <pt x="322" y="393" on="0"/>
        <pt x="279" y="413" on="0"/>
        <pt x="254" y="413" on="1"/>
        <pt x="207" y="413" on="0"/>
        <pt x="131" y="346" on="0"/>
      </contour>
    </TTGlyph>
    <TTGlyph name="eacute" xMin="49" yMin="-10" xMax="445" yMax="699">
      <component glyphName="e" x="0" y="0" flags="0x204"/>
      <component glyphName="acute" x="0" y="0" flags="0x4"/>
    </TTGlyph>
    <TTGlyph name="ecaron" xMin="49" yMin="-10" xMax="445" yMax="694">
      <component glyphName="e" x="0" y="0" flags="0x204"/>
      <component glyphName="caron" x="0" y="0" flags="0x4"/>
    </TTGlyph>
    <TTGlyph name="ecircumflex" xMin="49" yMin="-10" xMax="445" yMax="685">
      <component glyphName="e" x="0" y="0" flags="0x204"/>
      <component glyphName="circumflex" x="0" y="0" flags="0x4"/>
    </TTGlyph>
    <TTGlyph name="edieresis" xMin="49" yMin="-10" xMax="445" yMax="665">
      <component glyphName="e" x="0" y="0" flags="0x204"/>
      <component glyphName="dieresis" x="1" y="0" flags="0x4"/>
    </TTGlyph>
    <TTGlyph name="egrave" xMin="49" yMin="-10" xMax="445" yMax="699">
      <component glyphName="e" x="0" y="0" flags="0x204"/>
      <component glyphName="uni02CB" x="0" y="0" flags="0x4"/>
    </TTGlyph>
    <TTGlyph name="eight" xMin="60" yMin="-10" xMax="441" yMax="631">
      <contour>
        <pt x="420" y="483" on="1"/>
        <pt x="420" y="438" on="0"/>
        <pt x="366" y="357" on="0"/>
        <pt x="321" y="333" on="1"/>
        <pt x="375" y="308" on="0"/>
        <pt x="441" y="215" on="0"/>
        <pt x="441" y="161" on="1"/>
        <pt x="441" y="125" on="0"/>
        <pt x="411" y="62" on="0"/>
        <pt x="360" y="16" on="0"/>
        <pt x="290" y="-10" on="0"/>
        <pt x="250" y="-10" on="1"/>
        <pt x="210" y="-10" on="0"/>
        <pt x="140" y="16" on="0"/>
        <pt x="89" y="61" on="0"/>
        <pt x="60" y="122" on="0"/>
        <pt x="60" y="157" on="1"/>
        <pt x="60" y="211" on="0"/>
        <pt x="128" y="305" on="0"/>
        <pt x="185" y="331" on="1"/>
        <pt x="142" y="353" on="0"/>
        <pt x="90" y="432" on="0"/>
        <pt x="90" y="477" on="1"/>
        <pt x="90" y="509" on="0"/>
        <pt x="116" y="565" on="0"/>
        <pt x="162" y="607" on="0"/>
        <pt x="222" y="631" on="0"/>
        <pt x="257" y="631" on="1"/>
        <pt x="292" y="631" on="0"/>
        <pt x="352" y="608" on="0"/>
        <pt x="395" y="567" on="0"/>
        <pt x="420" y="513" on="0"/>
      </contour>
      <contour>
        <pt x="237" y="303" on="1"/>
        <pt x="192" y="284" on="0"/>
        <pt x="132" y="209" on="0"/>
        <pt x="132" y="164" on="1"/>
        <pt x="132" y="141" on="0"/>
        <pt x="151" y="101" on="0"/>
        <pt x="184" y="71" on="0"/>
        <pt x="227" y="53" on="0"/>
        <pt x="252" y="53" on="1"/>
        <pt x="277" y="53" on="0"/>
        <pt x="320" y="70" on="0"/>
        <pt x="352" y="99" on="0"/>
        <pt x="370" y="138" on="0"/>
        <pt x="370" y="161" on="1"/>
        <pt x="370" y="207" on="0"/>
        <pt x="298" y="284" on="0"/>
      </contour>
      <contour>
        <pt x="174" y="429" on="1"/>
        <pt x="186" y="409" on="0"/>
        <pt x="225" y="380" on="0"/>
        <pt x="250" y="367" on="1"/>
        <pt x="267" y="358" on="1"/>
        <pt x="304" y="378" on="0"/>
        <pt x="352" y="446" on="0"/>
        <pt x="352" y="481" on="1"/>
        <pt x="352" y="499" on="0"/>
        <pt x="337" y="531" on="0"/>
        <pt x="310" y="557" on="0"/>
        <pt x="274" y="572" on="0"/>
        <pt x="253" y="572" on="1"/>
        <pt x="232" y="572" on="0"/>
        <pt x="197" y="557" on="0"/>
        <pt x="171" y="533" on="0"/>
        <pt x="157" y="501" on="0"/>
        <pt x="157" y="484" on="1"/>
        <pt x="157" y="454" on="0"/>
      </contour>
    </TTGlyph>
    <TTGlyph name="ellipsis" xMin="7" yMin="-11" xMax="470" yMax="104">
      <contour>
        <pt x="453" y="87" on="1"/>
        <pt x="470" y="68" on="0"/>
        <pt x="470" y="46" on="1"/>
        <pt x="470" y="23" on="0"/>
        <pt x="436" y="-11" on="0"/>
        <pt x="411" y="-11" on="1"/>
        <pt x="386" y="-11" on="0"/>
        <pt x="352" y="22" on="0"/>
        <pt x="352" y="46" on="1"/>
        <pt x="352" y="70" on="0"/>
        <pt x="388" y="104" on="0"/>
        <pt x="411" y="104" on="1"/>
        <pt x="434" y="104" on="0"/>
      </contour>
      <contour>
        <pt x="108" y="87" on="1"/>
        <pt x="125" y="68" on="0"/>
        <pt x="125" y="46" on="1"/>
        <pt x="125" y="23" on="0"/>
        <pt x="91" y="-11" on="0"/>
        <pt x="66" y="-11" on="1"/>
        <pt x="40" y="-11" on="0"/>
        <pt x="7" y="23" on="0"/>
        <pt x="7" y="46" on="1"/>
        <pt x="7" y="69" on="0"/>
        <pt x="42" y="104" on="0"/>
        <pt x="66" y="104" on="1"/>
        <pt x="89" y="104" on="0"/>
      </contour>
      <contour>
        <pt x="280" y="87" on="1"/>
        <pt x="298" y="69" on="0"/>
        <pt x="298" y="46" on="1"/>
        <pt x="298" y="23" on="0"/>
        <pt x="263" y="-11" on="0"/>
        <pt x="238" y="-11" on="1"/>
        <pt x="213" y="-11" on="0"/>
        <pt x="179" y="22" on="0"/>
        <pt x="179" y="46" on="1"/>
        <pt x="179" y="70" on="0"/>
        <pt x="215" y="104" on="0"/>
        <pt x="238" y="104" on="1"/>
        <pt x="261" y="104" on="0"/>
      </contour>
    </TTGlyph>
    <TTGlyph name="eng" xMin="68" yMin="-176" xMax="432" yMax="468">
      <contour>
        <pt x="68" y="0" on="1"/>
        <pt x="68" y="457" on="1"/>
        <pt x="142" y="457" on="1"/>
        <pt x="142" y="376" on="1"/>
        <pt x="168" y="418" on="0"/>
        <pt x="249" y="468" on="0"/>
        <pt x="291" y="468" on="1"/>
        <pt x="321" y="468" on="0"/>
        <pt x="373" y="447" on="0"/>
        <pt x="411" y="401" on="0"/>
        <pt x="432" y="329" on="0"/>
        <pt x="432" y="277" on="1"/>
        <pt x="432" y="56" on="1"/>
        <pt x="432" y="-66" on="0"/>
        <pt x="335" y="-176" on="0"/>
        <pt x="262" y="-176" on="1"/>
        <pt x="236" y="-176" on="0"/>
        <pt x="187" y="-159" on="0"/>
        <pt x="165" y="-142" on="1"/>
        <pt x="199" y="-75" on="1"/>
        <pt x="203" y="-76" on="0"/>
        <pt x="207" y="-87" on="0"/>
        <pt x="218" y="-98" on="0"/>
        <pt x="245" y="-109" on="0"/>
        <pt x="264" y="-109" on="1"/>
        <pt x="361" y="-109" on="0"/>
        <pt x="361" y="45" on="1"/>
        <pt x="361" y="275" on="1"/>
        <pt x="361" y="347" on="0"/>
        <pt x="312" y="405" on="0"/>
        <pt x="277" y="405" on="1"/>
        <pt x="254" y="405" on="0"/>
        <pt x="206" y="385" on="0"/>
        <pt x="165" y="348" on="0"/>
        <pt x="142" y="296" on="0"/>
        <pt x="142" y="263" on="1"/>
        <pt x="142" y="0" on="1"/>
      </contour>
    </TTGlyph>
    <TTGlyph name="eogonek" xMin="49" yMin="-175" xMax="445" yMax="468">
      <contour>
        <pt x="259" y="468" on="1"/>
        <pt x="295" y="468" on="0"/>
        <pt x="363" y="442" on="0"/>
        <pt x="414" y="389" on="0"/>
        <pt x="445" y="307" on="0"/>
        <pt x="445" y="251" on="1"/>
        <pt x="445" y="243" on="0"/>
        <pt x="444" y="226" on="0"/>
        <pt x="443" y="218" on="1"/>
        <pt x="118" y="218" on="1"/>
        <pt x="120" y="170" on="0"/>
        <pt x="149" y="105" on="0"/>
        <pt x="193" y="65" on="0"/>
        <pt x="247" y="48" on="0"/>
        <pt x="274" y="48" on="1"/>
        <pt x="345" y="48" on="0"/>
        <pt x="392" y="99" on="1"/>
        <pt x="432" y="60" on="1"/>
        <pt x="376" y="-8" on="1"/>
        <pt x="360" y="-27" on="0"/>
        <pt x="343" y="-53" on="0"/>
        <pt x="335" y="-71" on="0"/>
        <pt x="334" y="-85" on="0"/>
        <pt x="334" y="-92" on="1"/>
        <pt x="334" y="-106" on="0"/>
        <pt x="353" y="-126" on="0"/>
        <pt x="372" y="-126" on="1"/>
        <pt x="383" y="-126" on="0"/>
        <pt x="408" y="-118" on="0"/>
        <pt x="424" y="-108" on="1"/>
        <pt x="423" y="-157" on="1"/>
        <pt x="408" y="-167" on="0"/>
        <pt x="376" y="-175" on="0"/>
        <pt x="360" y="-175" on="1"/>
        <pt x="323" y="-175" on="0"/>
        <pt x="274" y="-135" on="0"/>
        <pt x="274" y="-101" on="1"/>
        <pt x="274" y="-54" on="0"/>
        <pt x="330" y="-1" on="1"/>
        <pt x="295" y="-10" on="0"/>
        <pt x="261" y="-10" on="1"/>
        <pt x="215" y="-10" on="0"/>
        <pt x="138" y="22" on="0"/>
        <pt x="81" y="84" on="0"/>
        <pt x="49" y="172" on="0"/>
        <pt x="49" y="229" on="1"/>
        <pt x="49" y="285" on="0"/>
        <pt x="81" y="374" on="0"/>
        <pt x="139" y="435" on="0"/>
        <pt x="215" y="468" on="0"/>
      </contour>
      <contour>
        <pt x="121" y="274" on="1"/>
        <pt x="372" y="274" on="1"/>
        <pt x="372" y="278" on="0"/>
        <pt x="373" y="285" on="0"/>
        <pt x="373" y="290" on="1"/>
        <pt x="373" y="315" on="0"/>
        <pt x="354" y="360" on="0"/>
        <pt x="322" y="393" on="0"/>
        <pt x="279" y="413" on="0"/>
        <pt x="254" y="413" on="1"/>
        <pt x="207" y="413" on="0"/>
        <pt x="131" y="346" on="0"/>
      </contour>
    </TTGlyph>
    <TTGlyph name="equal" xMin="45" yMin="170" xMax="456" yMax="438">
      <contour>
        <pt x="45" y="438" on="1"/>
        <pt x="456" y="438" on="1"/>
        <pt x="456" y="377" on="1"/>
        <pt x="45" y="377" on="1"/>
      </contour>
      <contour>
        <pt x="45" y="231" on="1"/>
        <pt x="456" y="231" on="1"/>
        <pt x="456" y="170" on="1"/>
        <pt x="45" y="170" on="1"/>
      </contour>
    </TTGlyph>
    <TTGlyph name="eth" xMin="40" yMin="-12" xMax="460" yMax="672">
      <contour>
        <pt x="256" y="50" on="1"/>
        <pt x="281" y="50" on="0"/>
        <pt x="328" y="71" on="0"/>
        <pt x="365" y="116" on="0"/>
        <pt x="387" y="184" on="0"/>
        <pt x="387" y="232" on="1"/>
        <pt x="387" y="280" on="0"/>
        <pt x="363" y="347" on="0"/>
        <pt x="324" y="388" on="0"/>
        <pt x="277" y="406" on="0"/>
        <pt x="253" y="406" on="1"/>
        <pt x="229" y="406" on="0"/>
        <pt x="180" y="384" on="0"/>
        <pt x="141" y="340" on="0"/>
        <pt x="117" y="275" on="0"/>
        <pt x="117" y="232" on="1"/>
        <pt x="117" y="191" on="0"/>
        <pt x="139" y="124" on="0"/>
        <pt x="176" y="76" on="0"/>
        <pt x="227" y="50" on="0"/>
      </contour>
      <contour>
        <pt x="347" y="570" on="1"/>
        <pt x="460" y="442" on="0"/>
        <pt x="460" y="253" on="1"/>
        <pt x="460" y="193" on="0"/>
        <pt x="433" y="95" on="0"/>
        <pt x="382" y="26" on="0"/>
        <pt x="305" y="-12" on="0"/>
        <pt x="256" y="-12" on="1"/>
        <pt x="212" y="-12" on="0"/>
        <pt x="134" y="23" on="0"/>
        <pt x="75" y="86" on="0"/>
        <pt x="40" y="172" on="0"/>
        <pt x="40" y="223" on="1"/>
        <pt x="40" y="273" on="0"/>
        <pt x="74" y="362" on="0"/>
        <pt x="131" y="428" on="0"/>
        <pt x="204" y="467" on="0"/>
        <pt x="242" y="467" on="1"/>
        <pt x="320" y="467" on="0"/>
        <pt x="369" y="415" on="1"/>
        <pt x="353" y="453" on="0"/>
        <pt x="311" y="522" on="0"/>
        <pt x="283" y="552" on="1"/>
        <pt x="155" y="516" on="1"/>
        <pt x="137" y="564" on="1"/>
        <pt x="241" y="592" on="1"/>
        <pt x="196" y="630" on="0"/>
        <pt x="139" y="656" on="1"/>
        <pt x="220" y="672" on="1"/>
        <pt x="265" y="647" on="0"/>
        <pt x="307" y="610" on="1"/>
        <pt x="415" y="639" on="1"/>
        <pt x="432" y="595" on="1"/>
      </contour>
    </TTGlyph>
    <TTGlyph name="exclam" xMin="180" yMin="-11" xMax="299" yMax="668">
      <contour>
        <pt x="281" y="89" on="1"/>
        <pt x="299" y="71" on="0"/>
        <pt x="299" y="47" on="1"/>
        <pt x="299" y="24" on="0"/>
        <pt x="263" y="-11" on="0"/>
        <pt x="239" y="-11" on="1"/>
        <pt x="215" y="-11" on="0"/>
        <pt x="180" y="23" on="0"/>
        <pt x="180" y="47" on="1"/>
        <pt x="180" y="71" on="0"/>
        <pt x="215" y="107" on="0"/>
        <pt x="239" y="107" on="1"/>
        <pt x="263" y="107" on="0"/>
      </contour>
      <contour>
        <pt x="241" y="668" on="1"/>
        <pt x="264" y="668" on="0"/>
        <pt x="292" y="629" on="0"/>
        <pt x="292" y="584" on="1"/>
        <pt x="292" y="573" on="0"/>
        <pt x="290" y="542" on="0"/>
        <pt x="288" y="522" on="1"/>
        <pt x="283" y="470" on="1"/>
        <pt x="265" y="194" on="1"/>
        <pt x="215" y="194" on="1"/>
        <pt x="200" y="470" on="1"/>
        <pt x="199" y="486" on="0"/>
        <pt x="196" y="521" on="0"/>
        <pt x="193" y="554" on="0"/>
        <pt x="190" y="584" on="0"/>
        <pt x="190" y="594" on="1"/>
        <pt x="190" y="629" on="0"/>
        <pt x="217" y="668" on="0"/>
      </contour>
    </TTGlyph>
    <TTGlyph name="exclamdown" xMin="180" yMin="-11" xMax="299" yMax="668">
      <contour>
        <pt x="197" y="567" on="1"/>
        <pt x="180" y="583" on="0"/>
        <pt x="180" y="608" on="1"/>
        <pt x="180" y="632" on="0"/>
        <pt x="216" y="668" on="0"/>
        <pt x="239" y="668" on="1"/>
        <pt x="262" y="668" on="0"/>
        <pt x="299" y="632" on="0"/>
        <pt x="299" y="608" on="1"/>
        <pt x="299" y="585" on="0"/>
        <pt x="263" y="550" on="0"/>
        <pt x="239" y="550" on="1"/>
        <pt x="214" y="550" on="0"/>
      </contour>
      <contour>
        <pt x="238" y="-11" on="1"/>
        <pt x="215" y="-11" on="0"/>
        <pt x="187" y="29" on="0"/>
        <pt x="187" y="72" on="1"/>
        <pt x="187" y="83" on="0"/>
        <pt x="189" y="114" on="0"/>
        <pt x="191" y="134" on="1"/>
        <pt x="196" y="186" on="1"/>
        <pt x="214" y="463" on="1"/>
        <pt x="264" y="463" on="1"/>
        <pt x="279" y="186" on="1"/>
        <pt x="280" y="171" on="0"/>
        <pt x="283" y="137" on="0"/>
        <pt x="286" y="102" on="0"/>
        <pt x="289" y="71" on="0"/>
        <pt x="289" y="61" on="1"/>
        <pt x="289" y="26" on="0"/>
        <pt x="261" y="-11" on="0"/>
      </contour>
    </TTGlyph>
    <TTGlyph name="f" xMin="63" yMin="0" xMax="483" yMax="671">
      <contour>
        <pt x="343" y="671" on="1"/>
        <pt x="430" y="671" on="0"/>
        <pt x="483" y="608" on="1"/>
        <pt x="450" y="542" on="1"/>
        <pt x="442" y="542" on="0"/>
        <pt x="442" y="558" on="0"/>
        <pt x="440" y="562" on="1"/>
        <pt x="424" y="585" on="0"/>
        <pt x="371" y="614" on="0"/>
        <pt x="340" y="614" on="1"/>
        <pt x="314" y="614" on="0"/>
        <pt x="276" y="599" on="0"/>
        <pt x="246" y="565" on="0"/>
        <pt x="231" y="507" on="0"/>
        <pt x="231" y="465" on="1"/>
        <pt x="231" y="430" on="1"/>
        <pt x="381" y="430" on="1"/>
        <pt x="381" y="373" on="1"/>
        <pt x="231" y="373" on="1"/>
        <pt x="231" y="0" on="1"/>
        <pt x="162" y="0" on="1"/>
        <pt x="162" y="373" on="1"/>
        <pt x="63" y="373" on="1"/>
        <pt x="63" y="430" on="1"/>
        <pt x="162" y="430" on="1"/>
        <pt x="162" y="475" on="1"/>
        <pt x="162" y="528" on="0"/>
        <pt x="189" y="603" on="0"/>
        <pt x="240" y="649" on="0"/>
        <pt x="305" y="671" on="0"/>
      </contour>
    </TTGlyph>
    <TTGlyph name="five" xMin="64" yMin="-11" xMax="445" yMax="623">
      <contour>
        <pt x="106" y="623" on="1"/>
        <pt x="422" y="623" on="1"/>
        <pt x="422" y="560" on="1"/>
        <pt x="165" y="560" on="1"/>
        <pt x="155" y="381" on="1"/>
        <pt x="204" y="405" on="0"/>
        <pt x="257" y="405" on="1"/>
        <pt x="297" y="405" on="0"/>
        <pt x="366" y="376" on="0"/>
        <pt x="417" y="321" on="0"/>
        <pt x="445" y="244" on="0"/>
        <pt x="445" y="196" on="1"/>
        <pt x="445" y="148" on="0"/>
        <pt x="415" y="71" on="0"/>
        <pt x="362" y="17" on="0"/>
        <pt x="291" y="-11" on="0"/>
        <pt x="249" y="-11" on="1"/>
        <pt x="192" y="-11" on="0"/>
        <pt x="95" y="39" on="0"/>
        <pt x="64" y="85" on="1"/>
        <pt x="126" y="131" on="1"/>
        <pt x="131" y="128" on="0"/>
        <pt x="132" y="110" on="0"/>
        <pt x="133" y="108" on="1"/>
        <pt x="137" y="101" on="0"/>
        <pt x="157" y="81" on="0"/>
        <pt x="188" y="63" on="0"/>
        <pt x="229" y="50" on="0"/>
        <pt x="253" y="50" on="1"/>
        <pt x="277" y="50" on="0"/>
        <pt x="321" y="71" on="0"/>
        <pt x="354" y="109" on="0"/>
        <pt x="374" y="164" on="0"/>
        <pt x="374" y="199" on="1"/>
        <pt x="374" y="234" on="0"/>
        <pt x="354" y="289" on="0"/>
        <pt x="319" y="327" on="0"/>
        <pt x="273" y="347" on="0"/>
        <pt x="246" y="347" on="1"/>
        <pt x="214" y="347" on="0"/>
        <pt x="152" y="316" on="0"/>
        <pt x="129" y="288" on="1"/>
        <pt x="85" y="306" on="1"/>
      </contour>
    </TTGlyph>
    <TTGlyph name="florin" xMin="18" yMin="-175" xMax="480" yMax="673">
      <contour>
        <pt x="480" y="620" on="1"/>
        <pt x="447" y="554" on="1"/>
        <pt x="439" y="554" on="0"/>
        <pt x="438" y="564" on="1"/>
        <pt x="434" y="587" on="0"/>
        <pt x="392" y="616" on="0"/>
        <pt x="369" y="616" on="1"/>
        <pt x="350" y="616" on="0"/>
        <pt x="321" y="603" on="0"/>
        <pt x="299" y="570" on="0"/>
        <pt x="284" y="511" on="0"/>
        <pt x="281" y="465" on="1"/>
        <pt x="275" y="383" on="1"/>
        <pt x="398" y="383" on="1"/>
        <pt x="398" y="326" on="1"/>
        <pt x="270" y="326" on="1"/>
        <pt x="246" y="24" on="1"/>
        <pt x="241" y="-31" on="0"/>
        <pt x="215" y="-107" on="0"/>
        <pt x="177" y="-154" on="0"/>
        <pt x="128" y="-175" on="0"/>
        <pt x="100" y="-175" on="1"/>
        <pt x="51" y="-175" on="0"/>
        <pt x="18" y="-140" on="1"/>
        <pt x="59" y="-76" on="1"/>
        <pt x="62" y="-77" on="0"/>
        <pt x="69" y="-87" on="0"/>
        <pt x="78" y="-99" on="0"/>
        <pt x="96" y="-108" on="0"/>
        <pt x="109" y="-108" on="1"/>
        <pt x="137" y="-108" on="0"/>
        <pt x="174" y="-40" on="0"/>
        <pt x="179" y="27" on="1"/>
        <pt x="201" y="326" on="1"/>
        <pt x="80" y="326" on="1"/>
        <pt x="80" y="383" on="1"/>
        <pt x="205" y="383" on="1"/>
        <pt x="212" y="475" on="1"/>
        <pt x="220" y="578" on="0"/>
        <pt x="302" y="673" on="0"/>
        <pt x="368" y="673" on="1"/>
        <pt x="436" y="673" on="0"/>
      </contour>
    </TTGlyph>
    <TTGlyph name="four" xMin="48" yMin="0" xMax="452" yMax="624">
      <contour>
        <pt x="313" y="624" on="1"/>
        <pt x="372" y="624" on="1"/>
        <pt x="372" y="234" on="1"/>
        <pt x="452" y="234" on="1"/>
        <pt x="452" y="172" on="1"/>
        <pt x="372" y="172" on="1"/>
        <pt x="372" y="0" on="1"/>
        <pt x="299" y="0" on="1"/>
        <pt x="299" y="173" on="1"/>
        <pt x="48" y="173" on="1"/>
        <pt x="48" y="224" on="1"/>
      </contour>
      <contour>
        <pt x="300" y="513" on="1"/>
        <pt x="117" y="234" on="1"/>
        <pt x="300" y="234" on="1"/>
      </contour>
    </TTGlyph>
    <TTGlyph name="fraction" xMin="76" yMin="-42" xMax="437" yMax="665">
      <contour>
        <pt x="76" y="-16" on="1"/>
        <pt x="389" y="665" on="1"/>
        <pt x="437" y="638" on="1"/>
        <pt x="123" y="-42" on="1"/>
      </contour>
    </TTGlyph>
    <TTGlyph name="g" xMin="38" yMin="-172" xMax="475" yMax="472">
      <contour>
        <pt x="155" y="385" on="1"/>
        <pt x="140" y="370" on="0"/>
        <pt x="126" y="334" on="0"/>
        <pt x="126" y="314" on="1"/>
        <pt x="126" y="294" on="0"/>
        <pt x="142" y="257" on="0"/>
        <pt x="169" y="230" on="0"/>
        <pt x="206" y="214" on="0"/>
        <pt x="226" y="214" on="1"/>
        <pt x="247" y="214" on="0"/>
        <pt x="283" y="230" on="0"/>
        <pt x="311" y="258" on="0"/>
        <pt x="327" y="294" on="0"/>
        <pt x="327" y="314" on="1"/>
        <pt x="327" y="334" on="0"/>
        <pt x="311" y="371" on="0"/>
        <pt x="283" y="399" on="0"/>
        <pt x="246" y="415" on="0"/>
        <pt x="226" y="415" on="1"/>
        <pt x="185" y="415" on="0"/>
      </contour>
      <contour>
        <pt x="339" y="428" on="1"/>
        <pt x="387" y="469" on="0"/>
        <pt x="453" y="469" on="1"/>
        <pt x="466" y="469" on="1"/>
        <pt x="475" y="410" on="1"/>
        <pt x="468" y="411" on="0"/>
        <pt x="455" y="412" on="0"/>
        <pt x="448" y="412" on="1"/>
        <pt x="404" y="412" on="0"/>
        <pt x="369" y="390" on="1"/>
        <pt x="392" y="355" on="0"/>
        <pt x="392" y="313" on="1"/>
        <pt x="392" y="281" on="0"/>
        <pt x="366" y="224" on="0"/>
        <pt x="321" y="181" on="0"/>
        <pt x="261" y="156" on="0"/>
        <pt x="227" y="156" on="1"/>
        <pt x="199" y="156" on="0"/>
        <pt x="169" y="167" on="1"/>
        <pt x="137" y="136" on="0"/>
        <pt x="137" y="115" on="1"/>
        <pt x="137" y="98" on="0"/>
        <pt x="176" y="79" on="0"/>
        <pt x="210" y="79" on="1"/>
        <pt x="229" y="79" on="0"/>
        <pt x="268" y="82" on="0"/>
        <pt x="285" y="82" on="1"/>
        <pt x="330" y="82" on="0"/>
        <pt x="395" y="65" on="0"/>
        <pt x="435" y="34" on="0"/>
        <pt x="455" y="-8" on="0"/>
        <pt x="455" y="-32" on="1"/>
        <pt x="455" y="-59" on="0"/>
        <pt x="429" y="-110" on="0"/>
        <pt x="377" y="-149" on="0"/>
        <pt x="298" y="-172" on="0"/>
        <pt x="245" y="-172" on="1"/>
        <pt x="190" y="-172" on="0"/>
        <pt x="111" y="-155" on="0"/>
        <pt x="63" y="-125" on="0"/>
        <pt x="38" y="-86" on="0"/>
        <pt x="38" y="-64" on="1"/>
        <pt x="38" y="-10" on="0"/>
        <pt x="113" y="37" on="1"/>
        <pt x="76" y="56" on="0"/>
        <pt x="76" y="100" on="1"/>
        <pt x="76" y="143" on="0"/>
        <pt x="128" y="186" on="1"/>
        <pt x="96" y="207" on="0"/>
        <pt x="60" y="273" on="0"/>
        <pt x="60" y="310" on="1"/>
        <pt x="60" y="344" on="0"/>
        <pt x="88" y="403" on="0"/>
        <pt x="135" y="447" on="0"/>
        <pt x="196" y="472" on="0"/>
        <pt x="228" y="472" on="1"/>
        <pt x="295" y="472" on="0"/>
      </contour>
      <contour>
        <pt x="161" y="24" on="1"/>
        <pt x="104" y="-8" on="0"/>
        <pt x="104" y="-46" on="1"/>
        <pt x="104" y="-66" on="0"/>
        <pt x="127" y="-93" on="0"/>
        <pt x="166" y="-110" on="0"/>
        <pt x="219" y="-118" on="0"/>
        <pt x="248" y="-118" on="1"/>
        <pt x="309" y="-118" on="0"/>
        <pt x="389" y="-74" on="0"/>
        <pt x="389" y="-37" on="1"/>
        <pt x="387" y="-10" on="0"/>
        <pt x="346" y="20" on="0"/>
        <pt x="302" y="20" on="1"/>
        <pt x="297" y="20" on="0"/>
        <pt x="287" y="19" on="0"/>
        <pt x="282" y="19" on="1"/>
        <pt x="244" y="19" on="0"/>
        <pt x="184" y="22" on="0"/>
      </contour>
    </TTGlyph>
    <TTGlyph name="gbreve" xMin="38" yMin="-172" xMax="475" yMax="646">
      <component glyphName="g" x="0" y="0" flags="0x204"/>
      <component glyphName="breve" x="9" y="0" flags="0x4"/>
    </TTGlyph>
    <TTGlyph name="germandbls" xMin="55" yMin="-10" xMax="464" yMax="669">
      <contour>
        <pt x="55" y="0" on="1"/>
        <pt x="55" y="423" on="1"/>
        <pt x="55" y="547" on="0"/>
        <pt x="155" y="669" on="0"/>
        <pt x="239" y="669" on="1"/>
        <pt x="276" y="669" on="0"/>
        <pt x="342" y="640" on="0"/>
        <pt x="391" y="592" on="0"/>
        <pt x="420" y="528" on="0"/>
        <pt x="420" y="493" on="1"/>
        <pt x="420" y="450" on="0"/>
        <pt x="378" y="378" on="0"/>
        <pt x="341" y="359" on="1"/>
        <pt x="369" y="350" on="0"/>
        <pt x="415" y="316" on="0"/>
        <pt x="447" y="269" on="0"/>
        <pt x="464" y="212" on="0"/>
        <pt x="464" y="181" on="1"/>
        <pt x="464" y="140" on="0"/>
        <pt x="436" y="71" on="0"/>
        <pt x="386" y="19" on="0"/>
        <pt x="320" y="-10" on="0"/>
        <pt x="281" y="-10" on="1"/>
        <pt x="223" y="-10" on="0"/>
        <pt x="177" y="21" on="1"/>
        <pt x="212" y="77" on="1"/>
        <pt x="242" y="53" on="0"/>
        <pt x="285" y="53" on="1"/>
        <pt x="306" y="53" on="0"/>
        <pt x="347" y="74" on="0"/>
        <pt x="379" y="107" on="0"/>
        <pt x="398" y="150" on="0"/>
        <pt x="398" y="173" on="1"/>
        <pt x="396" y="207" on="0"/>
        <pt x="377" y="263" on="0"/>
        <pt x="341" y="302" on="0"/>
        <pt x="284" y="323" on="0"/>
        <pt x="244" y="323" on="1"/>
        <pt x="214" y="323" on="1"/>
        <pt x="214" y="380" on="1"/>
        <pt x="250" y="380" on="1"/>
        <pt x="268" y="380" on="0"/>
        <pt x="305" y="394" on="0"/>
        <pt x="334" y="424" on="0"/>
        <pt x="352" y="469" on="0"/>
        <pt x="352" y="501" on="1"/>
        <pt x="352" y="522" on="0"/>
        <pt x="335" y="562" on="0"/>
        <pt x="304" y="593" on="0"/>
        <pt x="262" y="611" on="0"/>
        <pt x="237" y="611" on="1"/>
        <pt x="210" y="611" on="0"/>
        <pt x="168" y="584" on="0"/>
        <pt x="138" y="535" on="0"/>
        <pt x="123" y="467" on="0"/>
        <pt x="123" y="425" on="1"/>
        <pt x="123" y="0" on="1"/>
      </contour>
    </TTGlyph>
    <TTGlyph name="grave" xMin="139" yMin="434" xMax="307" yMax="671">
      <contour>
        <pt x="164" y="579" on="1"/>
        <pt x="139" y="646" on="1"/>
        <pt x="191" y="671" on="1"/>
        <pt x="217" y="605" on="1"/>
        <pt x="229" y="574" on="0"/>
        <pt x="262" y="539" on="0"/>
        <pt x="288" y="514" on="0"/>
        <pt x="307" y="487" on="0"/>
        <pt x="307" y="471" on="1"/>
        <pt x="306" y="451" on="0"/>
        <pt x="280" y="434" on="0"/>
        <pt x="269" y="434" on="1"/>
        <pt x="258" y="434" on="0"/>
        <pt x="240" y="441" on="0"/>
        <pt x="213" y="466" on="0"/>
        <pt x="183" y="525" on="0"/>
      </contour>
    </TTGlyph>
    <TTGlyph name="grave.cap" xMin="167" yMin="660" xMax="360" yMax="791">
      <contour>
        <pt x="207" y="791" on="1"/>
        <pt x="360" y="702" on="1"/>
        <pt x="337" y="660" on="1"/>
        <pt x="167" y="721" on="1"/>
      </contour>
    </TTGlyph>
    <TTGlyph name="greater" xMin="40" yMin="47" xMax="466" yMax="567">
      <contour>
        <pt x="42" y="496" on="1"/>
        <pt x="42" y="567" on="1"/>
        <pt x="466" y="344" on="1"/>
        <pt x="466" y="296" on="1"/>
        <pt x="40" y="47" on="1"/>
        <pt x="40" y="123" on="1"/>
        <pt x="389" y="319" on="1"/>
      </contour>
    </TTGlyph>
    <TTGlyph name="guillemotleft" xMin="67" yMin="61" xMax="446" yMax="400">
      <contour>
        <pt x="249" y="253" on="1"/>
        <pt x="400" y="400" on="1"/>
        <pt x="439" y="359" on="1"/>
        <pt x="318" y="241" on="1"/>
        <pt x="446" y="101" on="1"/>
        <pt x="406" y="61" on="1"/>
        <pt x="249" y="230" on="1"/>
      </contour>
      <contour>
        <pt x="67" y="253" on="1"/>
        <pt x="219" y="400" on="1"/>
        <pt x="258" y="359" on="1"/>
        <pt x="137" y="241" on="1"/>
        <pt x="265" y="101" on="1"/>
        <pt x="225" y="61" on="1"/>
        <pt x="67" y="230" on="1"/>
      </contour>
    </TTGlyph>
    <TTGlyph name="guillemotright" xMin="67" yMin="61" xMax="446" yMax="400">
      <contour>
        <pt x="265" y="253" on="1"/>
        <pt x="265" y="230" on="1"/>
        <pt x="107" y="61" on="1"/>
        <pt x="67" y="101" on="1"/>
        <pt x="195" y="241" on="1"/>
        <pt x="74" y="359" on="1"/>
        <pt x="113" y="400" on="1"/>
      </contour>
      <contour>
        <pt x="446" y="253" on="1"/>
        <pt x="446" y="230" on="1"/>
        <pt x="288" y="61" on="1"/>
        <pt x="249" y="101" on="1"/>
        <pt x="376" y="241" on="1"/>
        <pt x="255" y="359" on="1"/>
        <pt x="294" y="400" on="1"/>
      </contour>
    </TTGlyph>
    <TTGlyph name="guilsinglleft" xMin="145" yMin="61" xMax="343" yMax="400">
      <contour>
        <pt x="145" y="253" on="1"/>
        <pt x="297" y="400" on="1"/>
        <pt x="336" y="359" on="1"/>
        <pt x="215" y="241" on="1"/>
        <pt x="343" y="101" on="1"/>
        <pt x="303" y="61" on="1"/>
        <pt x="145" y="230" on="1"/>
      </contour>
    </TTGlyph>
    <TTGlyph name="guilsinglright" xMin="145" yMin="61" xMax="343" yMax="400">
      <contour>
        <pt x="343" y="253" on="1"/>
        <pt x="343" y="230" on="1"/>
        <pt x="185" y="61" on="1"/>
        <pt x="145" y="101" on="1"/>
        <pt x="273" y="241" on="1"/>
        <pt x="152" y="359" on="1"/>
        <pt x="191" y="400" on="1"/>
      </contour>
    </TTGlyph>
    <TTGlyph name="h" xMin="70" yMin="0" xMax="433" yMax="665">
      <contour>
        <pt x="70" y="0" on="1"/>
        <pt x="70" y="665" on="1"/>
        <pt x="153" y="665" on="1"/>
        <pt x="153" y="664" on="0"/>
        <pt x="154" y="664" on="0"/>
        <pt x="154" y="663" on="1"/>
        <pt x="154" y="660" on="0"/>
        <pt x="145" y="649" on="0"/>
        <pt x="143" y="641" on="1"/>
        <pt x="143" y="376" on="1"/>
        <pt x="170" y="418" on="0"/>
        <pt x="251" y="468" on="0"/>
        <pt x="293" y="468" on="1"/>
        <pt x="324" y="468" on="0"/>
        <pt x="375" y="447" on="0"/>
        <pt x="413" y="401" on="0"/>
        <pt x="433" y="329" on="0"/>
        <pt x="433" y="277" on="1"/>
        <pt x="433" y="0" on="1"/>
        <pt x="362" y="0" on="1"/>
        <pt x="362" y="275" on="1"/>
        <pt x="362" y="347" on="0"/>
        <pt x="313" y="405" on="0"/>
        <pt x="278" y="405" on="1"/>
        <pt x="255" y="405" on="0"/>
        <pt x="209" y="385" on="0"/>
        <pt x="166" y="349" on="0"/>
        <pt x="143" y="297" on="0"/>
        <pt x="143" y="263" on="1"/>
        <pt x="143" y="0" on="1"/>
      </contour>
    </TTGlyph>
    <TTGlyph name="hungarumlaut" xMin="126" yMin="522" xMax="432" yMax="699">
      <contour>
        <pt x="214" y="699" on="1"/>
        <pt x="277" y="657" on="1"/>
        <pt x="176" y="522" on="1"/>
        <pt x="126" y="552" on="1"/>
      </contour>
      <contour>
        <pt x="369" y="699" on="1"/>
        <pt x="432" y="657" on="1"/>
        <pt x="331" y="522" on="1"/>
        <pt x="281" y="552" on="1"/>
      </contour>
    </TTGlyph>
    <TTGlyph name="hungarumlaut.cap" xMin="102" yMin="645" xMax="457" yMax="810">
      <contour>
        <pt x="411" y="810" on="1"/>
        <pt x="457" y="746" on="1"/>
        <pt x="312" y="645" on="1"/>
        <pt x="280" y="686" on="1"/>
      </contour>
      <contour>
        <pt x="233" y="810" on="1"/>
        <pt x="280" y="746" on="1"/>
        <pt x="134" y="645" on="1"/>
        <pt x="102" y="686" on="1"/>
      </contour>
    </TTGlyph>
    <TTGlyph name="hyphen" xMin="71" yMin="281" xMax="431" yMax="348">
      <contour>
        <pt x="71" y="348" on="1"/>
        <pt x="431" y="348" on="1"/>
        <pt x="431" y="281" on="1"/>
        <pt x="71" y="281" on="1"/>
      </contour>
    </TTGlyph>
    <TTGlyph name="i" xMin="100" yMin="0" xMax="396" yMax="656">
      <contour>
        <pt x="106" y="457" on="1"/>
        <pt x="289" y="457" on="1"/>
        <pt x="289" y="58" on="1"/>
        <pt x="396" y="58" on="1"/>
        <pt x="396" y="0" on="1"/>
        <pt x="100" y="0" on="1"/>
        <pt x="100" y="58" on="1"/>
        <pt x="217" y="58" on="1"/>
        <pt x="217" y="399" on="1"/>
        <pt x="106" y="399" on="1"/>
      </contour>
      <contour>
        <pt x="218" y="641" on="1"/>
        <pt x="233" y="656" on="0"/>
        <pt x="254" y="656" on="1"/>
        <pt x="275" y="656" on="0"/>
        <pt x="306" y="625" on="0"/>
        <pt x="306" y="604" on="1"/>
        <pt x="306" y="583" on="0"/>
        <pt x="275" y="553" on="0"/>
        <pt x="254" y="553" on="1"/>
        <pt x="233" y="553" on="0"/>
        <pt x="203" y="583" on="0"/>
        <pt x="203" y="604" on="1"/>
        <pt x="203" y="626" on="0"/>
      </contour>
    </TTGlyph>
    <TTGlyph name="iacute" xMin="100" yMin="0" xMax="396" yMax="699">
      <component glyphName="dotlessi" x="0" y="0" flags="0x204"/>
      <component glyphName="acute" x="-8" y="0" flags="0x4"/>
    </TTGlyph>
    <TTGlyph name="icircumflex" xMin="100" yMin="0" xMax="396" yMax="685">
      <component glyphName="dotlessi" x="0" y="0" flags="0x204"/>
      <component glyphName="circumflex" x="-20" y="0" flags="0x4"/>
    </TTGlyph>
    <TTGlyph name="idieresis" xMin="100" yMin="0" xMax="396" yMax="665">
      <component glyphName="dotlessi" x="0" y="0" flags="0x204"/>
      <component glyphName="dieresis" x="-8" y="0" flags="0x4"/>
    </TTGlyph>
    <TTGlyph name="igrave" xMin="100" yMin="0" xMax="396" yMax="699">
      <component glyphName="dotlessi" x="0" y="0" flags="0x204"/>
      <component glyphName="uni02CB" x="-50" y="0" flags="0x4"/>
    </TTGlyph>
    <TTGlyph name="j" xMin="48" yMin="-174" xMax="385" yMax="656">
      <contour>
        <pt x="126" y="457" on="1"/>
        <pt x="369" y="457" on="1"/>
        <pt x="369" y="22" on="1"/>
        <pt x="369" y="-30" on="0"/>
        <pt x="341" y="-103" on="0"/>
        <pt x="292" y="-149" on="0"/>
        <pt x="226" y="-172" on="0"/>
        <pt x="188" y="-174" on="1"/>
        <pt x="100" y="-174" on="0"/>
        <pt x="48" y="-110" on="1"/>
        <pt x="95" y="-48" on="1"/>
        <pt x="100" y="-53" on="0"/>
        <pt x="101" y="-63" on="0"/>
        <pt x="107" y="-75" on="0"/>
        <pt x="125" y="-90" on="0"/>
        <pt x="146" y="-101" on="1"/>
        <pt x="168" y="-112" on="0"/>
        <pt x="193" y="-112" on="1"/>
        <pt x="238" y="-112" on="0"/>
        <pt x="296" y="-51" on="0"/>
        <pt x="296" y="18" on="1"/>
        <pt x="296" y="398" on="1"/>
        <pt x="126" y="398" on="1"/>
      </contour>
      <contour>
        <pt x="296" y="641" on="1"/>
        <pt x="311" y="656" on="0"/>
        <pt x="333" y="656" on="1"/>
        <pt x="354" y="656" on="0"/>
        <pt x="385" y="626" on="0"/>
        <pt x="385" y="604" on="1"/>
        <pt x="385" y="583" on="0"/>
        <pt x="354" y="553" on="0"/>
        <pt x="333" y="553" on="1"/>
        <pt x="312" y="553" on="0"/>
        <pt x="281" y="583" on="0"/>
        <pt x="281" y="604" on="1"/>
        <pt x="281" y="626" on="0"/>
      </contour>
    </TTGlyph>
    <TTGlyph name="k" xMin="66" yMin="-4" xMax="479" yMax="665">
      <contour>
        <pt x="66" y="665" on="1"/>
        <pt x="148" y="665" on="1"/>
        <pt x="148" y="659" on="0"/>
        <pt x="139" y="645" on="0"/>
        <pt x="139" y="639" on="1"/>
        <pt x="139" y="247" on="1"/>
        <pt x="368" y="459" on="1"/>
        <pt x="391" y="454" on="0"/>
        <pt x="421" y="454" on="1"/>
        <pt x="447" y="454" on="1"/>
        <pt x="255" y="273" on="1"/>
        <pt x="479" y="0" on="1"/>
        <pt x="386" y="-4" on="1"/>
        <pt x="199" y="229" on="1"/>
        <pt x="139" y="173" on="1"/>
        <pt x="139" y="0" on="1"/>
        <pt x="66" y="0" on="1"/>
      </contour>
    </TTGlyph>
    <TTGlyph name="kgreenlandic" xMin="66" yMin="-4" xMax="479" yMax="459">
      <contour>
        <pt x="66" y="457" on="1"/>
        <pt x="148" y="457" on="1"/>
        <pt x="150" y="455" on="0"/>
        <pt x="150" y="455" on="1"/>
        <pt x="150" y="452" on="0"/>
        <pt x="141" y="439" on="0"/>
        <pt x="139" y="431" on="1"/>
        <pt x="139" y="247" on="1"/>
        <pt x="368" y="459" on="1"/>
        <pt x="391" y="454" on="0"/>
        <pt x="421" y="454" on="1"/>
        <pt x="447" y="454" on="1"/>
        <pt x="255" y="273" on="1"/>
        <pt x="479" y="-1" on="1"/>
        <pt x="386" y="-4" on="1"/>
        <pt x="199" y="229" on="1"/>
        <pt x="139" y="173" on="1"/>
        <pt x="139" y="-1" on="1"/>
        <pt x="66" y="-1" on="1"/>
      </contour>
    </TTGlyph>
    <TTGlyph name="l" xMin="79" yMin="0" xMax="421" yMax="665">
      <contour>
        <pt x="85" y="665" on="1"/>
        <pt x="287" y="665" on="1"/>
        <pt x="287" y="58" on="1"/>
        <pt x="421" y="58" on="1"/>
        <pt x="421" y="0" on="1"/>
        <pt x="79" y="0" on="1"/>
        <pt x="79" y="58" on="1"/>
        <pt x="214" y="58" on="1"/>
        <pt x="214" y="607" on="1"/>
        <pt x="85" y="607" on="1"/>
      </contour>
    </TTGlyph>
    <TTGlyph name="lacute" xMin="79" yMin="0" xMax="421" yMax="834">
      <component glyphName="l" x="0" y="0" flags="0x204"/>
      <component glyphName="acute.cap" x="-17" y="43" flags="0x4"/>
    </TTGlyph>
    <TTGlyph name="lcaron" xMin="62" yMin="0" xMax="473" yMax="671">
      <component glyphName="l" x="-17" y="0" flags="0x204"/>
      <component glyphName="afii57929" x="164" y="0" flags="0x4"/>
    </TTGlyph>
    <TTGlyph name="less" xMin="35" yMin="47" xMax="461" yMax="567">
      <contour>
        <pt x="458" y="496" on="1"/>
        <pt x="111" y="319" on="1"/>
        <pt x="461" y="123" on="1"/>
        <pt x="461" y="47" on="1"/>
        <pt x="35" y="296" on="1"/>
        <pt x="35" y="344" on="1"/>
        <pt x="458" y="567" on="1"/>
      </contour>
    </TTGlyph>
    <TTGlyph name="logicalnot" xMin="91" yMin="157" xMax="414" yMax="347">
      <contour>
        <pt x="91" y="347" on="1"/>
        <pt x="414" y="347" on="1"/>
        <pt x="414" y="157" on="1"/>
        <pt x="350" y="157" on="1"/>
        <pt x="350" y="284" on="1"/>
        <pt x="91" y="284" on="1"/>
      </contour>
    </TTGlyph>
    <TTGlyph name="lslash" xMin="79" yMin="0" xMax="421" yMax="665">
      <contour>
        <pt x="85" y="665" on="1"/>
        <pt x="287" y="665" on="1"/>
        <pt x="287" y="370" on="1"/>
        <pt x="351" y="393" on="1"/>
        <pt x="357" y="395" on="0"/>
        <pt x="370" y="402" on="0"/>
        <pt x="378" y="407" on="1"/>
        <pt x="378" y="334" on="1"/>
        <pt x="287" y="303" on="1"/>
        <pt x="287" y="58" on="1"/>
        <pt x="421" y="58" on="1"/>
        <pt x="421" y="0" on="1"/>
        <pt x="79" y="0" on="1"/>
        <pt x="79" y="58" on="1"/>
        <pt x="214" y="58" on="1"/>
        <pt x="214" y="279" on="1"/>
        <pt x="135" y="252" on="1"/>
        <pt x="135" y="318" on="1"/>
        <pt x="214" y="345" on="1"/>
        <pt x="214" y="607" on="1"/>
        <pt x="85" y="607" on="1"/>
      </contour>
    </TTGlyph>
    <TTGlyph name="m" xMin="38" yMin="0" xMax="471" yMax="468">
      <contour>
        <pt x="38" y="0" on="1"/>
        <pt x="38" y="457" on="1"/>
        <pt x="104" y="457" on="1"/>
        <pt x="104" y="412" on="1"/>
        <pt x="120" y="437" on="0"/>
        <pt x="170" y="468" on="0"/>
        <pt x="198" y="468" on="1"/>
        <pt x="227" y="468" on="0"/>
        <pt x="272" y="430" on="0"/>
        <pt x="278" y="401" on="1"/>
        <pt x="291" y="431" on="0"/>
        <pt x="347" y="468" on="0"/>
        <pt x="380" y="468" on="1"/>
        <pt x="427" y="468" on="0"/>
        <pt x="471" y="401" on="0"/>
        <pt x="469" y="351" on="1"/>
        <pt x="469" y="0" on="1"/>
        <pt x="403" y="0" on="1"/>
        <pt x="403" y="324" on="1"/>
        <pt x="403" y="355" on="0"/>
        <pt x="397" y="391" on="0"/>
        <pt x="383" y="410" on="0"/>
        <pt x="369" y="415" on="0"/>
        <pt x="358" y="415" on="1"/>
        <pt x="345" y="415" on="0"/>
        <pt x="319" y="394" on="0"/>
        <pt x="299" y="362" on="0"/>
        <pt x="287" y="321" on="0"/>
        <pt x="287" y="302" on="1"/>
        <pt x="287" y="0" on="1"/>
        <pt x="220" y="0" on="1"/>
        <pt x="220" y="318" on="1"/>
        <pt x="220" y="375" on="0"/>
        <pt x="199" y="413" on="0"/>
        <pt x="173" y="413" on="1"/>
        <pt x="149" y="413" on="0"/>
        <pt x="104" y="356" on="0"/>
        <pt x="104" y="305" on="1"/>
        <pt x="104" y="0" on="1"/>
      </contour>
    </TTGlyph>
    <TTGlyph name="macron" xMin="123" yMin="565" xMax="377" yMax="621">
      <contour>
        <pt x="123" y="621" on="1"/>
        <pt x="377" y="621" on="1"/>
        <pt x="377" y="565" on="1"/>
        <pt x="123" y="565" on="1"/>
      </contour>
    </TTGlyph>
    <TTGlyph name="micro" xMin="24" yMin="-167" xMax="494" yMax="457">
      <contour>
        <pt x="372" y="116" on="1"/>
        <pt x="372" y="47" on="0"/>
        <pt x="412" y="47" on="1"/>
        <pt x="426" y="47" on="0"/>
        <pt x="455" y="71" on="0"/>
        <pt x="461" y="84" on="1"/>
        <pt x="467" y="96" on="1"/>
        <pt x="494" y="45" on="1"/>
        <pt x="457" y="-10" on="0"/>
        <pt x="406" y="-10" on="1"/>
        <pt x="374" y="-10" on="0"/>
        <pt x="328" y="35" on="0"/>
        <pt x="324" y="67" on="1"/>
        <pt x="307" y="28" on="0"/>
        <pt x="238" y="-10" on="0"/>
        <pt x="201" y="-10" on="1"/>
        <pt x="164" y="-10" on="0"/>
        <pt x="101" y="25" on="0"/>
        <pt x="87" y="60" on="1"/>
        <pt x="87" y="3" on="0"/>
        <pt x="87" y="-110" on="0"/>
        <pt x="86" y="-167" on="1"/>
        <pt x="24" y="-167" on="1"/>
        <pt x="24" y="-153" on="0"/>
        <pt x="27" y="-97" on="0"/>
        <pt x="32" y="-27" on="0"/>
        <pt x="37" y="51" on="0"/>
        <pt x="41" y="123" on="0"/>
        <pt x="44" y="184" on="0"/>
        <pt x="44" y="202" on="1"/>
        <pt x="44" y="457" on="1"/>
        <pt x="110" y="457" on="1"/>
        <pt x="110" y="186" on="1"/>
        <pt x="110" y="144" on="0"/>
        <pt x="126" y="91" on="0"/>
        <pt x="153" y="59" on="0"/>
        <pt x="188" y="45" on="0"/>
        <pt x="207" y="43" on="1"/>
        <pt x="226" y="45" on="0"/>
        <pt x="262" y="62" on="0"/>
        <pt x="291" y="95" on="0"/>
        <pt x="308" y="147" on="0"/>
        <pt x="308" y="183" on="1"/>
        <pt x="308" y="192" on="1"/>
        <pt x="308" y="457" on="1"/>
        <pt x="372" y="457" on="1"/>
      </contour>
    </TTGlyph>
    <TTGlyph name="minus" xMin="45" yMin="282" xMax="456" yMax="343">
      <contour>
        <pt x="45" y="343" on="1"/>
        <pt x="456" y="343" on="1"/>
        <pt x="456" y="282" on="1"/>
        <pt x="45" y="282" on="1"/>
      </contour>
    </TTGlyph>
    <TTGlyph name="multiply" xMin="85" yMin="145" xMax="430" yMax="503">
      <contour>
        <pt x="382" y="503" on="1"/>
        <pt x="430" y="459" on="1"/>
        <pt x="300" y="325" on="1"/>
        <pt x="427" y="191" on="1"/>
        <pt x="381" y="145" on="1"/>
        <pt x="254" y="278" on="1"/>
        <pt x="129" y="149" on="1"/>
        <pt x="85" y="193" on="1"/>
        <pt x="211" y="324" on="1"/>
        <pt x="85" y="457" on="1"/>
        <pt x="132" y="503" on="1"/>
        <pt x="256" y="372" on="1"/>
      </contour>
    </TTGlyph>
    <TTGlyph name="n" xMin="68" yMin="0" xMax="432" yMax="468">
      <contour>
        <pt x="68" y="0" on="1"/>
        <pt x="68" y="457" on="1"/>
        <pt x="142" y="457" on="1"/>
        <pt x="142" y="376" on="1"/>
        <pt x="168" y="418" on="0"/>
        <pt x="249" y="468" on="0"/>
        <pt x="291" y="468" on="1"/>
        <pt x="321" y="468" on="0"/>
        <pt x="373" y="447" on="0"/>
        <pt x="411" y="401" on="0"/>
        <pt x="432" y="329" on="0"/>
        <pt x="432" y="277" on="1"/>
        <pt x="432" y="0" on="1"/>
        <pt x="361" y="0" on="1"/>
        <pt x="361" y="275" on="1"/>
        <pt x="361" y="347" on="0"/>
        <pt x="312" y="405" on="0"/>
        <pt x="277" y="405" on="1"/>
        <pt x="254" y="405" on="0"/>
        <pt x="206" y="385" on="0"/>
        <pt x="167" y="348" on="0"/>
        <pt x="142" y="296" on="0"/>
        <pt x="142" y="263" on="1"/>
        <pt x="142" y="0" on="1"/>
      </contour>
    </TTGlyph>
    <TTGlyph name="nacute" xMin="68" yMin="0" xMax="432" yMax="699">
      <component glyphName="n" x="0" y="0" flags="0x204"/>
      <component glyphName="acute" x="0" y="0" flags="0x4"/>
    </TTGlyph>
    <TTGlyph name="ncaron" xMin="68" yMin="0" xMax="432" yMax="694">
      <component glyphName="n" x="0" y="0" flags="0x204"/>
      <component glyphName="caron" x="0" y="0" flags="0x4"/>
    </TTGlyph>
    <TTGlyph name="nine" xMin="68" yMin="-10" xMax="437" yMax="629">
      <contour>
        <pt x="217" y="-10" on="1"/>
        <pt x="137" y="-10" on="0"/>
        <pt x="79" y="47" on="1"/>
        <pt x="128" y="100" on="1"/>
        <pt x="133" y="97" on="0"/>
        <pt x="140" y="79" on="0"/>
        <pt x="144" y="76" on="1"/>
        <pt x="173" y="53" on="0"/>
        <pt x="215" y="53" on="1"/>
        <pt x="290" y="53" on="0"/>
        <pt x="364" y="166" on="0"/>
        <pt x="368" y="293" on="1"/>
        <pt x="346" y="262" on="0"/>
        <pt x="278" y="226" on="0"/>
        <pt x="239" y="226" on="1"/>
        <pt x="204" y="226" on="0"/>
        <pt x="142" y="255" on="0"/>
        <pt x="95" y="307" on="0"/>
        <pt x="68" y="380" on="0"/>
        <pt x="68" y="424" on="1"/>
        <pt x="68" y="468" on="0"/>
        <pt x="96" y="543" on="0"/>
        <pt x="145" y="598" on="0"/>
        <pt x="210" y="629" on="0"/>
        <pt x="247" y="629" on="1"/>
        <pt x="338" y="629" on="0"/>
        <pt x="437" y="472" on="0"/>
        <pt x="437" y="299" on="1"/>
        <pt x="437" y="220" on="0"/>
        <pt x="402" y="104" on="0"/>
        <pt x="342" y="29" on="0"/>
        <pt x="262" y="-9" on="0"/>
      </contour>
      <contour>
        <pt x="364" y="363" on="1"/>
        <pt x="365" y="371" on="0"/>
        <pt x="365" y="386" on="0"/>
        <pt x="365" y="394" on="1"/>
        <pt x="365" y="433" on="0"/>
        <pt x="346" y="497" on="0"/>
        <pt x="314" y="542" on="0"/>
        <pt x="272" y="567" on="0"/>
        <pt x="250" y="567" on="1"/>
        <pt x="199" y="567" on="0"/>
        <pt x="136" y="491" on="0"/>
        <pt x="136" y="425" on="1"/>
        <pt x="136" y="393" on="0"/>
        <pt x="154" y="342" on="0"/>
        <pt x="183" y="306" on="0"/>
        <pt x="220" y="287" on="0"/>
        <pt x="240" y="287" on="1"/>
        <pt x="280" y="287" on="0"/>
        <pt x="343" y="328" on="0"/>
      </contour>
    </TTGlyph>
    <TTGlyph name="ntilde" xMin="68" yMin="0" xMax="432" yMax="676">
      <component glyphName="n" x="0" y="0" flags="0x204"/>
      <component glyphName="tilde" x="-4" y="0" flags="0x4"/>
    </TTGlyph>
    <TTGlyph name="numbersign" xMin="25" yMin="10" xMax="476" yMax="626">
      <contour>
        <pt x="173" y="624" on="1"/>
        <pt x="234" y="626" on="1"/>
        <pt x="213" y="455" on="1"/>
        <pt x="323" y="455" on="1"/>
        <pt x="343" y="622" on="1"/>
        <pt x="405" y="623" on="1"/>
        <pt x="385" y="457" on="1"/>
        <pt x="476" y="457" on="1"/>
        <pt x="470" y="410" on="1"/>
        <pt x="379" y="410" on="1"/>
        <pt x="358" y="241" on="1"/>
        <pt x="457" y="241" on="1"/>
        <pt x="452" y="196" on="1"/>
        <pt x="353" y="196" on="1"/>
        <pt x="331" y="14" on="1"/>
        <pt x="270" y="10" on="1"/>
        <pt x="292" y="193" on="1"/>
        <pt x="181" y="193" on="1"/>
        <pt x="160" y="14" on="1"/>
        <pt x="101" y="13" on="1"/>
        <pt x="122" y="191" on="1"/>
        <pt x="25" y="191" on="1"/>
        <pt x="29" y="236" on="1"/>
        <pt x="128" y="236" on="1"/>
        <pt x="148" y="407" on="1"/>
        <pt x="39" y="407" on="1"/>
        <pt x="42" y="453" on="1"/>
        <pt x="153" y="453" on="1"/>
      </contour>
      <contour>
        <pt x="207" y="408" on="1"/>
        <pt x="187" y="238" on="1"/>
        <pt x="297" y="238" on="1"/>
        <pt x="318" y="408" on="1"/>
      </contour>
    </TTGlyph>
    <TTGlyph name="o" xMin="40" yMin="-12" xMax="460" yMax="467">
      <contour>
        <pt x="254" y="467" on="1"/>
        <pt x="296" y="467" on="0"/>
        <pt x="371" y="434" on="0"/>
        <pt x="427" y="372" on="0"/>
        <pt x="460" y="283" on="0"/>
        <pt x="460" y="228" on="1"/>
        <pt x="460" y="172" on="0"/>
        <pt x="428" y="84" on="0"/>
        <pt x="372" y="21" on="0"/>
        <pt x="296" y="-12" on="0"/>
        <pt x="253" y="-12" on="1"/>
        <pt x="209" y="-12" on="0"/>
        <pt x="132" y="24" on="0"/>
        <pt x="74" y="87" on="0"/>
        <pt x="40" y="175" on="0"/>
        <pt x="40" y="226" on="1"/>
        <pt x="40" y="277" on="0"/>
        <pt x="75" y="367" on="0"/>
        <pt x="134" y="430" on="0"/>
        <pt x="212" y="467" on="0"/>
      </contour>
      <contour>
        <pt x="388" y="226" on="1"/>
        <pt x="388" y="269" on="0"/>
        <pt x="365" y="336" on="0"/>
        <pt x="327" y="382" on="0"/>
        <pt x="278" y="406" on="0"/>
        <pt x="251" y="406" on="1"/>
        <pt x="224" y="406" on="0"/>
        <pt x="175" y="382" on="0"/>
        <pt x="138" y="336" on="0"/>
        <pt x="116" y="271" on="0"/>
        <pt x="116" y="230" on="1"/>
        <pt x="116" y="190" on="0"/>
        <pt x="138" y="124" on="0"/>
        <pt x="175" y="76" on="0"/>
        <pt x="225" y="50" on="0"/>
        <pt x="253" y="50" on="1"/>
        <pt x="281" y="50" on="0"/>
        <pt x="330" y="73" on="0"/>
        <pt x="367" y="118" on="0"/>
        <pt x="388" y="184" on="0"/>
      </contour>
    </TTGlyph>
    <TTGlyph name="oacute" xMin="40" yMin="-12" xMax="460" yMax="699">
      <component glyphName="o" x="0" y="0" flags="0x204"/>
      <component glyphName="acute" x="0" y="0" flags="0x4"/>
    </TTGlyph>
    <TTGlyph name="ocircumflex" xMin="40" yMin="-12" xMax="460" yMax="685">
      <component glyphName="o" x="0" y="0" flags="0x204"/>
      <component glyphName="circumflex" x="0" y="0" flags="0x4"/>
    </TTGlyph>
    <TTGlyph name="odieresis" xMin="40" yMin="-12" xMax="460" yMax="665">
      <component glyphName="o" x="0" y="0" flags="0x204"/>
      <component glyphName="dieresis" x="0" y="0" flags="0x4"/>
    </TTGlyph>
    <TTGlyph name="oe" xMin="6" yMin="-12" xMax="494" yMax="466">
      <contour>
        <pt x="161" y="466" on="1"/>
        <pt x="221" y="466" on="0"/>
        <pt x="255" y="420" on="1"/>
        <pt x="294" y="466" on="0"/>
        <pt x="356" y="466" on="1"/>
        <pt x="419" y="466" on="0"/>
        <pt x="490" y="374" on="0"/>
        <pt x="490" y="283" on="1"/>
        <pt x="490" y="221" on="1"/>
        <pt x="262" y="221" on="1"/>
        <pt x="263" y="167" on="0"/>
        <pt x="276" y="99" on="0"/>
        <pt x="303" y="63" on="0"/>
        <pt x="338" y="47" on="0"/>
        <pt x="363" y="47" on="1"/>
        <pt x="424" y="47" on="0"/>
        <pt x="459" y="85" on="1"/>
        <pt x="494" y="42" on="1"/>
        <pt x="441" y="-12" on="0"/>
        <pt x="372" y="-12" on="1"/>
        <pt x="303" y="-12" on="0"/>
        <pt x="253" y="29" on="1"/>
        <pt x="209" y="-11" on="0"/>
        <pt x="154" y="-11" on="1"/>
        <pt x="129" y="-11" on="0"/>
        <pt x="77" y="10" on="0"/>
        <pt x="34" y="63" on="0"/>
        <pt x="6" y="156" on="0"/>
        <pt x="6" y="228" on="1"/>
        <pt x="6" y="294" on="0"/>
        <pt x="31" y="385" on="0"/>
        <pt x="76" y="441" on="0"/>
        <pt x="130" y="466" on="0"/>
      </contour>
      <contour>
        <pt x="263" y="278" on="1"/>
        <pt x="431" y="278" on="1"/>
        <pt x="431" y="287" on="1"/>
        <pt x="431" y="359" on="0"/>
        <pt x="385" y="411" on="0"/>
        <pt x="343" y="411" on="1"/>
        <pt x="306" y="411" on="0"/>
        <pt x="263" y="347" on="0"/>
        <pt x="263" y="287" on="1"/>
      </contour>
      <contour>
        <pt x="161" y="406" on="1"/>
        <pt x="143" y="406" on="0"/>
        <pt x="110" y="388" on="0"/>
        <pt x="82" y="348" on="0"/>
        <pt x="66" y="285" on="0"/>
        <pt x="66" y="239" on="1"/>
        <pt x="66" y="143" on="0"/>
        <pt x="118" y="50" on="0"/>
        <pt x="163" y="50" on="1"/>
        <pt x="183" y="50" on="0"/>
        <pt x="213" y="71" on="0"/>
        <pt x="213" y="89" on="1"/>
        <pt x="213" y="92" on="0"/>
        <pt x="210" y="112" on="1"/>
        <pt x="204" y="147" on="0"/>
        <pt x="200" y="211" on="0"/>
        <pt x="200" y="238" on="1"/>
        <pt x="200" y="296" on="0"/>
        <pt x="209" y="355" on="0"/>
        <pt x="209" y="362" on="1"/>
        <pt x="209" y="381" on="0"/>
        <pt x="181" y="406" on="0"/>
      </contour>
    </TTGlyph>
    <TTGlyph name="ogonek" xMin="276" yMin="-176" xMax="424" yMax="0">
      <contour>
        <pt x="356" y="0" on="1"/>
        <pt x="422" y="0" on="1"/>
        <pt x="338" y="-75" on="0"/>
        <pt x="338" y="-102" on="1"/>
        <pt x="338" y="-114" on="0"/>
        <pt x="354" y="-130" on="0"/>
        <pt x="366" y="-130" on="1"/>
        <pt x="395" y="-130" on="0"/>
        <pt x="424" y="-107" on="1"/>
        <pt x="424" y="-153" on="1"/>
        <pt x="396" y="-176" on="0"/>
        <pt x="357" y="-176" on="1"/>
        <pt x="317" y="-176" on="0"/>
        <pt x="276" y="-141" on="0"/>
        <pt x="276" y="-115" on="1"/>
        <pt x="276" y="-65" on="0"/>
      </contour>
    </TTGlyph>
    <TTGlyph name="ograve" xMin="40" yMin="-12" xMax="460" yMax="699">
      <component glyphName="o" x="0" y="0" flags="0x204"/>
      <component glyphName="uni02CB" x="0" y="0" flags="0x4"/>
    </TTGlyph>
    <TTGlyph name="ohungarumlaut" xMin="40" yMin="-12" xMax="460" yMax="699">
      <component glyphName="o" x="0" y="0" flags="0x204"/>
      <component glyphName="hungarumlaut" x="0" y="0" flags="0x4"/>
    </TTGlyph>
    <TTGlyph name="omacron" xMin="40" yMin="-12" xMax="460" yMax="621">
      <component glyphName="o" x="0" y="0" flags="0x204"/>
      <component glyphName="uni02C9" x="0" y="0" flags="0x4"/>
    </TTGlyph>
    <TTGlyph name="one" xMin="88" yMin="0" xMax="299" yMax="624">
      <contour>
        <pt x="299" y="624" on="1"/>
        <pt x="299" y="0" on="1"/>
        <pt x="230" y="0" on="1"/>
        <pt x="230" y="537" on="1"/>
        <pt x="104" y="500" on="1"/>
        <pt x="88" y="539" on="1"/>
        <pt x="251" y="624" on="1"/>
      </contour>
    </TTGlyph>
    <TTGlyph name="onehalf" xMin="5" yMin="-73" xMax="494" yMax="677">
      <contour>
        <pt x="76" y="-16" on="1"/>
        <pt x="389" y="665" on="1"/>
        <pt x="437" y="638" on="1"/>
        <pt x="123" y="-42" on="1"/>
      </contour>
      <contour>
        <pt x="263" y="168" on="1"/>
        <pt x="282" y="200" on="0"/>
        <pt x="345" y="235" on="0"/>
        <pt x="389" y="235" on="1"/>
        <pt x="410" y="235" on="0"/>
        <pt x="445" y="220" on="0"/>
        <pt x="472" y="194" on="0"/>
        <pt x="487" y="161" on="0"/>
        <pt x="487" y="143" on="1"/>
        <pt x="487" y="127" on="0"/>
        <pt x="480" y="103" on="0"/>
        <pt x="461" y="79" on="0"/>
        <pt x="426" y="51" on="0"/>
        <pt x="398" y="31" on="1"/>
        <pt x="354" y="-1" on="0"/>
        <pt x="329" y="-29" on="1"/>
        <pt x="475" y="-29" on="1"/>
        <pt x="479" y="-29" on="0"/>
        <pt x="489" y="-22" on="0"/>
        <pt x="494" y="-22" on="1"/>
        <pt x="494" y="-73" on="1"/>
        <pt x="270" y="-73" on="1"/>
        <pt x="270" y="-38" on="1"/>
        <pt x="288" y="-14" on="0"/>
        <pt x="340" y="39" on="0"/>
        <pt x="375" y="65" on="1"/>
        <pt x="398" y="82" on="1"/>
        <pt x="439" y="117" on="0"/>
        <pt x="439" y="140" on="1"/>
        <pt x="439" y="165" on="0"/>
        <pt x="406" y="194" on="0"/>
        <pt x="379" y="194" on="1"/>
        <pt x="333" y="194" on="0"/>
        <pt x="308" y="160" on="1"/>
        <pt x="305" y="157" on="0"/>
        <pt x="302" y="146" on="0"/>
        <pt x="300" y="143" on="1"/>
      </contour>
      <contour>
        <pt x="146" y="677" on="1"/>
        <pt x="146" y="374" on="1"/>
        <pt x="95" y="374" on="1"/>
        <pt x="95" y="614" on="1"/>
        <pt x="18" y="594" on="1"/>
        <pt x="5" y="619" on="1"/>
        <pt x="112" y="677" on="1"/>
      </contour>
    </TTGlyph>
    <TTGlyph name="onequarter" xMin="5" yMin="-70" xMax="477" yMax="677">
      <contour>
        <pt x="76" y="-16" on="1"/>
        <pt x="389" y="665" on="1"/>
        <pt x="437" y="638" on="1"/>
        <pt x="123" y="-42" on="1"/>
      </contour>
      <contour>
        <pt x="396" y="242" on="1"/>
        <pt x="427" y="242" on="1"/>
        <pt x="427" y="45" on="1"/>
        <pt x="477" y="45" on="1"/>
        <pt x="477" y="8" on="1"/>
        <pt x="427" y="8" on="1"/>
        <pt x="427" y="-70" on="1"/>
        <pt x="381" y="-70" on="1"/>
        <pt x="381" y="8" on="1"/>
        <pt x="236" y="8" on="1"/>
        <pt x="236" y="37" on="1"/>
      </contour>
      <contour>
        <pt x="382" y="164" on="1"/>
        <pt x="288" y="45" on="1"/>
        <pt x="382" y="45" on="1"/>
      </contour>
      <contour>
        <pt x="146" y="677" on="1"/>
        <pt x="146" y="374" on="1"/>
        <pt x="95" y="374" on="1"/>
        <pt x="95" y="614" on="1"/>
        <pt x="18" y="594" on="1"/>
        <pt x="5" y="619" on="1"/>
        <pt x="112" y="677" on="1"/>
      </contour>
    </TTGlyph>
    <TTGlyph name="ordfeminine" xMin="76" yMin="152" xMax="425" yMax="622">
      <contour>
        <pt x="325" y="488" on="1"/>
        <pt x="325" y="569" on="0"/>
        <pt x="251" y="569" on="1"/>
        <pt x="189" y="569" on="0"/>
        <pt x="157" y="525" on="1"/>
        <pt x="123" y="566" on="1"/>
        <pt x="173" y="622" on="0"/>
        <pt x="257" y="622" on="1"/>
        <pt x="320" y="620" on="0"/>
        <pt x="389" y="558" on="0"/>
        <pt x="389" y="495" on="1"/>
        <pt x="389" y="485" on="1"/>
        <pt x="389" y="267" on="1"/>
        <pt x="326" y="267" on="1"/>
        <pt x="326" y="300" on="1"/>
        <pt x="280" y="257" on="0"/>
        <pt x="224" y="257" on="1"/>
        <pt x="169" y="257" on="0"/>
        <pt x="102" y="319" on="0"/>
        <pt x="102" y="362" on="1"/>
        <pt x="102" y="404" on="0"/>
        <pt x="165" y="464" on="0"/>
        <pt x="219" y="472" on="1"/>
        <pt x="251" y="475" on="0"/>
        <pt x="295" y="476" on="0"/>
        <pt x="311" y="476" on="1"/>
        <pt x="325" y="476" on="1"/>
      </contour>
      <contour>
        <pt x="328" y="424" on="1"/>
        <pt x="312" y="424" on="1"/>
        <pt x="270" y="424" on="0"/>
        <pt x="214" y="420" on="0"/>
        <pt x="180" y="405" on="0"/>
        <pt x="166" y="382" on="0"/>
        <pt x="166" y="363" on="1"/>
        <pt x="166" y="344" on="0"/>
        <pt x="199" y="311" on="0"/>
        <pt x="231" y="311" on="1"/>
        <pt x="244" y="311" on="0"/>
        <pt x="278" y="321" on="0"/>
        <pt x="308" y="343" on="0"/>
        <pt x="328" y="379" on="0"/>
        <pt x="328" y="406" on="1"/>
      </contour>
      <contour>
        <pt x="76" y="206" on="1"/>
        <pt x="425" y="206" on="1"/>
        <pt x="425" y="152" on="1"/>
        <pt x="76" y="152" on="1"/>
      </contour>
    </TTGlyph>
    <TTGlyph name="ordmasculine" xMin="76" yMin="152" xMax="425" yMax="622">
      <contour>
        <pt x="96" y="434" on="1"/>
        <pt x="96" y="476" on="0"/>
        <pt x="121" y="545" on="0"/>
        <pt x="163" y="594" on="0"/>
        <pt x="219" y="622" on="0"/>
        <pt x="249" y="622" on="1"/>
        <pt x="280" y="622" on="0"/>
        <pt x="334" y="598" on="0"/>
        <pt x="374" y="552" on="0"/>
        <pt x="397" y="485" on="0"/>
        <pt x="397" y="441" on="1"/>
        <pt x="397" y="398" on="0"/>
        <pt x="372" y="329" on="0"/>
        <pt x="330" y="281" on="0"/>
        <pt x="275" y="256" on="0"/>
        <pt x="245" y="256" on="1"/>
        <pt x="214" y="256" on="0"/>
        <pt x="160" y="282" on="0"/>
        <pt x="119" y="329" on="0"/>
        <pt x="96" y="394" on="0"/>
      </contour>
      <contour>
        <pt x="247" y="566" on="1"/>
        <pt x="210" y="566" on="0"/>
        <pt x="156" y="498" on="0"/>
        <pt x="156" y="438" on="1"/>
        <pt x="156" y="378" on="0"/>
        <pt x="210" y="314" on="0"/>
        <pt x="246" y="314" on="1"/>
        <pt x="283" y="314" on="0"/>
        <pt x="337" y="377" on="0"/>
        <pt x="337" y="437" on="1"/>
        <pt x="337" y="498" on="0"/>
        <pt x="284" y="566" on="0"/>
      </contour>
      <contour>
        <pt x="76" y="206" on="1"/>
        <pt x="425" y="206" on="1"/>
        <pt x="425" y="152" on="1"/>
        <pt x="76" y="152" on="1"/>
      </contour>
    </TTGlyph>
    <TTGlyph name="oslash" xMin="40" yMin="-64" xMax="460" yMax="519">
      <contour>
        <pt x="252" y="406" on="1"/>
        <pt x="225" y="406" on="0"/>
        <pt x="176" y="381" on="0"/>
        <pt x="138" y="336" on="0"/>
        <pt x="116" y="273" on="0"/>
        <pt x="116" y="235" on="1"/>
        <pt x="116" y="159" on="0"/>
        <pt x="150" y="110" on="1"/>
        <pt x="304" y="393" on="1"/>
        <pt x="279" y="406" on="0"/>
      </contour>
      <contour>
        <pt x="386" y="417" on="1"/>
        <pt x="460" y="349" on="0"/>
        <pt x="460" y="233" on="1"/>
        <pt x="460" y="175" on="0"/>
        <pt x="428" y="84" on="0"/>
        <pt x="372" y="21" on="0"/>
        <pt x="297" y="-12" on="0"/>
        <pt x="255" y="-12" on="1"/>
        <pt x="205" y="-12" on="0"/>
        <pt x="162" y="10" on="1"/>
        <pt x="122" y="-64" on="1"/>
        <pt x="70" y="-37" on="1"/>
        <pt x="114" y="44" on="1"/>
        <pt x="40" y="115" on="0"/>
        <pt x="40" y="221" on="1"/>
        <pt x="40" y="275" on="0"/>
        <pt x="75" y="365" on="0"/>
        <pt x="134" y="430" on="0"/>
        <pt x="213" y="467" on="0"/>
        <pt x="257" y="467" on="1"/>
        <pt x="296" y="467" on="0"/>
        <pt x="335" y="450" on="1"/>
        <pt x="372" y="519" on="1"/>
        <pt x="425" y="490" on="1"/>
      </contour>
      <contour>
        <pt x="351" y="354" on="1"/>
        <pt x="194" y="67" on="1"/>
        <pt x="223" y="50" on="0"/>
        <pt x="255" y="50" on="1"/>
        <pt x="282" y="50" on="0"/>
        <pt x="330" y="74" on="0"/>
        <pt x="367" y="119" on="0"/>
        <pt x="388" y="183" on="0"/>
        <pt x="388" y="223" on="1"/>
        <pt x="388" y="305" on="0"/>
      </contour>
    </TTGlyph>
    <TTGlyph name="otilde" xMin="40" yMin="-12" xMax="460" yMax="676">
      <component glyphName="o" x="0" y="0" flags="0x204"/>
      <component glyphName="tilde" x="0" y="0" flags="0x4"/>
    </TTGlyph>
    <TTGlyph name="p" xMin="60" yMin="-167" xMax="463" yMax="467">
      <contour>
        <pt x="60" y="457" on="1"/>
        <pt x="133" y="457" on="1"/>
        <pt x="133" y="387" on="1"/>
        <pt x="156" y="424" on="0"/>
        <pt x="233" y="467" on="0"/>
        <pt x="272" y="467" on="1"/>
        <pt x="310" y="467" on="0"/>
        <pt x="379" y="438" on="0"/>
        <pt x="432" y="380" on="0"/>
        <pt x="463" y="292" on="0"/>
        <pt x="463" y="232" on="1"/>
        <pt x="463" y="172" on="0"/>
        <pt x="430" y="80" on="0"/>
        <pt x="376" y="19" on="0"/>
        <pt x="307" y="-12" on="0"/>
        <pt x="271" y="-12" on="1"/>
        <pt x="229" y="-12" on="0"/>
        <pt x="157" y="26" on="0"/>
        <pt x="134" y="60" on="1"/>
        <pt x="134" y="-167" on="1"/>
        <pt x="60" y="-167" on="1"/>
      </contour>
      <contour>
        <pt x="133" y="190" on="1"/>
        <pt x="135" y="116" on="0"/>
        <pt x="199" y="52" on="0"/>
        <pt x="246" y="52" on="1"/>
        <pt x="271" y="52" on="0"/>
        <pt x="321" y="68" on="0"/>
        <pt x="363" y="107" on="0"/>
        <pt x="388" y="171" on="0"/>
        <pt x="388" y="219" on="1"/>
        <pt x="388" y="307" on="0"/>
        <pt x="315" y="404" on="0"/>
        <pt x="249" y="406" on="1"/>
        <pt x="229" y="406" on="0"/>
        <pt x="187" y="392" on="0"/>
        <pt x="154" y="358" on="0"/>
        <pt x="133" y="301" on="0"/>
        <pt x="133" y="259" on="1"/>
      </contour>
    </TTGlyph>
    <TTGlyph name="paragraph" xMin="64" yMin="-68" xMax="436" yMax="665">
      <contour>
        <pt x="436" y="665" on="1"/>
        <pt x="436" y="-68" on="1"/>
        <pt x="378" y="-68" on="1"/>
        <pt x="378" y="608" on="1"/>
        <pt x="302" y="608" on="1"/>
        <pt x="302" y="-68" on="1"/>
        <pt x="243" y="-68" on="1"/>
        <pt x="243" y="322" on="1"/>
        <pt x="205" y="324" on="0"/>
        <pt x="140" y="354" on="0"/>
        <pt x="92" y="401" on="0"/>
        <pt x="64" y="462" on="0"/>
        <pt x="64" y="496" on="1"/>
        <pt x="64" y="530" on="0"/>
        <pt x="89" y="592" on="0"/>
        <pt x="148" y="639" on="0"/>
        <pt x="242" y="665" on="0"/>
        <pt x="311" y="665" on="1"/>
      </contour>
    </TTGlyph>
    <TTGlyph name="parenleft" xMin="139" yMin="-173" xMax="425" yMax="666">
      <contour>
        <pt x="414" y="603" on="1"/>
        <pt x="403" y="604" on="1"/>
        <pt x="400" y="604" on="0"/>
        <pt x="394" y="601" on="1"/>
        <pt x="306" y="549" on="0"/>
        <pt x="208" y="370" on="0"/>
        <pt x="208" y="256" on="1"/>
        <pt x="208" y="200" on="0"/>
        <pt x="238" y="91" on="0"/>
        <pt x="294" y="-8" on="0"/>
        <pt x="375" y="-91" on="0"/>
        <pt x="425" y="-120" on="1"/>
        <pt x="393" y="-173" on="1"/>
        <pt x="333" y="-142" on="0"/>
        <pt x="239" y="-51" on="0"/>
        <pt x="174" y="61" on="0"/>
        <pt x="139" y="190" on="0"/>
        <pt x="139" y="258" on="1"/>
        <pt x="139" y="326" on="0"/>
        <pt x="174" y="451" on="0"/>
        <pt x="240" y="558" on="0"/>
        <pt x="333" y="640" on="0"/>
        <pt x="392" y="666" on="1"/>
        <pt x="422" y="605" on="1"/>
        <pt x="416" y="603" on="0"/>
      </contour>
    </TTGlyph>
    <TTGlyph name="parenright" xMin="72" yMin="-174" xMax="364" yMax="665">
      <contour>
        <pt x="78" y="603" on="1"/>
        <pt x="97" y="665" on="1"/>
        <pt x="157" y="637" on="0"/>
        <pt x="257" y="550" on="0"/>
        <pt x="326" y="441" on="0"/>
        <pt x="364" y="316" on="0"/>
        <pt x="364" y="250" on="1"/>
        <pt x="364" y="183" on="0"/>
        <pt x="325" y="56" on="0"/>
        <pt x="254" y="-55" on="0"/>
        <pt x="153" y="-145" on="0"/>
        <pt x="91" y="-174" on="1"/>
        <pt x="72" y="-114" on="1"/>
        <pt x="123" y="-87" on="0"/>
        <pt x="204" y="-10" on="0"/>
        <pt x="262" y="85" on="0"/>
        <pt x="293" y="191" on="0"/>
        <pt x="293" y="247" on="1"/>
        <pt x="293" y="303" on="0"/>
        <pt x="262" y="409" on="0"/>
        <pt x="206" y="501" on="0"/>
        <pt x="126" y="577" on="0"/>
      </contour>
    </TTGlyph>
    <TTGlyph name="percent" xMin="28" yMin="-10" xMax="482" yMax="634">
      <contour>
        <pt x="391" y="623" on="1"/>
        <pt x="458" y="623" on="1"/>
        <pt x="110" y="0" on="1"/>
        <pt x="46" y="0" on="1"/>
      </contour>
      <contour>
        <pt x="28" y="504" on="1"/>
        <pt x="28" y="531" on="0"/>
        <pt x="46" y="579" on="0"/>
        <pt x="76" y="614" on="0"/>
        <pt x="117" y="634" on="0"/>
        <pt x="140" y="634" on="1"/>
        <pt x="163" y="634" on="0"/>
        <pt x="204" y="614" on="0"/>
        <pt x="234" y="578" on="0"/>
        <pt x="252" y="530" on="0"/>
        <pt x="252" y="503" on="1"/>
        <pt x="252" y="446" on="0"/>
        <pt x="188" y="373" on="0"/>
        <pt x="140" y="373" on="1"/>
        <pt x="117" y="373" on="0"/>
        <pt x="76" y="393" on="0"/>
        <pt x="46" y="428" on="0"/>
        <pt x="28" y="476" on="0"/>
      </contour>
      <contour>
        <pt x="189" y="504" on="1"/>
        <pt x="189" y="547" on="0"/>
        <pt x="157" y="582" on="0"/>
        <pt x="138" y="582" on="1"/>
        <pt x="120" y="582" on="0"/>
        <pt x="89" y="547" on="0"/>
        <pt x="89" y="504" on="1"/>
        <pt x="89" y="462" on="0"/>
        <pt x="121" y="426" on="0"/>
        <pt x="140" y="426" on="1"/>
        <pt x="159" y="426" on="0"/>
        <pt x="189" y="461" on="0"/>
      </contour>
      <contour>
        <pt x="371" y="249" on="1"/>
        <pt x="394" y="249" on="0"/>
        <pt x="435" y="229" on="0"/>
        <pt x="465" y="193" on="0"/>
        <pt x="482" y="146" on="0"/>
        <pt x="482" y="119" on="1"/>
        <pt x="482" y="92" on="0"/>
        <pt x="464" y="44" on="0"/>
        <pt x="434" y="10" on="0"/>
        <pt x="394" y="-10" on="0"/>
        <pt x="371" y="-10" on="1"/>
        <pt x="348" y="-10" on="0"/>
        <pt x="307" y="10" on="0"/>
        <pt x="277" y="44" on="0"/>
        <pt x="259" y="92" on="0"/>
        <pt x="259" y="119" on="1"/>
        <pt x="259" y="146" on="0"/>
        <pt x="277" y="194" on="0"/>
        <pt x="307" y="229" on="0"/>
        <pt x="348" y="249" on="0"/>
      </contour>
      <contour>
        <pt x="406" y="179" on="1"/>
        <pt x="389" y="198" on="0"/>
        <pt x="370" y="198" on="1"/>
        <pt x="350" y="198" on="0"/>
        <pt x="318" y="162" on="0"/>
        <pt x="318" y="120" on="1"/>
        <pt x="318" y="77" on="0"/>
        <pt x="352" y="40" on="0"/>
        <pt x="372" y="40" on="1"/>
        <pt x="392" y="40" on="0"/>
        <pt x="423" y="78" on="0"/>
        <pt x="423" y="118" on="1"/>
        <pt x="423" y="159" on="0"/>
      </contour>
    </TTGlyph>
    <TTGlyph name="period" xMin="179" yMin="-11" xMax="298" yMax="104">
      <contour>
        <pt x="280" y="87" on="1"/>
        <pt x="298" y="69" on="0"/>
        <pt x="298" y="46" on="1"/>
        <pt x="298" y="23" on="0"/>
        <pt x="263" y="-11" on="0"/>
        <pt x="238" y="-11" on="1"/>
        <pt x="213" y="-11" on="0"/>
        <pt x="179" y="22" on="0"/>
        <pt x="179" y="46" on="1"/>
        <pt x="179" y="70" on="0"/>
        <pt x="215" y="104" on="0"/>
        <pt x="238" y="104" on="1"/>
        <pt x="261" y="104" on="0"/>
      </contour>
    </TTGlyph>
    <TTGlyph name="periodcentered" xMin="179" yMin="274" xMax="298" yMax="388">
      <contour>
        <pt x="280" y="371" on="1"/>
        <pt x="298" y="354" on="0"/>
        <pt x="298" y="331" on="1"/>
        <pt x="298" y="308" on="0"/>
        <pt x="263" y="274" on="0"/>
        <pt x="238" y="274" on="1"/>
        <pt x="213" y="274" on="0"/>
        <pt x="179" y="307" on="0"/>
        <pt x="179" y="331" on="1"/>
        <pt x="179" y="355" on="0"/>
        <pt x="215" y="388" on="0"/>
        <pt x="238" y="388" on="1"/>
        <pt x="261" y="388" on="0"/>
      </contour>
    </TTGlyph>
    <TTGlyph name="plus" xMin="45" yMin="104" xMax="456" yMax="523">
      <contour>
        <pt x="222" y="523" on="1"/>
        <pt x="285" y="523" on="1"/>
        <pt x="285" y="352" on="1"/>
        <pt x="456" y="352" on="1"/>
        <pt x="456" y="291" on="1"/>
        <pt x="285" y="291" on="1"/>
        <pt x="285" y="104" on="1"/>
        <pt x="222" y="104" on="1"/>
        <pt x="222" y="291" on="1"/>
        <pt x="45" y="291" on="1"/>
        <pt x="45" y="352" on="1"/>
        <pt x="222" y="352" on="1"/>
      </contour>
    </TTGlyph>
    <TTGlyph name="plusminus" xMin="45" yMin="17" xMax="457" yMax="575">
      <contour>
        <pt x="46" y="80" on="1"/>
        <pt x="457" y="80" on="1"/>
        <pt x="457" y="17" on="1"/>
        <pt x="46" y="17" on="1"/>
      </contour>
      <contour>
        <pt x="222" y="575" on="1"/>
        <pt x="285" y="575" on="1"/>
        <pt x="285" y="404" on="1"/>
        <pt x="456" y="404" on="1"/>
        <pt x="456" y="343" on="1"/>
        <pt x="285" y="343" on="1"/>
        <pt x="285" y="155" on="1"/>
        <pt x="222" y="155" on="1"/>
        <pt x="222" y="343" on="1"/>
        <pt x="45" y="343" on="1"/>
        <pt x="45" y="404" on="1"/>
        <pt x="222" y="404" on="1"/>
      </contour>
    </TTGlyph>
    <TTGlyph name="q" xMin="42" yMin="-167" xMax="442" yMax="469">
      <contour>
        <pt x="374" y="390" on="1"/>
        <pt x="374" y="457" on="1"/>
        <pt x="442" y="457" on="1"/>
        <pt x="442" y="-167" on="1"/>
        <pt x="370" y="-167" on="1"/>
        <pt x="370" y="73" on="1"/>
        <pt x="349" y="35" on="0"/>
        <pt x="273" y="-10" on="0"/>
        <pt x="230" y="-10" on="1"/>
        <pt x="191" y="-10" on="0"/>
        <pt x="122" y="25" on="0"/>
        <pt x="71" y="89" on="0"/>
        <pt x="42" y="179" on="0"/>
        <pt x="42" y="234" on="1"/>
        <pt x="42" y="289" on="0"/>
        <pt x="74" y="376" on="0"/>
        <pt x="129" y="437" on="0"/>
        <pt x="202" y="469" on="0"/>
        <pt x="243" y="469" on="1"/>
        <pt x="327" y="469" on="0"/>
        <pt x="367" y="402" on="1"/>
        <pt x="374" y="392" on="0"/>
      </contour>
      <contour>
        <pt x="243" y="410" on="1"/>
        <pt x="217" y="410" on="0"/>
        <pt x="171" y="389" on="0"/>
        <pt x="136" y="347" on="0"/>
        <pt x="115" y="282" on="0"/>
        <pt x="115" y="239" on="1"/>
        <pt x="115" y="195" on="0"/>
        <pt x="136" y="126" on="0"/>
        <pt x="172" y="78" on="0"/>
        <pt x="219" y="53" on="0"/>
        <pt x="246" y="53" on="1"/>
        <pt x="303" y="53" on="0"/>
        <pt x="368" y="139" on="0"/>
        <pt x="368" y="235" on="1"/>
        <pt x="368" y="333" on="0"/>
        <pt x="300" y="410" on="0"/>
      </contour>
    </TTGlyph>
    <TTGlyph name="question" xMin="64" yMin="-13" xMax="434" yMax="665">
      <contour>
        <pt x="303" y="85" on="1"/>
        <pt x="320" y="66" on="0"/>
        <pt x="320" y="44" on="1"/>
        <pt x="320" y="21" on="0"/>
        <pt x="285" y="-13" on="0"/>
        <pt x="261" y="-13" on="1"/>
        <pt x="237" y="-13" on="0"/>
        <pt x="202" y="21" on="0"/>
        <pt x="202" y="44" on="1"/>
        <pt x="202" y="67" on="0"/>
        <pt x="237" y="102" on="0"/>
        <pt x="261" y="102" on="1"/>
        <pt x="284" y="102" on="0"/>
      </contour>
      <contour>
        <pt x="64" y="561" on="1"/>
        <pt x="96" y="610" on="0"/>
        <pt x="200" y="665" on="0"/>
        <pt x="257" y="665" on="1"/>
        <pt x="297" y="665" on="0"/>
        <pt x="362" y="637" on="0"/>
        <pt x="408" y="589" on="0"/>
        <pt x="434" y="525" on="0"/>
        <pt x="434" y="489" on="1"/>
        <pt x="434" y="461" on="0"/>
        <pt x="420" y="418" on="0"/>
        <pt x="399" y="384" on="0"/>
        <pt x="371" y="358" on="0"/>
        <pt x="357" y="346" on="1"/>
        <pt x="335" y="328" on="1"/>
        <pt x="306" y="305" on="0"/>
        <pt x="292" y="258" on="0"/>
        <pt x="292" y="226" on="1"/>
        <pt x="292" y="185" on="1"/>
        <pt x="226" y="185" on="1"/>
        <pt x="226" y="226" on="1"/>
        <pt x="226" y="247" on="0"/>
        <pt x="229" y="281" on="0"/>
        <pt x="242" y="314" on="0"/>
        <pt x="269" y="351" on="0"/>
        <pt x="293" y="375" on="1"/>
        <pt x="328" y="410" on="0"/>
        <pt x="355" y="466" on="0"/>
        <pt x="355" y="494" on="1"/>
        <pt x="355" y="516" on="0"/>
        <pt x="339" y="555" on="0"/>
        <pt x="311" y="584" on="0"/>
        <pt x="274" y="600" on="0"/>
        <pt x="253" y="600" on="1"/>
        <pt x="211" y="600" on="0"/>
        <pt x="138" y="553" on="0"/>
        <pt x="115" y="513" on="1"/>
      </contour>
    </TTGlyph>
    <TTGlyph name="questiondown" xMin="67" yMin="-13" xMax="438" yMax="665">
      <contour>
        <pt x="198" y="567" on="1"/>
        <pt x="181" y="583" on="0"/>
        <pt x="181" y="608" on="1"/>
        <pt x="181" y="632" on="0"/>
        <pt x="217" y="665" on="0"/>
        <pt x="240" y="665" on="1"/>
        <pt x="263" y="665" on="0"/>
        <pt x="300" y="631" on="0"/>
        <pt x="300" y="608" on="1"/>
        <pt x="300" y="585" on="0"/>
        <pt x="265" y="551" on="0"/>
        <pt x="240" y="551" on="1"/>
        <pt x="215" y="551" on="0"/>
      </contour>
      <contour>
        <pt x="438" y="91" on="1"/>
        <pt x="406" y="42" on="0"/>
        <pt x="302" y="-13" on="0"/>
        <pt x="245" y="-13" on="1"/>
        <pt x="203" y="-13" on="0"/>
        <pt x="137" y="15" on="0"/>
        <pt x="91" y="63" on="0"/>
        <pt x="67" y="127" on="0"/>
        <pt x="67" y="163" on="1"/>
        <pt x="67" y="215" on="0"/>
        <pt x="114" y="282" on="0"/>
        <pt x="144" y="307" on="1"/>
        <pt x="166" y="325" on="1"/>
        <pt x="194" y="348" on="0"/>
        <pt x="210" y="394" on="0"/>
        <pt x="210" y="426" on="1"/>
        <pt x="210" y="468" on="1"/>
        <pt x="275" y="468" on="1"/>
        <pt x="275" y="426" on="1"/>
        <pt x="275" y="403" on="0"/>
        <pt x="272" y="370" on="0"/>
        <pt x="259" y="338" on="0"/>
        <pt x="232" y="302" on="0"/>
        <pt x="209" y="278" on="1"/>
        <pt x="173" y="240" on="0"/>
        <pt x="146" y="187" on="0"/>
        <pt x="146" y="158" on="1"/>
        <pt x="146" y="136" on="0"/>
        <pt x="163" y="97" on="0"/>
        <pt x="191" y="69" on="0"/>
        <pt x="228" y="52" on="0"/>
        <pt x="248" y="52" on="1"/>
        <pt x="290" y="52" on="0"/>
        <pt x="363" y="99" on="0"/>
        <pt x="387" y="139" on="1"/>
      </contour>
    </TTGlyph>
    <TTGlyph name="quotedbl" xMin="111" yMin="412" xMax="397" yMax="666">
      <contour>
        <pt x="315" y="548" on="1"/>
        <pt x="309" y="611" on="1"/>
        <pt x="309" y="639" on="0"/>
        <pt x="335" y="666" on="0"/>
        <pt x="352" y="666" on="1"/>
        <pt x="369" y="666" on="0"/>
        <pt x="397" y="636" on="0"/>
        <pt x="397" y="603" on="1"/>
        <pt x="397" y="572" on="0"/>
        <pt x="363" y="478" on="1"/>
        <pt x="339" y="412" on="1"/>
        <pt x="284" y="425" on="1"/>
        <pt x="306" y="493" on="1"/>
        <pt x="315" y="523" on="0"/>
      </contour>
      <contour>
        <pt x="143" y="548" on="1"/>
        <pt x="136" y="611" on="1"/>
        <pt x="136" y="639" on="0"/>
        <pt x="162" y="666" on="0"/>
        <pt x="179" y="666" on="1"/>
        <pt x="196" y="666" on="0"/>
        <pt x="224" y="636" on="0"/>
        <pt x="224" y="603" on="1"/>
        <pt x="224" y="569" on="0"/>
        <pt x="191" y="478" on="1"/>
        <pt x="167" y="412" on="1"/>
        <pt x="111" y="425" on="1"/>
        <pt x="133" y="493" on="1"/>
        <pt x="138" y="508" on="0"/>
        <pt x="143" y="535" on="0"/>
      </contour>
    </TTGlyph>
</ttFont>
